<svg width="510" height="510" viewBox="0 0 510 510" fill="none" xmlns="http://www.w3.org/2000/svg">
<path d="M510 390.048H0V390.303H510V390.048Z" fill="#EBEBEB"/>
<path d="M458.898 406.46H425.116V406.715H458.898V406.46Z" fill="#EBEBEB"/>
<path d="M337.844 409.234H297.84V409.489H337.844V409.234Z" fill="#EBEBEB"/>
<path d="M424.096 396.994H365.935V397.249H424.096V396.994Z" fill="#EBEBEB"/>
<path d="M247.972 398.708H177.97V398.963H247.972V398.708Z" fill="#EBEBEB"/>
<path d="M263.507 398.708H257.05V398.963H263.507V398.708Z" fill="#EBEBEB"/>
<path d="M229.643 403.012H100.297V403.267H229.643V403.012Z" fill="#EBEBEB"/>
<path d="M241.74 344.556H44.7882C43.2453 344.553 41.7665 343.939 40.6764 342.847C39.5864 341.755 38.9742 340.275 38.9742 338.732V61.8733C38.9876 60.3392 39.6058 58.8724 40.6944 57.7915C41.7829 56.7105 43.2541 56.1027 44.7882 56.1001H241.74C243.285 56.1001 244.766 56.7137 245.858 57.806C246.951 58.8982 247.564 60.3796 247.564 61.9243V338.732C247.564 340.277 246.951 341.758 245.858 342.85C244.766 343.942 243.285 344.556 241.74 344.556ZM44.7882 56.3041C43.3129 56.3068 41.899 56.8947 40.8568 57.9389C39.8145 58.983 39.2292 60.398 39.2292 61.8733V338.732C39.2292 340.207 39.8145 341.622 40.8568 342.666C41.899 343.71 43.3129 344.298 44.7882 344.301H241.74C243.216 344.298 244.631 343.711 245.675 342.667C246.719 341.623 247.307 340.208 247.309 338.732V61.8733C247.307 60.3971 246.719 58.9821 245.675 57.9383C244.631 56.8944 243.216 56.3068 241.74 56.3041H44.7882Z" fill="#EBEBEB"/>
<path d="M462.376 344.556H265.414C263.87 344.553 262.391 343.939 261.299 342.847C260.207 341.756 259.593 340.276 259.59 338.732V61.8733C259.606 60.3383 260.227 58.8715 261.317 57.7908C262.407 56.7102 263.879 56.1027 265.414 56.1001H462.376C463.909 56.1054 465.377 56.7144 466.463 57.7951C467.55 58.8757 468.167 60.341 468.18 61.8733V338.732C468.18 340.273 467.569 341.751 466.481 342.843C465.393 343.935 463.917 344.551 462.376 344.556ZM265.414 56.3041C263.938 56.3068 262.523 56.8944 261.479 57.9383C260.435 58.9821 259.848 60.3971 259.845 61.8733V338.732C259.848 340.208 260.435 341.623 261.479 342.667C262.523 343.711 263.938 344.298 265.414 344.301H462.376C463.852 344.298 465.267 343.711 466.311 342.667C467.355 341.623 467.943 340.208 467.945 338.732V61.8733C467.943 60.3971 467.355 58.9821 466.311 57.9383C465.267 56.8944 463.852 56.3068 462.376 56.3041H265.414Z" fill="#EBEBEB"/>
<path d="M374.942 140.515C389.115 140.515 400.605 129.026 400.605 114.852C400.605 100.679 389.115 89.189 374.942 89.189C360.768 89.189 349.279 100.679 349.279 114.852C349.279 129.026 360.768 140.515 374.942 140.515Z" fill="#F5F5F5"/>
<path d="M439.345 194.688C438.998 191.26 432.551 188.925 421.678 188.925C407.541 188.925 390.711 192.862 381.796 198.033C379.593 197.551 377.34 197.328 375.085 197.37C365.446 197.37 353.767 200.369 349.003 204.051C348.603 204.357 348.231 204.699 347.891 205.071H442.751C444.195 204.419 445.563 203.612 446.831 202.664C452.033 198.635 448.637 195.3 439.345 194.688Z" fill="#EBEBEB"/>
<path d="M144.483 206.662C144.218 204.122 139.454 202.399 131.396 202.399C120.921 202.399 108.446 205.306 101.816 209.141C100.182 208.784 98.5114 208.62 96.8388 208.651C89.6988 208.651 81.0594 210.865 77.52 213.598C77.2247 213.823 76.9484 214.072 76.6938 214.343H146.972C148.051 213.859 149.076 213.265 150.032 212.568C153.877 209.579 151.368 207.111 144.483 206.662Z" fill="#F5F5F5"/>
<path d="M308.04 158.559C314.155 156.392 320.586 155.254 327.073 155.193C335.325 155.193 339.211 157.488 336.6 160.507C338.231 160.262 339.877 160.136 341.527 160.13C347.157 160.13 349.452 161.874 346.627 164.026C346.361 164.22 346.066 164.424 345.739 164.618H290.404C290.729 164.051 291.179 163.567 291.72 163.2C294.709 160.864 301.736 158.916 308.04 158.559Z" fill="#F5F5F5"/>
<path d="M189.23 162.048C193.13 160.667 197.232 159.943 201.368 159.906C206.621 159.906 209.1 161.374 207.488 163.292C208.528 163.136 209.578 163.054 210.63 163.047C214.21 163.047 215.73 164.159 213.904 165.536C213.724 165.671 213.536 165.797 213.343 165.913H177.97C178.164 165.558 178.436 165.251 178.765 165.016C180.713 163.516 185.191 162.282 189.23 162.048Z" fill="#F5F5F5"/>
<path d="M192.26 108.538C191.566 108.538 190.862 108.538 190.138 108.538C190.505 105.682 185.609 103.683 176.878 103.683C174.472 103.69 172.068 103.826 169.677 104.091C169.677 100.45 163.108 97.9712 151.776 97.9712C137.945 97.9712 121.564 101.694 112.333 106.672C103.51 107.314 93.9726 110.028 89.7702 113.281C89.3597 113.583 88.9804 113.924 88.638 114.301H199.818C204 111.119 200.583 108.538 192.26 108.538Z" fill="#EBEBEB"/>
<path d="M335.111 328.736C331.031 292.016 281.112 368.516 283.988 338.416C285.733 320.056 295.698 294.882 266.138 301.543C236.579 308.203 245.932 342.445 231.336 349.86C216.74 357.276 220.881 324.36 201.164 326.308C195.585 326.859 191.434 331.092 188.343 337.141C188.006 326.727 185.589 317.475 179.306 312.477C155.04 293.189 172.38 350.992 133.62 332.102C119.554 325.237 153.122 284.07 125.562 275.461C98.0016 266.853 100.46 299.391 96.7266 323.187C90.6066 362.182 63.4848 263.16 48.4806 310.713C38.6988 341.7 64.0356 390.15 64.0356 390.15L179.296 389.895V390.028L301.237 390.15C301.237 390.15 337.753 352.696 335.111 328.736Z" fill="#F5F5F5"/>
<path d="M297.248 241.128L305.062 227.124L312.926 242.689L311.437 390.048H298.687L297.248 241.128Z" fill="#F0F0F0"/>
<path d="M285.09 246.157L277.277 227.124L269.413 242.689L270.902 390.048H283.642L285.09 246.157Z" fill="#F0F0F0"/>
<path d="M253.664 241.128L245.851 227.124L237.986 242.689L239.476 390.048H252.226L253.664 241.128Z" fill="#F0F0F0"/>
<path d="M203.225 246.157L211.038 227.124L218.902 242.689L217.413 390.048H204.663L203.225 246.157Z" fill="#F0F0F0"/>
<path d="M413.936 241.128L421.76 227.124L429.624 242.689L428.135 390.048H415.385L413.936 241.128Z" fill="#F0F0F0"/>
<path d="M401.788 246.157L393.965 227.124L386.111 242.689L387.6 390.048H400.34L401.788 246.157Z" fill="#F0F0F0"/>
<path d="M370.362 241.128L362.549 227.124L354.685 242.689L356.174 390.048H368.924L370.362 241.128Z" fill="#F0F0F0"/>
<path d="M325.472 246.157L333.295 227.124L341.149 242.689L339.66 390.048H326.92L325.472 246.157Z" fill="#F0F0F0"/>
<path d="M203.612 285.692L218.474 285.702L218.627 270.657L203.459 270.545L203.612 285.692Z" fill="#E0E0E0"/>
<path d="M238.425 285.712L253.235 285.722L253.378 270.922L238.272 270.81L238.425 285.712Z" fill="#E0E0E0"/>
<path d="M269.851 285.723L284.692 285.733L284.835 271.167L269.708 271.055L269.851 285.723Z" fill="#E0E0E0"/>
<path d="M297.677 285.733L312.487 285.743L312.63 271.381L297.534 271.259L297.677 285.733Z" fill="#E0E0E0"/>
<path d="M325.87 285.753H340.721L340.864 271.596L325.727 271.483L325.87 285.753Z" fill="#E0E0E0"/>
<path d="M355.113 285.763L369.934 285.774L370.066 271.82L354.98 271.708L355.113 285.763Z" fill="#E0E0E0"/>
<path d="M386.539 285.774L401.39 285.784L401.523 272.065L386.407 271.942L386.539 285.774Z" fill="#E0E0E0"/>
<path d="M414.232 272.167L414.375 285.794H429.185L429.318 272.279L414.232 272.167Z" fill="#E0E0E0"/>
<path d="M196.401 277.328L443.68 281.714L443.465 268.291L193.8 262.059L196.401 277.328Z" fill="#F0F0F0"/>
<path d="M255 436.111C364.224 436.111 452.768 430.942 452.768 424.565C452.768 418.188 364.224 413.018 255 413.018C145.776 413.018 57.2322 418.188 57.2322 424.565C57.2322 430.942 145.776 436.111 255 436.111Z" fill="#F5F5F5"/>
<path d="M389.864 420.24H395.984C395.984 420.24 395.362 393.72 408 368.842C420.638 343.964 417.374 328.195 409.867 334.468C402.359 340.741 391.496 376.625 389.864 420.24Z" fill="#263238"/>
<path d="M389.446 417.394L384.673 419.995C374.595 425.473 362.753 425.921 350.686 420.872C343.454 417.812 337.151 413.182 336.539 406.062C335.05 388.722 356.021 411.692 356.643 401.584C357.265 391.476 332.398 393.883 332.275 382.755C332.153 371.627 359.713 393.455 358.795 377.543C357.877 361.631 333.071 377.104 332.632 365.15C332.194 353.195 357.316 366.659 358.132 356.266C358.948 345.872 332.398 354.838 334.366 342.822C336.335 330.806 361.294 355.541 364.732 345.709C368.169 335.876 334.509 338.65 341.986 327.298C349.462 315.945 366.313 335.294 370.546 330.817C374.779 326.339 354.093 321.871 356.786 315.455C359.479 309.04 369.026 307.897 379.593 317.414C391.741 328.409 400.523 342.914 398.81 351.818C397.096 360.723 386.447 340.18 383.367 345.586C376.839 357.051 399.636 360.325 400.585 371.005C401.533 381.684 381.97 359.989 378.318 366.445C371.504 378.522 406.266 380.144 403.053 387.947C399.35 396.923 375.207 379.338 374.105 390.629C372.473 407.5 395.525 388.151 399.116 399.554C402.706 410.958 389.446 417.394 389.446 417.394Z" fill="#B6DD77"/>
<path opacity="0.8" d="M389.446 417.394L384.673 419.995C374.595 425.473 362.753 425.921 350.686 420.872C343.454 417.812 337.151 413.182 336.539 406.062C335.05 388.722 356.021 411.692 356.643 401.584C357.265 391.476 332.398 393.883 332.275 382.755C332.153 371.627 359.713 393.455 358.795 377.543C357.877 361.631 333.071 377.104 332.632 365.15C332.194 353.195 357.316 366.659 358.132 356.266C358.948 345.872 332.398 354.838 334.366 342.822C336.335 330.806 361.294 355.541 364.732 345.709C368.169 335.876 334.509 338.65 341.986 327.298C349.462 315.945 366.313 335.294 370.546 330.817C374.779 326.339 354.093 321.871 356.786 315.455C359.479 309.04 369.026 307.897 379.593 317.414C391.741 328.409 400.523 342.914 398.81 351.818C397.096 360.723 386.447 340.18 383.367 345.586C376.839 357.051 399.636 360.325 400.585 371.005C401.533 381.684 381.97 359.989 378.318 366.445C371.504 378.522 406.266 380.144 403.053 387.947C399.35 396.923 375.207 379.338 374.105 390.629C372.473 407.5 395.525 388.151 399.116 399.554C402.706 410.958 389.446 417.394 389.446 417.394Z" fill="white"/>
<path d="M348.085 422.494H335.845C332.515 403.83 325.75 385.946 315.894 369.75C299.574 343.016 310.651 333.805 323.258 341.292C335.866 348.779 344.811 378.899 348.085 422.494Z" fill="#B6DD77"/>
<path opacity="0.2" d="M348.085 422.494H335.845C332.515 403.83 325.75 385.946 315.894 369.75C299.574 343.016 310.651 333.805 323.258 341.292C335.866 348.779 344.811 378.899 348.085 422.494Z" fill="black"/>
<path d="M363.059 424.401H347.759C347.607 401.666 342.889 379.193 333.887 358.316C319.066 324.819 334.907 313.293 349.105 322.616C363.304 331.938 368.159 369.791 363.059 424.401Z" fill="#B6DD77"/>
<path d="M392.7 425.34H398.82C398.82 425.34 399.432 407.204 412.151 394.811C423.779 383.489 415.364 379.511 407.704 384.611C400.044 389.711 392.863 410.04 392.7 425.34Z" fill="#B6DD77"/>
<path d="M326.635 424.401H314.996C314.996 424.401 318.77 410.427 313.364 391.761C324.187 401.084 326.737 415.813 326.635 424.401Z" fill="#B6DD77"/>
<path d="M318.617 424.401H310.325C310.325 424.401 311.345 414.446 305.317 401.146C314.16 407.786 317.679 418.281 318.617 424.401Z" fill="#B6DD77"/>
<path d="M409.316 424.402H414.293C414.293 424.402 413.661 418.424 417.302 410.438C412.019 414.426 409.887 420.73 409.316 424.402Z" fill="#B6DD77"/>
<path d="M275.543 420.077H279.684C279.684 420.077 279.164 415.099 282.193 408.449C278.606 411.362 276.235 415.508 275.543 420.077Z" fill="#B6DD77"/>
<path opacity="0.6" d="M275.543 420.077H279.684C279.684 420.077 279.164 415.099 282.193 408.449C278.606 411.362 276.235 415.508 275.543 420.077Z" fill="white"/>
<path d="M100.368 420.077H92.0448C92.0448 420.077 93.0648 410.081 87.006 396.698C95.88 403.379 99.4296 413.926 100.368 420.077Z" fill="#B6DD77"/>
<path opacity="0.2" d="M100.368 420.077H92.0448C92.0448 420.077 93.0648 410.081 87.006 396.698C95.88 403.379 99.4296 413.926 100.368 420.077Z" fill="black"/>
<path d="M102.877 424.697H107.294C107.294 424.697 106.733 419.404 109.956 412.325C105.274 415.864 103.377 421.444 102.877 424.697Z" fill="#B6DD77"/>
<path opacity="0.2" d="M102.877 424.697H107.294C107.294 424.697 106.733 419.404 109.956 412.325C105.274 415.864 103.377 421.444 102.877 424.697Z" fill="white"/>
<path d="M126.949 313.048L118.657 298.177L110.313 314.701L111.894 418.618H125.419L126.949 313.048Z" fill="#B6DD77"/>
<path opacity="0.6" d="M126.949 313.048L118.657 298.177L110.313 314.701L111.894 418.618H125.419L126.949 313.048Z" fill="white"/>
<path d="M139.842 318.383L148.135 298.177L156.478 314.701L154.897 418.618H141.372L139.842 318.383Z" fill="#B6DD77"/>
<path opacity="0.6" d="M139.842 318.383L148.135 298.177L156.478 314.701L154.897 418.618H141.372L139.842 318.383Z" fill="white"/>
<path d="M173.176 313.048L181.468 298.177L189.812 314.701L188.231 418.618H174.706L173.176 313.048Z" fill="#B6DD77"/>
<path opacity="0.6" d="M173.176 313.048L181.468 298.177L189.812 314.701L188.231 418.618H174.706L173.176 313.048Z" fill="white"/>
<path d="M226.695 318.383L218.402 298.177L210.059 314.701L211.64 418.618H225.165L226.695 318.383Z" fill="#B6DD77"/>
<path opacity="0.6" d="M226.695 318.383L218.402 298.177L210.059 314.701L211.64 418.618H225.165L226.695 318.383Z" fill="white"/>
<g opacity="0.5">
<path d="M110.894 352.991L126.378 352.277L126.613 335.876L110.65 336.865L110.894 352.991Z" fill="#B6DD77"/>
<path d="M140.352 351.645L155.927 350.931L156.182 334.04L140.097 335.029L140.352 351.645Z" fill="#B6DD77"/>
<path d="M173.716 350.115L189.281 349.391L189.547 331.969L173.471 332.969L173.716 350.115Z" fill="#B6DD77"/>
<path d="M210.304 330.684L210.569 348.412L226.246 347.698L226.532 329.684L210.304 330.684Z" fill="#B6DD77"/>
</g>
<path d="M231.02 342.19L99.0726 348.248L98.8278 332.316L231.999 324.054L231.02 342.19Z" fill="#B6DD77"/>
<path opacity="0.6" d="M231.02 342.19L99.0726 348.248L98.8278 332.316L231.999 324.054L231.02 342.19Z" fill="white"/>
<path d="M266.118 132.6C247.758 127.612 238.955 131.203 229.531 133.62C220.106 136.037 221.371 127.837 238.955 120.36C250.288 115.556 263.609 119.86 274.36 125.603C288.64 133.253 307.805 122.777 301.104 130.111C294.403 137.445 279.245 136.17 266.118 132.6Z" fill="#B6DD77"/>
<path opacity="0.3" d="M266.118 132.6C247.758 127.612 238.955 131.203 229.531 133.62C220.106 136.037 221.371 127.837 238.955 120.36C250.288 115.556 263.609 119.86 274.36 125.603C288.64 133.253 307.805 122.777 301.104 130.111C294.403 137.445 279.245 136.17 266.118 132.6Z" fill="black"/>
<path d="M264.863 117.922C262.262 116.729 253.225 116.902 249.043 117.861C240.179 119.901 239.353 128.969 242.525 137.078C245.698 145.187 246.769 169.881 270.698 154.204C290.884 140.964 278.368 116.831 264.863 117.922Z" fill="#263238"/>
<path d="M276.094 175.971C276.012 178.51 275.971 181.275 276.032 183.937C276.094 186.599 276.145 189.312 276.349 191.974C276.67 197.259 277.403 202.511 278.542 207.682L279.011 209.569C279.082 209.926 279.154 210.1 279.225 210.355C279.296 210.61 279.409 210.855 279.49 211.11C279.935 212.23 280.453 213.321 281.041 214.374C282.333 216.664 283.743 218.888 285.263 221.034C286.793 223.237 288.415 225.43 290.088 227.583C291.761 229.735 293.474 231.918 295.188 234.029L292.016 237.222C287.647 233.573 283.556 229.604 279.776 225.349C277.823 223.163 276.024 220.846 274.39 218.413C273.507 217.113 272.723 215.75 272.044 214.333C271.881 213.945 271.697 213.578 271.544 213.16C271.391 212.742 271.208 212.283 271.116 211.966L270.463 209.845C269.637 207.037 268.977 204.183 268.484 201.297C267.944 198.441 267.628 195.575 267.352 192.709C267.077 189.843 266.903 186.987 266.852 184.12C266.801 181.254 266.801 178.449 266.995 175.43L276.094 175.971Z" fill="#FFB573"/>
<path d="M273.36 164.995C280.673 168.983 277.858 184.671 277.858 184.671L264.374 189.271C264.374 189.271 257.173 170.697 261.497 167.178C265.996 163.516 267.699 161.905 273.36 164.995Z" fill="#263238"/>
<path opacity="0.2" d="M273.605 169.616L275.308 185.558L265.292 188.965L273.605 169.616Z" fill="black"/>
<path d="M293.678 232.56L303.593 234.508L296.82 240.455C296.82 240.455 291.445 238.507 290.914 234.845L293.678 232.56Z" fill="#FFB573"/>
<path d="M308.683 238.721L303.797 244.535L296.789 240.455L303.593 234.488L308.683 238.721Z" fill="#FFB573"/>
<path d="M235.946 415.476H244.851L245.443 394.862H236.548L235.946 415.476Z" fill="#FFB573"/>
<path d="M165.413 382.051L173.023 386.662L186.14 370.495L178.52 365.895L165.413 382.051Z" fill="#FFB573"/>
<path d="M174.145 385.978L167.413 378.583C167.298 378.454 167.141 378.371 166.97 378.351C166.799 378.33 166.626 378.373 166.484 378.471L159.865 382.949C159.702 383.068 159.567 383.22 159.467 383.395C159.368 383.57 159.307 383.764 159.287 383.964C159.268 384.164 159.291 384.366 159.356 384.557C159.42 384.748 159.524 384.923 159.661 385.07C162.047 387.61 163.333 388.712 166.291 391.966C168.116 394.006 171.962 400.126 174.451 402.859C176.939 405.593 179.836 403.277 179.03 401.9C176.405 397.52 174.922 392.55 174.716 387.447C174.701 386.906 174.499 386.387 174.145 385.978Z" fill="#263238"/>
<path d="M245.157 414.447H235.151C234.981 414.445 234.815 414.505 234.686 414.615C234.557 414.726 234.472 414.88 234.447 415.048L233.305 422.964C233.285 423.163 233.307 423.365 233.369 423.555C233.432 423.746 233.534 423.921 233.668 424.07C233.803 424.219 233.967 424.338 234.15 424.42C234.334 424.502 234.532 424.544 234.733 424.545C238.221 424.483 239.894 424.279 244.3 424.279C247.003 424.279 253.317 424.565 257.05 424.565C260.783 424.565 260.987 420.873 259.427 420.536C252.46 419.037 248.992 416.966 246.646 414.987C246.226 414.643 245.7 414.452 245.157 414.447Z" fill="#263238"/>
<g opacity="0.2">
<path d="M245.443 394.873L245.137 405.491H236.232L236.538 394.873H245.443Z" fill="black"/>
<path d="M178.51 365.895L186.13 370.505L178.939 379.359L171.748 374.228L178.51 365.895Z" fill="black"/>
</g>
<path d="M276.002 169.473C275.675 175.073 273.493 188.057 264.782 218.025L228.908 213.588C231.224 199.645 232.356 190.791 229.551 162.853C229.502 162.38 229.55 161.901 229.692 161.447C229.834 160.993 230.068 160.572 230.378 160.211C230.688 159.85 231.069 159.557 231.497 159.348C231.925 159.139 232.391 159.02 232.866 158.998C236.795 158.81 240.732 158.848 244.657 159.11C250.139 159.4 255.593 160.082 260.977 161.15C265.057 162.047 269.525 163.333 272.422 164.21C273.518 164.565 274.465 165.275 275.113 166.228C275.761 167.181 276.074 168.323 276.002 169.473Z" fill="#B6DD77"/>
<path d="M255.836 191.76H255.755L242.117 187.762C242.054 187.743 242 187.701 241.966 187.644C241.932 187.588 241.921 187.52 241.934 187.456L242.678 183.508C242.693 183.443 242.731 183.385 242.786 183.345C242.84 183.306 242.907 183.287 242.974 183.294L266.597 185.334C266.632 185.337 266.666 185.346 266.697 185.362C266.729 185.378 266.756 185.399 266.779 185.426C266.802 185.452 266.819 185.483 266.83 185.517C266.841 185.55 266.845 185.585 266.842 185.62L266.577 189.628C266.57 189.689 266.545 189.746 266.505 189.791C266.465 189.837 266.412 189.869 266.353 189.883L255.877 191.76H255.836ZM242.505 187.303L255.847 191.209L266.047 189.394L266.281 185.864L243.168 183.824L242.505 187.303Z" fill="white"/>
<path d="M234.743 158.926L232.805 158.998C232.33 159.021 231.865 159.142 231.439 159.351C231.012 159.56 230.633 159.854 230.324 160.215C230.014 160.576 229.782 160.996 229.64 161.449C229.499 161.903 229.451 162.381 229.5 162.853C230.234 170.167 230.693 176.174 230.948 181.295C232.664 180.407 234.32 179.409 235.906 178.306C235.906 178.306 237.813 168.116 234.743 158.926Z" fill="#263238"/>
<path d="M272.34 164.22C271.483 163.955 270.484 163.649 269.402 163.333C270.31 165.373 271.728 174.961 270.31 182.203C271.306 183.011 272.459 183.602 273.697 183.937C274.822 179.179 275.596 174.345 276.012 169.473C276.074 168.313 275.747 167.166 275.081 166.214C274.416 165.262 273.451 164.56 272.34 164.22Z" fill="#263238"/>
<path d="M265.781 162.313C264.18 161.895 262.517 161.476 260.896 161.119C255.511 160.052 250.057 159.37 244.576 159.079C242.536 158.926 240.496 158.865 238.609 158.855C239.884 161.119 241.516 171.462 240.822 177.878C251.175 180.867 266.628 181.264 266.628 181.264C266.628 181.264 268.474 168.708 265.781 162.313Z" fill="#263238"/>
<path d="M248.492 140.964C248.87 146.34 248.707 156.07 244.606 159.11C244.606 159.11 246.473 165.322 255.173 169.83C262.181 167.413 260.896 161.13 260.896 161.13C255.224 159.008 255.908 154.693 257.438 150.746L248.492 140.964Z" fill="#FFB573"/>
<path opacity="0.2" d="M252.134 144.952L257.428 150.736C257.057 151.653 256.77 152.602 256.571 153.571C254.378 152.969 251.614 150.134 251.665 147.767C251.654 146.809 251.813 145.856 252.134 144.952Z" fill="black"/>
<path d="M249.308 127.266C246.626 135.681 245.3 139.189 247.809 145.024C251.593 153.796 262.507 155.224 267.658 147.819C272.299 141.117 275.92 128.49 269.147 122.084C267.66 120.667 265.836 119.654 263.847 119.14C261.859 118.626 259.772 118.629 257.784 119.148C255.797 119.667 253.975 120.685 252.492 122.106C251.009 123.526 249.913 125.303 249.308 127.266Z" fill="#FFB573"/>
<path d="M249.074 120.768L246.718 134.64C253.725 132.274 266.699 126.48 268.433 123.226C271.646 117.066 254.388 116.178 249.074 120.768Z" fill="#263238"/>
<path d="M245.035 118.045C244.351 113.903 239.588 107.182 245.687 103.591C251.787 100.001 272.34 103.122 274.38 106.814C278.185 113.954 278.389 124.46 278.389 124.46C278.389 124.46 260.528 117.392 245.035 118.045Z" fill="#B6DD77"/>
<path d="M243.239 113.098C243.9 114.749 244.412 116.456 244.769 118.198C245.402 117.973 258.029 117.32 265.934 120.401C270.299 122.139 274.769 123.601 279.317 124.777C279.317 124.777 278.684 120.36 278.011 117.351C277.338 114.342 257.285 109.558 243.239 113.098Z" fill="#B6DD77"/>
<path opacity="0.3" d="M243.239 113.098C243.9 114.749 244.412 116.456 244.769 118.198C245.402 117.973 258.029 117.32 265.934 120.401C270.299 122.139 274.769 123.601 279.317 124.777C279.317 124.777 278.684 120.36 278.011 117.351C277.338 114.342 257.285 109.558 243.239 113.098Z" fill="white"/>
<path d="M238.955 120.36C250.43 115.913 263.609 119.86 274.36 125.603C285.692 131.651 300.013 126.368 302.195 127.52C301.073 126.5 299.594 126.715 295.055 126.99C290.516 127.265 283.968 126.358 279.154 123.573C271.969 119.057 263.688 116.588 255.204 116.433C242.648 115.954 229.643 122.849 224.512 129.999C228.123 128.724 231.826 123.145 238.955 120.36Z" fill="#B6DD77"/>
<path d="M264.731 218.025C264.731 218.025 263.293 286.926 259.376 313.793C255.296 341.741 246.544 403.441 246.544 403.441H234.508C234.508 403.441 234.784 340.864 237.14 313.211C239.69 283.07 238.466 214.771 238.466 214.771L264.731 218.025Z" fill="#B6DD77"/>
<path d="M233.468 403.869H247.585L248.625 399.361L232.815 398.81L233.468 403.869Z" fill="#B6DD77"/>
<path opacity="0.3" d="M233.468 403.869H247.585L248.625 399.361L232.815 398.81L233.468 403.869Z" fill="black"/>
<path opacity="0.2" d="M247.166 233.039C253.786 251.858 242.75 283.315 238.139 294.964C238.782 276.695 238.813 254.276 238.721 237.844C241.189 228.786 244.117 224.4 247.166 233.039Z" fill="black"/>
<path d="M255.265 216.852C255.265 216.852 238.384 286.62 229.439 308.54C218.821 334.601 183.539 376.941 183.539 376.941L172.951 371.015C172.951 371.015 198.533 321.035 205.867 307.479C221.503 278.634 216.913 232.193 228.857 213.639L255.265 216.852Z" fill="#B6DD77"/>
<path d="M169.891 371.484L182.784 379.267L186.599 376.043L171.86 366.2L169.891 371.484Z" fill="#B6DD77"/>
<path opacity="0.3" d="M169.891 371.484L182.784 379.267L186.599 376.043L171.86 366.2L169.891 371.484Z" fill="black"/>
<path d="M261.569 134.548C261.304 135.221 261.457 135.895 261.885 136.068C262.313 136.241 262.905 135.833 263.15 135.16C263.395 134.487 263.272 133.814 262.834 133.64C262.395 133.467 261.824 133.875 261.569 134.548Z" fill="#263238"/>
<path d="M269.127 137.486C268.872 138.159 269.015 138.843 269.453 139.006C269.892 139.169 270.473 138.771 270.718 138.108C270.963 137.445 270.83 136.752 270.392 136.588C269.953 136.425 269.392 136.823 269.127 137.486Z" fill="#263238"/>
<path d="M270.188 136.547L271.973 136.711C271.973 136.711 270.657 137.7 270.188 136.547Z" fill="#263238"/>
<path d="M266.332 137.792C266.332 139.548 266.576 141.295 267.056 142.984C266.621 143.097 266.165 143.113 265.723 143.03C265.28 142.947 264.861 142.767 264.496 142.504L266.332 137.792Z" fill="#ED893E"/>
<path d="M259.825 143.708C260.135 143.879 260.455 144.032 260.783 144.167C260.835 144.181 260.889 144.175 260.936 144.151C260.984 144.127 261.021 144.087 261.04 144.037C261.059 143.988 261.059 143.933 261.04 143.883C261.021 143.834 260.984 143.793 260.936 143.769C260.096 143.467 259.339 142.969 258.729 142.316C258.119 141.663 257.673 140.875 257.428 140.016C257.414 139.962 257.38 139.915 257.332 139.886C257.285 139.857 257.228 139.847 257.174 139.859C257.12 139.871 257.072 139.904 257.042 139.95C257.011 139.996 256.999 140.053 257.009 140.107C257.215 140.865 257.57 141.573 258.054 142.192C258.537 142.81 259.139 143.325 259.825 143.708Z" fill="#263238"/>
<path d="M244.259 133.691C244.097 135.391 244.614 137.085 245.698 138.404C247.156 140.148 249.155 139.159 249.778 137.119C250.379 135.283 250.349 132.161 248.37 131.172C247.937 130.972 247.461 130.882 246.985 130.909C246.509 130.937 246.047 131.082 245.64 131.332C245.234 131.581 244.895 131.927 244.654 132.338C244.413 132.75 244.277 133.215 244.259 133.691Z" fill="#FFB573"/>
<path d="M260.549 130.142C260.603 130.214 260.679 130.266 260.766 130.29C260.853 130.314 260.945 130.308 261.028 130.274C262.854 129.601 264.935 131.019 264.955 131.029C265.047 131.093 265.161 131.117 265.271 131.097C265.381 131.077 265.478 131.014 265.542 130.922C265.605 130.83 265.63 130.717 265.61 130.607C265.59 130.497 265.527 130.399 265.435 130.336C265.333 130.264 262.966 128.663 260.732 129.489C260.628 129.528 260.543 129.607 260.495 129.708C260.447 129.809 260.441 129.924 260.477 130.03C260.495 130.071 260.519 130.109 260.549 130.142Z" fill="#263238"/>
<path d="M273.727 133.62C273.807 133.671 273.902 133.693 273.996 133.683C274.09 133.673 274.178 133.632 274.245 133.566C274.313 133.499 274.356 133.412 274.367 133.318C274.379 133.224 274.358 133.129 274.309 133.049C273.993 132.459 273.542 131.952 272.992 131.571C272.442 131.19 271.81 130.945 271.147 130.856C271.035 130.85 270.925 130.889 270.841 130.963C270.757 131.037 270.706 131.142 270.698 131.254C270.694 131.309 270.7 131.364 270.718 131.416C270.735 131.468 270.762 131.517 270.798 131.559C270.834 131.6 270.878 131.634 270.927 131.659C270.977 131.684 271.03 131.698 271.085 131.702C271.61 131.778 272.11 131.978 272.543 132.284C272.975 132.591 273.329 132.997 273.574 133.467C273.606 133.534 273.66 133.589 273.727 133.62Z" fill="#263238"/>
<path d="M176.46 390.201H176.572C176.77 390.209 176.967 390.168 177.145 390.08C177.324 389.993 177.477 389.863 177.592 389.701C177.681 389.61 177.742 389.495 177.769 389.371C177.796 389.247 177.788 389.117 177.745 388.997C177.398 387.916 174.287 387.09 173.93 386.957C173.892 386.948 173.851 386.95 173.813 386.963C173.775 386.975 173.742 386.998 173.716 387.029C173.693 387.064 173.681 387.104 173.681 387.146C173.681 387.188 173.693 387.229 173.716 387.263C174.257 388.334 175.328 390.007 176.46 390.201ZM174.318 387.6C175.552 387.957 177.164 388.62 177.378 389.181C177.394 389.235 177.394 389.292 177.38 389.345C177.365 389.399 177.337 389.448 177.296 389.487C177.219 389.599 177.115 389.689 176.994 389.749C176.873 389.81 176.738 389.839 176.603 389.834C175.95 389.752 175.134 388.916 174.318 387.6Z" fill="#B6DD77"/>
<path d="M174.134 387.498C175.226 387.702 177.317 387.549 177.857 386.804C177.963 386.675 178.021 386.513 178.021 386.345C178.021 386.178 177.963 386.016 177.857 385.886C177.765 385.754 177.645 385.644 177.506 385.563C177.367 385.482 177.212 385.432 177.052 385.417C175.766 385.274 173.859 386.998 173.777 387.07C173.753 387.095 173.734 387.125 173.724 387.159C173.713 387.193 173.71 387.228 173.716 387.263C173.725 387.3 173.743 387.334 173.768 387.362C173.792 387.391 173.824 387.413 173.859 387.426L174.134 387.498ZM177.031 385.846C177.12 385.861 177.204 385.895 177.279 385.944C177.355 385.993 177.419 386.057 177.47 386.131C177.633 386.356 177.582 386.478 177.47 386.56C177.103 387.059 175.358 387.284 174.287 387.11C175.01 386.427 175.925 385.982 176.909 385.835L177.031 385.846Z" fill="#B6DD77"/>
<path d="M248.492 415.997C249.254 416.067 250.016 415.876 250.655 415.456C250.795 415.329 250.902 415.17 250.968 414.992C251.033 414.815 251.055 414.624 251.032 414.436C251.027 414.32 250.992 414.206 250.929 414.108C250.866 414.009 250.779 413.929 250.675 413.875C249.584 413.274 246.034 415.089 245.636 415.303C245.597 415.322 245.565 415.353 245.545 415.392C245.525 415.431 245.518 415.474 245.524 415.517C245.534 415.56 245.556 415.598 245.586 415.629C245.617 415.659 245.656 415.681 245.698 415.691C246.617 415.881 247.553 415.983 248.492 415.997ZM250.084 414.161C250.217 414.153 250.35 414.178 250.471 414.232C250.514 414.255 250.55 414.288 250.575 414.33C250.601 414.371 250.614 414.418 250.614 414.467C250.634 414.591 250.622 414.718 250.579 414.835C250.536 414.953 250.464 415.058 250.369 415.14C249.829 415.63 248.329 415.711 246.391 415.385C247.54 414.753 248.789 414.325 250.084 414.12V414.161Z" fill="#B6DD77"/>
<path d="M245.738 415.691H245.82C246.84 415.212 248.982 413.284 248.819 412.284C248.819 412.039 248.605 411.744 248.023 411.682C247.809 411.662 247.593 411.687 247.389 411.755C247.185 411.824 246.998 411.934 246.84 412.08C245.718 413.008 245.514 415.405 245.504 415.507C245.502 415.545 245.509 415.582 245.525 415.616C245.541 415.65 245.565 415.679 245.596 415.701C245.643 415.711 245.693 415.708 245.738 415.691ZM247.86 412.08H247.982C248.37 412.08 248.39 412.274 248.401 412.325C248.503 412.937 247.075 414.447 245.993 415.099C246.076 414.089 246.472 413.13 247.126 412.356C247.329 412.178 247.59 412.08 247.86 412.08Z" fill="#B6DD77"/>
<path d="M262.619 133.62L264.415 133.783C264.415 133.783 263.099 134.701 262.619 133.62Z" fill="#263238"/>
<path d="M300.4 294.362L243.892 274.982L268.291 227.562L310.223 241.934L300.4 294.362Z" fill="#263238"/>
<path d="M302.165 294.964L293.219 291.894L336.253 261.13L336.172 265.078L302.165 294.964Z" fill="#263238"/>
<path d="M264.659 270.82C255.775 270.84 247.195 267.589 240.554 261.688C233.913 255.787 229.676 247.648 228.651 238.824C227.627 229.999 229.885 221.106 234.997 213.84C240.109 206.574 247.716 201.443 256.368 199.426C265.02 197.41 274.112 198.648 281.91 202.904C289.708 207.161 295.666 214.139 298.649 222.507C301.632 230.876 301.43 240.049 298.083 248.278C294.736 256.508 288.477 263.217 280.5 267.128C275.569 269.547 270.152 270.81 264.659 270.82ZM264.598 201.797C256.326 201.787 248.352 204.887 242.259 210.483C236.166 216.078 232.399 223.76 231.707 232.004C231.014 240.247 233.446 248.45 238.52 254.983C243.594 261.517 250.939 265.904 259.098 267.274C267.256 268.645 275.631 266.897 282.561 262.379C289.491 257.862 294.469 250.904 296.507 242.886C298.546 234.869 297.495 226.378 293.564 219.099C289.634 211.82 283.11 206.285 275.288 203.592C271.849 202.404 268.236 201.797 264.598 201.797Z" fill="#263238"/>
<path d="M334.101 249.961L334.774 264.323L346.994 271.912L334.101 249.961Z" fill="#263238"/>
<path d="M235.294 207.203L242.913 203.123L241.077 211.987C241.077 211.987 235.61 213.67 232.988 211.069L234.07 208.58C234.31 207.995 234.741 207.51 235.294 207.203Z" fill="#FFB573"/>
<path d="M231.948 175.216C231.336 175.981 230.622 176.919 229.908 177.796C229.194 178.674 228.582 179.612 227.95 180.54C226.685 182.386 225.42 184.243 224.288 186.16C222.002 189.878 220.131 193.836 218.708 197.962L218.28 199.308C218.224 199.483 218.189 199.665 218.178 199.849C218.176 200.221 218.306 200.583 218.545 200.869C219.737 202.158 221.21 203.156 222.85 203.786C224.852 204.655 226.918 205.368 229.031 205.918C231.183 206.52 233.468 207.009 235.651 207.427L235.426 211.926C230.387 212.19 225.338 211.643 220.473 210.304C219.15 209.908 217.864 209.399 216.628 208.784C215.189 208.084 213.884 207.138 212.772 205.989C211.381 204.552 210.475 202.715 210.181 200.736C210.032 199.749 210.032 198.745 210.181 197.758C210.181 197.544 210.263 197.258 210.304 197.095L210.416 196.626L210.65 195.667C210.936 194.382 211.354 193.178 211.732 191.944C212.109 190.71 212.599 189.526 213.109 188.374C214.085 186.057 215.195 183.799 216.434 181.611C217.658 179.439 218.943 177.327 220.351 175.287C221.054 174.267 221.779 173.247 222.523 172.227C223.268 171.207 224.012 170.289 224.91 169.239L231.948 175.216Z" fill="#FFB573"/>
<path d="M232.315 159.059C221.86 161.242 217.066 173.89 217.066 173.89L229.5 185.559C229.5 185.559 235.141 183.162 235.926 178.306C236.722 173.247 235.222 158.447 232.315 159.059Z" fill="#263238"/>
<path d="M250.288 204.326L248.35 211.66L241.077 211.946L242.913 203.082L250.288 204.326Z" fill="#FFB573"/>
</svg>
