<svg width="414" height="414" viewBox="0 0 414 414" fill="none" xmlns="http://www.w3.org/2000/svg">
<path d="M207 354.02C295.664 354.02 367.541 349.823 367.541 344.647C367.541 339.47 295.664 335.274 207 335.274C118.336 335.274 46.459 339.47 46.459 344.647C46.459 349.823 118.336 354.02 207 354.02Z" fill="#F5F5F5"/>
<path d="M318.491 317C318.491 316.677 317.406 285.039 312.264 280.038C307.296 275.186 301.5 279.856 301.285 280.038L300.755 279.4C300.821 279.342 307.313 274.043 312.835 279.4C318.217 284.633 319.269 315.617 319.319 316.934L318.491 317Z" fill="#B6DD77"/>
<path d="M318.929 323.218C318.929 322.837 315.41 285.221 329.147 269.456L329.776 270.003C316.271 285.503 319.716 322.763 319.757 323.135L318.929 323.218Z" fill="#B6DD77"/>
<path d="M318.441 319.235L317.613 319.186C317.613 318.755 320.296 276.428 310.228 267.171L310.791 266.558C321.157 276.088 318.557 317.48 318.441 319.235Z" fill="#B6DD77"/>
<path d="M319.758 319.211H318.93C318.93 318.043 319.261 290.611 327.061 286.14C327.802 285.66 328.648 285.366 329.527 285.281C330.405 285.196 331.292 285.323 332.111 285.652C336.823 287.598 339.158 295.985 339.257 296.341L338.429 296.565C338.429 296.482 336.102 288.21 331.755 286.413C331.051 286.138 330.292 286.035 329.54 286.113C328.788 286.191 328.066 286.447 327.433 286.861C320.081 291.092 319.758 318.937 319.758 319.211Z" fill="#B6DD77"/>
<path d="M316.719 319.235L315.891 319.186C315.891 318.97 317.067 297.517 311.271 289.957C309.871 288.136 308.339 287.266 306.75 287.374C302.957 287.639 299.778 293.17 299.753 293.244L299.024 292.83C299.165 292.59 302.452 286.844 306.692 286.546C308.596 286.422 310.351 287.374 311.933 289.461C317.952 297.252 316.777 318.341 316.719 319.235Z" fill="#B6DD77"/>
<path d="M317.953 322.15C317.795 320.072 314.169 271.071 320.552 262.435L321.215 262.923C315.013 271.319 318.731 321.587 318.781 322.092L317.953 322.15Z" fill="#B6DD77"/>
<path d="M333.841 290.628C333.841 290.628 330.008 292.044 331.15 295.381C332.293 298.718 344.398 304.199 344.398 304.199C344.398 304.199 349.466 299.546 344.812 291.986C340.159 284.426 333.941 288.235 333.841 290.628Z" fill="#B6DD77"/>
<path opacity="0.2" d="M333.841 290.628C333.841 290.628 330.008 292.044 331.15 295.381C332.293 298.718 344.398 304.199 344.398 304.199C344.398 304.199 349.466 299.546 344.812 291.986C340.159 284.426 333.941 288.235 333.841 290.628Z" fill="white"/>
<path d="M317.19 284.277C317.19 284.277 321.272 284.112 321.504 287.589C321.736 291.067 312.669 300.837 312.669 300.837C312.669 300.837 306.194 298.494 307.585 289.725C308.977 280.957 316.18 282.116 317.19 284.277Z" fill="#B6DD77"/>
<path opacity="0.2" d="M317.19 284.277C317.19 284.277 321.272 284.112 321.504 287.589C321.736 291.067 312.669 300.837 312.669 300.837C312.669 300.837 306.194 298.494 307.585 289.725C308.977 280.957 316.18 282.116 317.19 284.277Z" fill="white"/>
<path d="M313.738 267.444C313.738 267.444 316.454 267.154 316.222 265.498C315.99 263.842 305.657 259.578 299.546 266.475C299.546 266.475 303.454 273.19 309.109 273.281C314.765 273.372 313.738 267.444 313.738 267.444Z" fill="#B6DD77"/>
<path opacity="0.2" d="M313.738 267.444C313.738 267.444 316.454 267.154 316.222 265.498C315.99 263.842 305.657 259.578 299.546 266.475C299.546 266.475 303.454 273.19 309.109 273.281C314.765 273.372 313.738 267.444 313.738 267.444Z" fill="white"/>
<path d="M318.78 263.436C318.78 263.436 316.296 264.629 315.626 263.105C314.955 261.582 321.471 252.49 330.298 255.115C330.298 255.115 330.53 262.882 325.777 265.945C321.024 269.009 318.78 263.436 318.78 263.436Z" fill="#B6DD77"/>
<path opacity="0.2" d="M318.78 263.436C318.78 263.436 316.296 264.629 315.626 263.105C314.955 261.582 321.471 252.49 330.298 255.115C330.298 255.115 330.53 262.882 325.777 265.945C321.024 269.009 318.78 263.436 318.78 263.436Z" fill="white"/>
<path d="M305.93 289.287C305.93 289.287 307.809 287.771 305.781 287.026C303.752 286.281 293.824 286.496 293.717 296.341C293.717 296.341 305.309 298.262 306.725 294.52C308.141 290.777 305.93 289.287 305.93 289.287Z" fill="#B6DD77"/>
<path opacity="0.2" d="M305.93 289.287C305.93 289.287 307.809 287.771 305.781 287.026C303.752 286.281 293.824 286.496 293.717 296.341C293.717 296.341 305.309 298.262 306.725 294.52C308.141 290.777 305.93 289.287 305.93 289.287Z" fill="white"/>
<path d="M329.544 267.212C329.544 267.212 327.673 265.697 329.693 264.952C331.713 264.207 341.658 264.422 341.757 274.267C341.757 274.267 330.165 276.188 328.757 272.445C327.35 268.703 329.544 267.212 329.544 267.212Z" fill="#B6DD77"/>
<path opacity="0.2" d="M329.544 267.212C329.544 267.212 327.673 265.697 329.693 264.952C331.713 264.207 341.658 264.422 341.757 274.267C341.757 274.267 330.165 276.188 328.757 272.445C327.35 268.703 329.544 267.212 329.544 267.212Z" fill="white"/>
<path d="M323.408 275.136C323.408 275.136 323.251 273.298 324.733 274.018C326.215 274.739 331.399 280.328 326.033 285.61C326.033 285.61 318.805 280.261 320.105 277.471C321.405 274.681 323.408 275.136 323.408 275.136Z" fill="#B6DD77"/>
<path opacity="0.2" d="M323.408 275.136C323.408 275.136 323.251 273.298 324.733 274.018C326.215 274.739 331.399 280.328 326.033 285.61C326.033 285.61 318.805 280.261 320.105 277.471C321.405 274.681 323.408 275.136 323.408 275.136Z" fill="white"/>
<path d="M304.258 277.761C304.258 277.761 305.375 276.295 303.736 276.105C302.097 275.914 294.727 277.885 296.441 285.213C296.441 285.213 305.417 284.534 305.798 281.479C306.179 278.423 304.258 277.761 304.258 277.761Z" fill="#B6DD77"/>
<path opacity="0.2" d="M304.258 277.761C304.258 277.761 305.375 276.295 303.736 276.105C302.097 275.914 294.727 277.885 296.441 285.213C296.441 285.213 305.417 284.534 305.798 281.479C306.179 278.423 304.258 277.761 304.258 277.761Z" fill="white"/>
<path d="M334.554 346.493H303.785L300.465 312.802H337.874L334.554 346.493Z" fill="#263238"/>
<path d="M339.514 309.084H298.817V316.52H339.514V309.084Z" fill="#263238"/>
<path opacity="0.2" d="M339.514 309.084H298.817V316.52H339.514V309.084Z" fill="white"/>
<path d="M255.91 212.713C255.91 213.326 255.91 213.947 255.91 214.584C255.638 220.75 254.648 226.864 252.962 232.8C251.985 236.51 250.809 240.252 249.551 243.863C249.195 244.889 248.83 245.908 248.458 246.91C248.358 247.191 248.259 247.473 248.151 247.738C244.58 257.314 240.433 266.665 235.731 275.741C229.753 304.919 215.081 338.669 215.081 338.669L210.171 336.996L226.044 264.529L230.093 246.694L230.962 242.852L232.502 236.055L234.017 229.431L236.857 216.886L248.259 214.402L255.91 212.713Z" fill="#E4897B"/>
<path opacity="0.2" d="M255.902 214.584C255.629 220.75 254.64 226.864 252.954 232.8C251.977 236.51 250.801 240.252 249.542 243.863C249.186 244.889 248.822 245.908 248.45 246.91C242.521 247.829 234.804 247.216 230.093 246.661L230.962 242.819L232.502 236.021L234.017 229.397L236.858 216.853L248.259 214.369L255.902 214.584Z" fill="black"/>
<path d="M273.389 236.568C273.099 239.524 272.726 242.472 272.304 245.336C272.114 246.645 271.915 247.936 271.7 249.203C270.244 258.004 268.323 266.721 265.945 275.318C266.16 305.126 258.832 341.202 258.832 341.202L253.724 340.532L254.162 266.318L254.378 250.586L254.469 244.094L254.51 241.155L254.833 217.433L272.61 209.434C274.424 217.176 274.341 226.947 273.389 236.568Z" fill="#E4897B"/>
<path opacity="0.2" d="M273.389 236.568C273.099 239.524 272.726 242.472 272.304 245.336C272.114 246.645 271.915 247.936 271.7 249.203C266.318 250.685 258.725 250.718 254.378 250.586L254.469 244.094L254.51 241.155L273.389 236.568Z" fill="black"/>
<path d="M214.973 178.268L207.886 175.188C207.703 173.532 200.641 172.762 199.804 173.06C198.968 173.358 197.32 178.028 197.494 179.163C197.668 180.297 204.946 179.295 205.691 179.163C206.437 179.03 207.124 178.823 207.124 178.823L213.21 182.135L214.973 178.268Z" fill="#E4897B"/>
<path d="M236.137 170.278C236.137 170.278 235.938 171.23 235.557 172.679C234.729 175.851 232.924 181.415 230.167 184.445C229.429 185.324 228.472 185.993 227.393 186.383C221.497 188.213 210.179 181.415 210.179 181.415L212.199 176.008C212.199 176.008 222.425 181.473 225.05 179.32C227.674 177.167 229.703 162.917 233.454 161.385L236.137 170.278Z" fill="#B6DD77"/>
<path opacity="0.2" d="M235.558 172.679C234.73 175.851 232.925 181.415 230.167 184.445C228.122 175.238 233.968 167.786 233.968 167.786L235.558 172.679Z" fill="black"/>
<path d="M217.093 337.054C217.093 336.4 209.119 336.913 209.119 336.913C209.119 336.913 204.226 341.881 199.473 343.007C194.72 344.133 197.37 346.982 202.686 346.982H215.834C219.61 346.982 217.25 343.761 217.093 337.054Z" fill="#263238"/>
<path d="M204.938 338.95C204.688 338.968 204.44 338.901 204.234 338.76C204.124 338.656 204.046 338.522 204.013 338.375C203.979 338.227 203.989 338.073 204.043 337.932C204.074 337.818 204.127 337.712 204.199 337.619C204.272 337.527 204.363 337.45 204.466 337.393C205.03 337.165 205.646 337.099 206.246 337.203C205.6 336.855 205.037 336.433 205.012 336.019C205.012 335.743 205.186 335.519 205.534 335.348C205.695 335.275 205.87 335.236 206.047 335.236C206.224 335.236 206.4 335.275 206.561 335.348C207.637 335.795 208.308 337.642 208.341 337.733C208.345 337.763 208.345 337.794 208.341 337.824C208.345 337.846 208.345 337.868 208.341 337.89C208.344 337.909 208.344 337.929 208.341 337.948L208.275 337.998C207.226 338.507 206.097 338.829 204.938 338.95ZM205.608 337.559C205.287 337.541 204.966 337.601 204.673 337.733C204.617 337.761 204.569 337.801 204.53 337.849C204.492 337.898 204.464 337.954 204.449 338.014C204.366 338.321 204.449 338.404 204.499 338.428C204.871 338.743 206.329 338.304 207.505 337.807C206.883 337.66 206.247 337.576 205.608 337.559ZM206.08 335.613C205.954 335.615 205.829 335.646 205.716 335.704C205.608 335.754 205.426 335.853 205.426 335.969C205.426 336.325 206.585 336.946 207.769 337.393C207.508 336.691 207.03 336.091 206.403 335.679C206.301 335.638 206.191 335.615 206.08 335.613Z" fill="#B6DD77"/>
<path d="M260.646 337.054C260.646 336.4 252.672 336.913 252.672 336.913C252.672 336.913 247.779 341.881 243.026 343.007C238.273 344.133 240.923 346.982 246.239 346.982H259.387C263.163 346.982 260.82 343.761 260.646 337.054Z" fill="#263238"/>
<path d="M248.49 338.95C248.241 338.966 247.994 338.899 247.787 338.76C247.676 338.656 247.599 338.522 247.565 338.375C247.531 338.227 247.542 338.073 247.596 337.932C247.627 337.818 247.68 337.712 247.752 337.619C247.825 337.527 247.915 337.45 248.019 337.393C248.583 337.165 249.199 337.099 249.799 337.203C249.153 336.855 248.59 336.433 248.565 336.019C248.565 335.743 248.739 335.519 249.087 335.348C249.248 335.275 249.423 335.236 249.6 335.236C249.777 335.236 249.952 335.275 250.113 335.348C251.19 335.795 251.86 337.642 251.894 337.733C251.898 337.763 251.898 337.794 251.894 337.824C251.897 337.846 251.897 337.868 251.894 337.89C251.896 337.909 251.896 337.929 251.894 337.948L251.827 337.998C250.779 338.507 249.65 338.829 248.49 338.95ZM249.161 337.559C248.84 337.541 248.519 337.601 248.226 337.733C248.17 337.761 248.122 337.801 248.083 337.849C248.044 337.898 248.017 337.954 248.002 338.014C247.919 338.321 248.002 338.404 248.052 338.428C248.424 338.743 249.881 338.304 251.057 337.807C250.435 337.66 249.8 337.576 249.161 337.559ZM249.633 335.613C249.506 335.615 249.382 335.646 249.269 335.704C249.161 335.754 248.979 335.853 248.979 335.969C248.979 336.325 250.138 336.946 251.322 337.393C251.061 336.691 250.582 336.091 249.956 335.679C249.853 335.638 249.744 335.615 249.633 335.613Z" fill="#B6DD77"/>
<path d="M246.983 139.104C246.983 139.104 249.467 132.844 255.263 134.964C265.448 138.64 262.351 166.594 262.351 166.594L252.158 167.753C252.158 167.753 254.899 145.91 253.26 142.871C251.62 139.833 249.443 143.236 249.443 143.236L246.983 139.104Z" fill="#263238"/>
<path d="M277.513 246.438C277.513 246.438 264.869 249.476 252.399 245.982L251.952 239.433L250.056 245.038C237.421 246.438 229.224 240.998 229.224 240.998C231.384 228.771 234.917 216.828 239.756 205.394L242.712 191.45L269.787 193.545C275.674 204.781 277.471 223.742 277.513 246.438Z" fill="#263238"/>
<path d="M242.049 198.546L270.648 206.172C269.82 202.736 268.587 198.438 267.038 193.702L267.51 164.954C267.51 164.954 249.054 154.405 234.308 162.056C234.308 162.056 233.753 177.556 234.929 183.005C235.848 187.219 241.047 194.348 242.049 198.546Z" fill="#B6DD77"/>
<path opacity="0.6" d="M242.049 198.546L270.648 206.172C269.82 202.736 268.587 198.438 267.038 193.702L267.51 164.954C267.51 164.954 249.054 154.405 234.308 162.056C234.308 162.056 233.753 177.556 234.929 183.005C235.848 187.219 241.047 194.348 242.049 198.546Z" fill="white"/>
<path d="M244.616 170.369C242.463 169.11 240.672 167.316 239.416 165.161C238.025 162.735 237.851 160.533 238.803 160.028C240.459 159.15 247.241 154.232 247.241 154.232C247.369 154.754 247.57 155.255 247.837 155.722C248.731 157.337 250.892 159.862 255.935 161.228C263.718 163.331 250.321 173.748 244.616 170.369Z" fill="#E4897B"/>
<path opacity="0.2" d="M243.912 164.772C243.865 165.923 244.197 167.057 244.856 168.001C242.929 167.298 241.1 166.349 239.416 165.178C238.025 162.752 237.851 160.549 238.803 160.044C240.459 159.166 247.241 154.248 247.241 154.248C247.369 154.77 247.57 155.272 247.837 155.739C248.259 158.976 246.744 162.238 243.912 164.772Z" fill="black"/>
<path d="M275.293 207.257C275.293 207.257 260.936 210.329 255.893 204.913C252.641 201.489 249.983 197.546 248.027 193.247C247.804 192.75 247.605 192.262 247.423 191.79C244.939 185.53 245.32 181.183 245.32 181.183L246.197 180.587C258.7 171.702 261.151 161.377 261.151 161.377L267.51 164.954L272.478 194.232C273.17 198.623 274.11 202.972 275.293 207.257Z" fill="#B6DD77"/>
<path d="M247.207 193.752C244.872 201.75 240.426 200.285 240.426 200.285C240.426 200.285 240.012 198.803 239.35 196.84C238.612 194.57 237.678 192.367 236.559 190.258C232.013 182.276 233.454 161.385 233.454 161.385L236.038 160.557C236.038 160.557 235.897 173.127 246.197 180.587C247.313 184.212 247.729 188.017 247.423 191.798C247.418 192.455 247.345 193.11 247.207 193.752Z" fill="#B6DD77"/>
<path d="M246.62 182.541C246.609 182.654 246.566 182.761 246.494 182.848C246.423 182.936 246.327 183.001 246.219 183.034C246.111 183.068 245.996 183.068 245.887 183.036C245.779 183.004 245.683 182.94 245.61 182.853C245.538 182.765 245.494 182.659 245.482 182.546C245.471 182.434 245.493 182.32 245.546 182.22C245.599 182.12 245.681 182.039 245.781 181.985C245.88 181.932 245.994 181.909 246.106 181.92C246.257 181.935 246.395 182.008 246.491 182.124C246.587 182.241 246.634 182.391 246.62 182.541Z" fill="#263238"/>
<path d="M247.712 189.256C247.706 189.331 247.685 189.404 247.65 189.47C247.615 189.537 247.567 189.596 247.51 189.643C247.452 189.691 247.385 189.727 247.313 189.749C247.241 189.77 247.166 189.777 247.091 189.769C247.013 189.766 246.936 189.747 246.866 189.714C246.795 189.68 246.733 189.632 246.681 189.573C246.63 189.514 246.591 189.446 246.568 189.371C246.544 189.297 246.536 189.218 246.544 189.14C246.552 189.063 246.576 188.987 246.614 188.919C246.652 188.851 246.704 188.791 246.766 188.744C246.828 188.697 246.899 188.663 246.975 188.644C247.051 188.625 247.13 188.622 247.207 188.635C247.281 188.642 247.353 188.664 247.418 188.699C247.484 188.734 247.542 188.782 247.589 188.84C247.636 188.898 247.671 188.964 247.692 189.036C247.713 189.107 247.72 189.182 247.712 189.256Z" fill="#263238"/>
<path opacity="0.2" d="M255.893 204.913C252.641 201.489 249.983 197.546 248.027 193.247C252.465 190.374 259.354 181.133 263.014 171.52L267.808 181.142C267.808 181.142 268.727 196.443 255.893 204.913Z" fill="black"/>
<path opacity="0.2" d="M247.207 193.752C244.872 201.75 240.426 200.285 240.426 200.285C240.426 200.285 240.012 198.803 239.35 196.84C242.128 196.274 244.787 195.229 247.207 193.752Z" fill="black"/>
<path d="M230.101 145.066C230.101 145.066 228.991 134.848 244.823 136.786C246.765 137.457 248.488 138.644 249.808 140.219C251.128 141.794 251.995 143.698 252.316 145.728C253.5 152.841 253.864 157.817 247.994 157.916C242.123 158.016 230.101 145.066 230.101 145.066Z" fill="#263238"/>
<path d="M237.453 141.364C231.069 142.913 229.844 146.821 230.978 153.511C232.386 161.866 235.623 167.264 243.175 163.571C253.425 158.562 248.043 138.798 237.453 141.364Z" fill="#E4897B"/>
<path d="M235.011 152.153C234.731 153.231 234.323 154.27 233.794 155.25C234.046 155.469 234.353 155.614 234.681 155.669C235.01 155.725 235.347 155.688 235.657 155.565L235.011 152.153Z" fill="#DE5753"/>
<path d="M238.787 150.696C238.902 151.218 239.283 151.582 239.615 151.524C239.946 151.466 240.161 150.961 240.045 150.431C239.929 149.901 239.548 149.537 239.217 149.603C238.886 149.669 238.671 150.158 238.787 150.696Z" fill="#263238"/>
<path d="M239.366 149.586L238.124 149.388C238.124 149.388 238.902 150.224 239.366 149.586Z" fill="#263238"/>
<path d="M232.212 152.004C232.328 152.534 232.709 152.898 233.04 152.832C233.372 152.766 233.587 152.269 233.471 151.739C233.355 151.209 232.974 150.853 232.643 150.911C232.312 150.969 232.096 151.474 232.212 152.004Z" fill="#263238"/>
<path d="M232.792 150.903L231.55 150.704C231.55 150.704 232.328 151.524 232.792 150.903Z" fill="#263238"/>
<path d="M240.783 146.854C240.719 146.852 240.657 146.829 240.609 146.788C240.204 146.545 239.749 146.396 239.279 146.353C238.809 146.31 238.335 146.374 237.893 146.539C237.856 146.554 237.818 146.561 237.778 146.56C237.739 146.559 237.701 146.55 237.665 146.534C237.63 146.518 237.598 146.494 237.571 146.465C237.545 146.436 237.525 146.402 237.512 146.366C237.485 146.294 237.487 146.215 237.518 146.145C237.549 146.075 237.606 146.021 237.678 145.993C238.217 145.785 238.798 145.707 239.373 145.764C239.948 145.822 240.502 146.014 240.99 146.324C241.037 146.363 241.072 146.415 241.089 146.474C241.106 146.532 241.104 146.595 241.084 146.653C241.064 146.711 241.027 146.761 240.977 146.797C240.928 146.833 240.869 146.853 240.807 146.854H240.783Z" fill="#263238"/>
<path d="M230.672 148.551C230.615 148.552 230.559 148.536 230.511 148.506C230.463 148.475 230.426 148.431 230.403 148.379C230.38 148.326 230.372 148.269 230.382 148.213C230.392 148.156 230.418 148.104 230.457 148.063C230.776 147.667 231.181 147.35 231.642 147.136C232.103 146.922 232.607 146.817 233.115 146.829C233.153 146.832 233.191 146.843 233.225 146.861C233.259 146.879 233.289 146.904 233.313 146.935C233.338 146.965 233.355 147 233.365 147.037C233.375 147.075 233.377 147.114 233.371 147.152C233.368 147.191 233.358 147.228 233.339 147.263C233.321 147.297 233.296 147.327 233.266 147.351C233.236 147.375 233.201 147.393 233.163 147.403C233.126 147.412 233.087 147.415 233.048 147.409C232.633 147.413 232.223 147.51 231.85 147.692C231.476 147.873 231.147 148.136 230.887 148.46C230.86 148.49 230.827 148.514 230.79 148.529C230.753 148.545 230.712 148.553 230.672 148.551Z" fill="#263238"/>
<path d="M247.034 150.423C247.034 150.423 242.778 145.902 242.248 141.754C242.248 141.754 228.354 139.65 230.847 152.634C230.847 152.634 226.847 141.538 237.744 138.624C248.64 135.709 252.499 151.764 247.994 157.916C247.994 157.916 249.667 153.255 247.034 150.423Z" fill="#263238"/>
<path d="M246.313 152.021C246.252 151.646 246.265 151.263 246.352 150.893C246.439 150.524 246.599 150.175 246.821 149.867C247.044 149.56 247.325 149.299 247.648 149.1C247.972 148.901 248.331 148.768 248.706 148.709C250.735 148.444 252.664 152.277 247.986 154.447C247.307 154.778 246.744 154.19 246.313 152.021Z" fill="#E4897B"/>
<path d="M242.14 136.471C242.14 136.471 227.352 136.363 227.832 149.893C229.133 149.016 230.548 148.323 232.038 147.831C232.423 146.254 233.1 144.763 234.033 143.434C233.36 144.729 232.915 146.129 232.717 147.574C233.996 147.186 235.311 146.928 236.642 146.804C236.616 145.515 236.764 144.229 237.081 142.979C237.103 144.24 237.231 145.498 237.461 146.738C238.888 146.668 240.318 146.754 241.726 146.995C241.103 145.721 240.649 144.371 240.376 142.979C240.745 144.507 241.471 145.926 242.496 147.119C242.959 147.213 243.431 147.329 243.912 147.467C243.912 147.467 241.262 143.434 243.166 140.379C245.071 137.324 242.14 136.471 242.14 136.471Z" fill="#263238"/>
<path d="M236.51 157.585C237.137 158.094 237.726 158.647 238.273 159.241L238.629 159.009C240.211 157.924 240.592 156.898 240.526 156.086C240.488 155.694 240.357 155.317 240.145 154.985C240.027 154.794 239.885 154.618 239.722 154.463C239.038 155.565 238.126 156.508 237.048 157.229C236.725 157.444 236.51 157.585 236.51 157.585Z" fill="#263238"/>
<path d="M237.048 157.204L237.578 157.676C239.068 156.649 239.979 155.73 240.145 154.96C240.027 154.769 239.885 154.593 239.722 154.439C239.038 155.54 238.126 156.483 237.048 157.204Z" fill="white"/>
<path d="M238.629 158.976C240.211 157.891 240.592 156.865 240.525 156.053C239.932 156.48 239.416 157.007 239.002 157.61C238.738 158.015 238.608 158.493 238.629 158.976Z" fill="#DE5753"/>
<path d="M218.261 190.589C218.08 190.598 217.902 190.549 217.752 190.447C217.603 190.345 217.49 190.197 217.433 190.026C217.391 189.902 212.978 177.664 206.818 176.174C204.88 175.702 202.984 176.364 201.022 178.202C200.858 178.357 200.64 178.44 200.415 178.434C200.19 178.428 199.976 178.333 199.821 178.169C199.666 178.005 199.583 177.787 199.589 177.562C199.595 177.337 199.691 177.123 199.854 176.968C202.231 174.733 204.706 173.905 207.215 174.484C214.262 176.198 218.807 188.883 219.031 189.388C219.071 189.494 219.089 189.606 219.085 189.719C219.08 189.831 219.053 189.942 219.004 190.043C218.955 190.145 218.886 190.235 218.801 190.309C218.716 190.383 218.617 190.439 218.509 190.473C218.436 190.529 218.351 190.568 218.261 190.589Z" fill="#263238"/>
<g opacity="0.4">
<path d="M218.261 190.589C218.08 190.598 217.902 190.549 217.752 190.447C217.603 190.345 217.49 190.197 217.433 190.026C217.391 189.902 212.978 177.664 206.818 176.174C204.88 175.702 202.984 176.364 201.022 178.202C200.858 178.357 200.64 178.44 200.415 178.434C200.19 178.428 199.976 178.333 199.821 178.169C199.666 178.005 199.583 177.787 199.589 177.562C199.595 177.337 199.691 177.123 199.854 176.968C202.231 174.733 204.706 173.905 207.215 174.484C214.262 176.198 218.807 188.883 219.031 189.388C219.071 189.494 219.089 189.606 219.085 189.719C219.08 189.831 219.053 189.942 219.004 190.043C218.955 190.145 218.886 190.235 218.801 190.309C218.716 190.383 218.617 190.439 218.509 190.473C218.436 190.529 218.351 190.568 218.261 190.589Z" fill="white"/>
</g>
<path d="M199.084 199.382L214.684 219.768C214.684 219.768 225.373 218.161 230.863 208.085L218.12 187.542C214.196 187.711 210.382 188.889 207.048 190.964C203.713 193.038 200.97 195.938 199.084 199.382Z" fill="#263238"/>
<path opacity="0.6" d="M230.863 208.076C225.365 218.153 214.684 219.776 214.684 219.776L199.076 199.382C200.962 195.947 203.698 193.054 207.022 190.979C210.346 188.904 214.148 187.718 218.062 187.534H218.112L230.863 208.076Z" fill="white"/>
<path opacity="0.6" d="M218.112 187.542C218.112 187.542 216.133 191.434 209.302 195.905C202.471 200.376 199.076 199.382 199.076 199.382C200.962 195.947 203.698 193.054 207.022 190.979C210.346 188.904 214.148 187.718 218.062 187.534L218.112 187.542Z" fill="white"/>
<path d="M210.684 209.641C210.684 209.641 201.651 208.424 198.943 208.432C196.236 208.441 194.48 213.4 194.48 213.4L196.898 214.295C196.898 214.295 199.026 211.239 200.583 211.612C202.139 211.985 212.796 216.249 212.796 216.249C212.796 216.249 214.493 211.14 210.684 209.641Z" fill="#263238"/>
<path opacity="0.4" d="M210.684 209.641C210.684 209.641 201.651 208.424 198.943 208.432C196.236 208.441 194.48 213.4 194.48 213.4L196.898 214.295C196.898 214.295 199.026 211.239 200.583 211.612C202.139 211.985 212.796 216.249 212.796 216.249C212.796 216.249 214.493 211.14 210.684 209.641Z" fill="white"/>
<path d="M189.562 214.27C189.562 214.27 192.584 211.902 195.937 212.688C199.291 213.475 200.334 217.805 200.334 217.805C200.334 217.805 194.182 221.482 189.562 214.27Z" fill="#263238"/>
<path opacity="0.6" d="M200.375 217.805C200.375 217.805 194.207 221.482 189.611 214.278C189.611 214.278 192.625 211.91 195.979 212.688C199.332 213.467 200.375 217.805 200.375 217.805Z" fill="white"/>
<path opacity="0.2" d="M200.375 217.805C200.375 217.805 194.207 221.482 189.611 214.278C189.611 214.278 195.614 211.836 200.375 217.805Z" fill="black"/>
<path d="M201.535 201.378C201.404 201.381 201.273 201.355 201.153 201.302C201.033 201.249 200.926 201.171 200.84 201.072C200.724 200.931 189.248 186.888 199.846 176.968C200.01 176.814 200.228 176.73 200.453 176.736C200.678 176.743 200.892 176.838 201.047 177.002C201.201 177.165 201.285 177.384 201.279 177.609C201.272 177.834 201.177 178.047 201.013 178.202C191.607 187.037 201.717 199.457 202.156 199.979C202.234 200.065 202.293 200.166 202.33 200.276C202.366 200.387 202.379 200.503 202.367 200.619C202.355 200.735 202.32 200.846 202.262 200.947C202.204 201.048 202.126 201.135 202.032 201.204C201.89 201.314 201.715 201.376 201.535 201.378Z" fill="#263238"/>
<g opacity="0.4">
<path d="M201.535 201.378C201.404 201.381 201.273 201.355 201.153 201.302C201.033 201.249 200.926 201.171 200.84 201.072C200.724 200.931 189.248 186.888 199.846 176.968C200.01 176.814 200.228 176.73 200.453 176.736C200.678 176.743 200.892 176.838 201.047 177.002C201.201 177.165 201.285 177.384 201.279 177.609C201.272 177.834 201.177 178.047 201.013 178.202C191.607 187.037 201.717 199.457 202.156 199.979C202.234 200.065 202.293 200.166 202.33 200.276C202.366 200.387 202.379 200.503 202.367 200.619C202.355 200.735 202.32 200.846 202.262 200.947C202.204 201.048 202.126 201.135 202.032 201.204C201.89 201.314 201.715 201.376 201.535 201.378Z" fill="white"/>
</g>
<path d="M183.369 228.619C183.261 229.182 183.186 229.753 183.137 230.275C183.132 230.315 183.136 230.355 183.147 230.394C183.158 230.432 183.177 230.468 183.203 230.499C183.228 230.53 183.26 230.555 183.295 230.574C183.331 230.592 183.37 230.603 183.41 230.606C183.445 230.615 183.482 230.615 183.518 230.606C183.579 230.591 183.634 230.558 183.675 230.51C183.717 230.463 183.743 230.404 183.749 230.341C183.795 229.786 183.87 229.233 183.973 228.685C183.98 228.646 183.979 228.605 183.971 228.566C183.962 228.526 183.946 228.489 183.923 228.456C183.9 228.423 183.87 228.394 183.836 228.373C183.802 228.351 183.764 228.336 183.725 228.329C183.682 228.321 183.637 228.322 183.595 228.332C183.552 228.343 183.512 228.363 183.478 228.391C183.444 228.418 183.417 228.453 183.398 228.493C183.379 228.532 183.369 228.575 183.369 228.619Z" fill="#B6DD77"/>
<path d="M184.337 225.084C184.035 225.895 183.784 226.725 183.584 227.568C183.574 227.607 183.572 227.647 183.577 227.687C183.583 227.727 183.597 227.766 183.618 227.8C183.639 227.835 183.666 227.865 183.699 227.889C183.731 227.913 183.768 227.93 183.807 227.94C183.856 227.953 183.907 227.953 183.956 227.94C184.011 227.928 184.061 227.9 184.1 227.86C184.14 227.821 184.167 227.771 184.18 227.717C184.377 226.875 184.623 226.046 184.917 225.233C184.931 225.195 184.938 225.155 184.936 225.115C184.935 225.075 184.925 225.036 184.908 224.999C184.891 224.963 184.867 224.93 184.837 224.904C184.807 224.877 184.772 224.856 184.735 224.843C184.693 224.828 184.648 224.822 184.604 224.827C184.559 224.831 184.516 224.845 184.478 224.868C184.44 224.891 184.408 224.923 184.383 224.96C184.359 224.997 184.343 225.039 184.337 225.084Z" fill="#B6DD77"/>
<path d="M187.26 219.801C187.226 219.78 187.188 219.765 187.148 219.759C187.108 219.752 187.067 219.754 187.028 219.763C186.989 219.772 186.952 219.789 186.919 219.813C186.887 219.836 186.859 219.866 186.838 219.9C186.116 221.088 185.477 222.325 184.925 223.601C184.909 223.638 184.9 223.678 184.899 223.719C184.898 223.759 184.905 223.799 184.919 223.837C184.934 223.875 184.956 223.909 184.984 223.938C185.012 223.968 185.045 223.991 185.082 224.007C185.146 224.031 185.217 224.031 185.281 224.007C185.327 223.996 185.369 223.974 185.405 223.944C185.441 223.914 185.469 223.876 185.488 223.833C186.027 222.581 186.655 221.369 187.368 220.207C187.405 220.138 187.414 220.058 187.394 219.982C187.374 219.907 187.326 219.842 187.26 219.801Z" fill="#B6DD77"/>
<path d="M187.84 219.321C187.912 219.299 187.974 219.252 188.013 219.188C188.659 218.228 189.115 217.665 189.115 217.656C189.166 217.594 189.191 217.513 189.183 217.433C189.175 217.352 189.136 217.277 189.073 217.226C189.015 217.171 188.938 217.141 188.858 217.141C188.778 217.141 188.701 217.171 188.643 217.226C188.643 217.226 188.162 217.822 187.508 218.816C187.485 218.848 187.469 218.886 187.461 218.925C187.452 218.964 187.452 219.005 187.46 219.044C187.467 219.084 187.483 219.121 187.506 219.155C187.528 219.188 187.557 219.216 187.591 219.238C187.625 219.268 187.664 219.291 187.707 219.305C187.75 219.319 187.795 219.324 187.84 219.321Z" fill="#B6DD77"/>
<path d="M198.819 231.939C198.743 231.967 198.682 232.024 198.648 232.097C198.614 232.169 198.61 232.253 198.637 232.329C198.823 232.864 199.039 233.389 199.282 233.902C199.314 233.966 199.367 234.017 199.431 234.047C199.496 234.077 199.569 234.084 199.638 234.067H199.688C199.762 234.033 199.819 233.971 199.846 233.895C199.874 233.819 199.871 233.735 199.837 233.662C199.605 233.181 199.398 232.668 199.208 232.146C199.198 232.106 199.179 232.069 199.154 232.036C199.128 232.003 199.096 231.976 199.059 231.957C199.022 231.937 198.982 231.926 198.941 231.923C198.899 231.92 198.858 231.925 198.819 231.939Z" fill="#B6DD77"/>
<path d="M198.719 231.55C198.759 231.54 198.795 231.522 198.827 231.496C198.859 231.471 198.886 231.44 198.905 231.404C198.924 231.369 198.936 231.329 198.94 231.289C198.944 231.249 198.939 231.208 198.926 231.169C198.677 230.354 198.476 229.524 198.322 228.685C198.316 228.645 198.302 228.606 198.281 228.572C198.259 228.537 198.231 228.507 198.198 228.484C198.164 228.461 198.126 228.445 198.087 228.437C198.047 228.428 198.006 228.429 197.966 228.437C197.887 228.453 197.817 228.499 197.77 228.565C197.724 228.632 197.705 228.713 197.718 228.793C197.877 229.657 198.084 230.511 198.339 231.351C198.363 231.428 198.417 231.492 198.488 231.529C198.56 231.566 198.643 231.574 198.719 231.55Z" fill="#B6DD77"/>
<path d="M197.552 222.732C197.512 222.73 197.471 222.736 197.433 222.75C197.395 222.764 197.36 222.785 197.331 222.813C197.301 222.841 197.278 222.875 197.262 222.912C197.246 222.949 197.238 222.989 197.238 223.03C197.215 224.413 197.284 225.796 197.445 227.17C197.455 227.252 197.497 227.327 197.562 227.378C197.627 227.429 197.71 227.453 197.792 227.443H197.834C197.905 227.422 197.967 227.377 198.008 227.315C198.049 227.252 198.066 227.178 198.057 227.104C197.896 225.749 197.826 224.386 197.85 223.022C197.848 222.944 197.816 222.87 197.76 222.816C197.704 222.762 197.63 222.732 197.552 222.732Z" fill="#B6DD77"/>
<path d="M197.817 219.61C197.737 219.599 197.655 219.619 197.59 219.667C197.525 219.715 197.482 219.787 197.469 219.867C197.469 219.867 197.353 220.621 197.287 221.805C197.284 221.845 197.289 221.886 197.302 221.924C197.315 221.963 197.335 221.998 197.362 222.029C197.39 222.059 197.423 222.083 197.459 222.1C197.496 222.117 197.536 222.127 197.577 222.128C197.607 222.136 197.638 222.136 197.668 222.128C197.73 222.112 197.786 222.077 197.828 222.028C197.87 221.979 197.895 221.918 197.9 221.854C197.966 220.695 198.074 219.975 198.074 219.975C198.082 219.934 198.082 219.892 198.073 219.851C198.065 219.81 198.048 219.771 198.024 219.737C198 219.703 197.969 219.674 197.934 219.652C197.898 219.631 197.858 219.616 197.817 219.61Z" fill="#B6DD77"/>
<path d="M192.385 219.47C192.145 219.966 191.913 220.488 191.706 221.026C191.679 221.103 191.683 221.188 191.717 221.262C191.751 221.336 191.813 221.394 191.888 221.424C191.95 221.445 192.017 221.445 192.079 221.424C192.126 221.41 192.169 221.386 192.205 221.353C192.241 221.32 192.269 221.279 192.286 221.233C192.485 220.72 192.7 220.215 192.94 219.735C192.958 219.698 192.969 219.659 192.971 219.618C192.974 219.578 192.968 219.537 192.955 219.498C192.942 219.46 192.922 219.425 192.895 219.394C192.868 219.364 192.836 219.339 192.799 219.321C192.763 219.303 192.723 219.292 192.683 219.289C192.642 219.287 192.602 219.292 192.563 219.305C192.525 219.318 192.489 219.339 192.459 219.366C192.428 219.392 192.403 219.425 192.385 219.461V219.47Z" fill="#B6DD77"/>
<path d="M191.367 222.012C191.095 222.845 190.871 223.694 190.697 224.554C190.682 224.634 190.699 224.716 190.743 224.784C190.788 224.852 190.857 224.9 190.937 224.918C190.983 224.931 191.032 224.931 191.078 224.918C191.133 224.904 191.183 224.875 191.222 224.834C191.262 224.793 191.289 224.742 191.301 224.686C191.467 223.846 191.683 223.017 191.947 222.202C191.96 222.163 191.965 222.123 191.962 222.082C191.959 222.042 191.948 222.002 191.929 221.966C191.911 221.93 191.885 221.897 191.854 221.871C191.823 221.845 191.787 221.825 191.748 221.813C191.71 221.8 191.67 221.795 191.63 221.798C191.59 221.802 191.551 221.813 191.516 221.831C191.48 221.85 191.449 221.875 191.423 221.906C191.398 221.937 191.379 221.973 191.367 222.012Z" fill="#B6DD77"/>
<path d="M190.44 226.119C190.25 227.49 190.156 228.874 190.158 230.259C190.157 230.299 190.164 230.339 190.179 230.377C190.194 230.415 190.217 230.449 190.246 230.478C190.274 230.506 190.308 230.529 190.346 230.544C190.384 230.559 190.424 230.566 190.465 230.565H190.539C190.605 230.547 190.663 230.508 190.705 230.454C190.747 230.401 190.77 230.335 190.771 230.267C190.767 228.904 190.861 227.542 191.053 226.193C191.062 226.112 191.04 226.03 190.99 225.966C190.941 225.901 190.868 225.858 190.788 225.845C190.747 225.839 190.705 225.842 190.665 225.853C190.625 225.863 190.588 225.882 190.555 225.908C190.523 225.933 190.496 225.965 190.476 226.001C190.456 226.038 190.444 226.077 190.44 226.119Z" fill="#B6DD77"/>
<path d="M190.44 231.202C190.399 231.204 190.359 231.213 190.322 231.23C190.284 231.247 190.251 231.271 190.223 231.301C190.195 231.331 190.174 231.366 190.16 231.405C190.146 231.444 190.14 231.484 190.142 231.525C190.192 232.709 190.291 233.438 190.291 233.471C190.303 233.551 190.347 233.623 190.412 233.671C190.477 233.719 190.559 233.74 190.639 233.728C190.71 233.707 190.772 233.661 190.813 233.599C190.854 233.537 190.871 233.462 190.862 233.388C190.862 233.388 190.763 232.66 190.713 231.509C190.714 231.433 190.686 231.36 190.636 231.303C190.585 231.247 190.516 231.211 190.44 231.202Z" fill="#B6DD77"/>
<g opacity="0.6">
<path d="M183.369 228.619C183.261 229.182 183.186 229.753 183.137 230.275C183.132 230.315 183.136 230.355 183.147 230.394C183.158 230.432 183.177 230.468 183.203 230.499C183.228 230.53 183.26 230.555 183.295 230.574C183.331 230.592 183.37 230.603 183.41 230.606C183.445 230.615 183.482 230.615 183.518 230.606C183.579 230.591 183.634 230.558 183.675 230.51C183.717 230.463 183.743 230.404 183.749 230.341C183.795 229.786 183.87 229.233 183.973 228.685C183.98 228.646 183.979 228.605 183.971 228.566C183.962 228.526 183.946 228.489 183.923 228.456C183.9 228.423 183.87 228.394 183.836 228.373C183.802 228.351 183.764 228.336 183.725 228.329C183.682 228.321 183.637 228.322 183.595 228.332C183.552 228.343 183.512 228.363 183.478 228.391C183.444 228.418 183.417 228.453 183.398 228.493C183.379 228.532 183.369 228.575 183.369 228.619Z" fill="white"/>
<path d="M184.337 225.084C184.035 225.895 183.784 226.725 183.584 227.568C183.574 227.607 183.572 227.647 183.577 227.687C183.583 227.727 183.597 227.766 183.618 227.8C183.639 227.835 183.666 227.865 183.699 227.889C183.731 227.913 183.768 227.93 183.807 227.94C183.856 227.953 183.907 227.953 183.956 227.94C184.011 227.928 184.061 227.9 184.1 227.86C184.14 227.821 184.167 227.771 184.18 227.717C184.377 226.875 184.623 226.046 184.917 225.233C184.931 225.195 184.938 225.155 184.936 225.115C184.935 225.075 184.925 225.036 184.908 224.999C184.891 224.963 184.867 224.93 184.837 224.904C184.807 224.877 184.772 224.856 184.735 224.843C184.693 224.828 184.648 224.822 184.604 224.827C184.559 224.831 184.516 224.845 184.478 224.868C184.44 224.891 184.408 224.923 184.383 224.96C184.359 224.997 184.343 225.039 184.337 225.084Z" fill="white"/>
<path d="M187.26 219.801C187.226 219.78 187.188 219.765 187.148 219.759C187.108 219.752 187.067 219.754 187.028 219.763C186.989 219.772 186.952 219.789 186.919 219.813C186.887 219.836 186.859 219.866 186.838 219.9C186.116 221.088 185.477 222.325 184.925 223.601C184.909 223.638 184.9 223.678 184.899 223.719C184.898 223.759 184.905 223.799 184.919 223.837C184.934 223.875 184.956 223.909 184.984 223.938C185.012 223.968 185.045 223.991 185.082 224.007C185.146 224.031 185.217 224.031 185.281 224.007C185.327 223.996 185.369 223.974 185.405 223.944C185.441 223.914 185.469 223.876 185.488 223.833C186.027 222.581 186.655 221.369 187.368 220.207C187.405 220.138 187.414 220.058 187.394 219.982C187.374 219.907 187.326 219.842 187.26 219.801Z" fill="white"/>
<path d="M187.84 219.321C187.912 219.299 187.974 219.252 188.013 219.188C188.659 218.228 189.115 217.665 189.115 217.656C189.166 217.594 189.191 217.513 189.183 217.433C189.175 217.352 189.136 217.277 189.073 217.226C189.015 217.171 188.938 217.141 188.858 217.141C188.778 217.141 188.701 217.171 188.643 217.226C188.643 217.226 188.162 217.822 187.508 218.816C187.485 218.848 187.469 218.886 187.461 218.925C187.452 218.964 187.452 219.005 187.46 219.044C187.467 219.084 187.483 219.121 187.506 219.155C187.528 219.188 187.557 219.216 187.591 219.238C187.625 219.268 187.664 219.291 187.707 219.305C187.75 219.319 187.795 219.324 187.84 219.321Z" fill="white"/>
<path d="M198.819 231.939C198.743 231.967 198.682 232.024 198.648 232.097C198.614 232.169 198.61 232.253 198.637 232.329C198.823 232.864 199.039 233.389 199.282 233.902C199.314 233.966 199.367 234.017 199.431 234.047C199.496 234.077 199.569 234.084 199.638 234.067H199.688C199.762 234.033 199.819 233.971 199.846 233.895C199.874 233.819 199.871 233.735 199.837 233.662C199.605 233.181 199.398 232.668 199.208 232.146C199.198 232.106 199.179 232.069 199.154 232.036C199.128 232.003 199.096 231.976 199.059 231.957C199.022 231.937 198.982 231.926 198.941 231.923C198.899 231.92 198.858 231.925 198.819 231.939Z" fill="white"/>
<path d="M198.719 231.55C198.759 231.54 198.795 231.522 198.827 231.496C198.859 231.471 198.886 231.44 198.905 231.404C198.924 231.369 198.936 231.329 198.94 231.289C198.944 231.249 198.939 231.208 198.926 231.169C198.677 230.354 198.476 229.524 198.322 228.685C198.316 228.645 198.302 228.606 198.281 228.572C198.259 228.537 198.231 228.507 198.198 228.484C198.164 228.461 198.126 228.445 198.087 228.437C198.047 228.428 198.006 228.429 197.966 228.437C197.887 228.453 197.817 228.499 197.77 228.565C197.724 228.632 197.705 228.713 197.718 228.793C197.877 229.657 198.084 230.511 198.339 231.351C198.363 231.428 198.417 231.492 198.488 231.529C198.56 231.566 198.643 231.574 198.719 231.55Z" fill="white"/>
<path d="M197.552 222.732C197.512 222.73 197.471 222.736 197.433 222.75C197.395 222.764 197.36 222.785 197.331 222.813C197.301 222.841 197.278 222.875 197.262 222.912C197.246 222.949 197.238 222.99 197.238 223.03C197.215 224.413 197.284 225.796 197.445 227.17C197.455 227.252 197.497 227.327 197.562 227.378C197.627 227.429 197.71 227.453 197.792 227.443H197.834C197.905 227.422 197.967 227.377 198.008 227.315C198.049 227.252 198.066 227.178 198.057 227.104C197.896 225.749 197.826 224.386 197.85 223.022C197.848 222.944 197.816 222.87 197.76 222.816C197.704 222.762 197.63 222.732 197.552 222.732Z" fill="white"/>
<path d="M197.817 219.61C197.737 219.599 197.655 219.619 197.59 219.667C197.525 219.715 197.482 219.787 197.469 219.867C197.469 219.867 197.353 220.621 197.287 221.805C197.284 221.845 197.289 221.886 197.302 221.924C197.315 221.963 197.335 221.998 197.362 222.029C197.39 222.059 197.423 222.083 197.459 222.1C197.496 222.117 197.536 222.127 197.577 222.128C197.607 222.136 197.638 222.136 197.668 222.128C197.73 222.112 197.786 222.077 197.828 222.028C197.87 221.979 197.895 221.918 197.9 221.854C197.966 220.695 198.074 219.975 198.074 219.975C198.082 219.934 198.082 219.892 198.073 219.851C198.065 219.81 198.048 219.771 198.024 219.737C198 219.703 197.969 219.674 197.934 219.652C197.898 219.631 197.858 219.616 197.817 219.61Z" fill="white"/>
<path d="M192.385 219.47C192.145 219.966 191.913 220.488 191.706 221.026C191.679 221.103 191.683 221.188 191.717 221.262C191.751 221.336 191.813 221.394 191.888 221.424C191.95 221.445 192.017 221.445 192.079 221.424C192.126 221.41 192.169 221.386 192.205 221.353C192.241 221.32 192.269 221.279 192.286 221.233C192.485 220.72 192.7 220.215 192.94 219.735C192.958 219.698 192.969 219.659 192.971 219.618C192.974 219.578 192.968 219.537 192.955 219.498C192.942 219.46 192.922 219.425 192.895 219.394C192.868 219.364 192.836 219.339 192.799 219.321C192.763 219.303 192.723 219.292 192.683 219.289C192.642 219.287 192.602 219.292 192.563 219.305C192.525 219.318 192.489 219.339 192.459 219.366C192.428 219.392 192.403 219.425 192.385 219.461V219.47Z" fill="white"/>
<path d="M191.367 222.012C191.095 222.845 190.871 223.694 190.697 224.554C190.682 224.634 190.699 224.716 190.743 224.784C190.788 224.852 190.857 224.9 190.937 224.918C190.983 224.931 191.032 224.931 191.078 224.918C191.133 224.904 191.183 224.875 191.222 224.834C191.262 224.793 191.289 224.742 191.301 224.686C191.467 223.846 191.683 223.017 191.947 222.202C191.96 222.163 191.965 222.123 191.962 222.082C191.959 222.042 191.948 222.002 191.929 221.966C191.911 221.93 191.885 221.897 191.854 221.871C191.823 221.845 191.787 221.825 191.748 221.813C191.71 221.8 191.67 221.795 191.63 221.798C191.59 221.802 191.551 221.813 191.516 221.831C191.48 221.85 191.449 221.875 191.423 221.906C191.398 221.937 191.379 221.973 191.367 222.012Z" fill="white"/>
<path d="M190.44 226.119C190.25 227.49 190.156 228.874 190.158 230.259C190.157 230.299 190.164 230.339 190.179 230.377C190.194 230.415 190.217 230.449 190.246 230.478C190.274 230.506 190.308 230.529 190.346 230.544C190.384 230.559 190.424 230.566 190.465 230.565H190.539C190.605 230.547 190.663 230.508 190.705 230.454C190.747 230.401 190.77 230.335 190.771 230.267C190.767 228.904 190.861 227.542 191.053 226.193C191.062 226.112 191.04 226.03 190.99 225.966C190.941 225.901 190.868 225.858 190.788 225.845C190.747 225.839 190.705 225.842 190.665 225.853C190.625 225.863 190.588 225.882 190.555 225.908C190.523 225.933 190.496 225.965 190.476 226.001C190.456 226.038 190.444 226.077 190.44 226.119Z" fill="white"/>
<path d="M190.44 231.202C190.399 231.204 190.359 231.213 190.322 231.23C190.284 231.247 190.251 231.271 190.223 231.301C190.195 231.331 190.174 231.366 190.16 231.405C190.146 231.444 190.14 231.484 190.142 231.525C190.192 232.709 190.291 233.438 190.291 233.471C190.303 233.551 190.347 233.623 190.412 233.671C190.477 233.719 190.559 233.74 190.639 233.728C190.71 233.707 190.772 233.661 190.813 233.599C190.854 233.537 190.871 233.462 190.862 233.388C190.862 233.388 190.763 232.66 190.713 231.509C190.714 231.433 190.686 231.36 190.636 231.303C190.585 231.247 190.516 231.211 190.44 231.202Z" fill="white"/>
</g>
<path d="M240.12 199.449L233.015 202.504C231.682 201.502 226.276 206.114 225.92 206.934C225.563 207.753 227.824 212.175 228.784 212.796C229.745 213.417 233.968 207.48 234.39 206.81C234.812 206.139 235.127 205.534 235.127 205.534L241.709 203.382L240.12 199.449Z" fill="#E4897B"/>
<path d="M267.51 164.954C276.461 171.33 262.393 193.437 260.249 195.88C258.104 198.323 238.356 205.212 238.356 205.212L235.922 200.442C235.922 200.442 251.198 193.396 253.591 190.341C255.984 187.285 260.679 179.411 263.354 170.709C264.678 166.428 267.51 164.954 267.51 164.954Z" fill="#B6DD77"/>
<path d="M178.227 241.114C178.988 241.363 179.678 241.79 180.243 242.359C180.807 242.927 181.228 243.621 181.472 244.384C181.984 245.621 182.836 246.688 183.929 247.46C185.023 248.232 186.312 248.679 187.649 248.748C188.54 248.778 189.403 249.066 190.133 249.576L190.912 250.031C190.912 249.758 190.854 249.468 190.837 249.203C190.613 249.038 190.406 248.855 190.191 248.665L190.05 248.524C187.616 246.189 187.566 243.73 184.71 241.511C181.853 239.292 178.227 241.114 178.227 241.114Z" fill="#B6DD77"/>
<path d="M201.841 238.671C201.123 239.025 200.5 239.544 200.022 240.186C199.544 240.828 199.225 241.575 199.092 242.364C198.762 243.664 198.069 244.844 197.094 245.766C196.119 246.688 194.903 247.314 193.586 247.572C192.712 247.742 191.905 248.159 191.259 248.773L190.556 249.327C190.556 249.054 190.556 248.773 190.556 248.499C190.746 248.301 190.928 248.094 191.11 247.87L191.235 247.721C193.313 245.055 193.031 242.612 195.532 240.021C198.032 237.429 201.841 238.671 201.841 238.671Z" fill="#B6DD77"/>
<path d="M191.268 248.756C191.334 250.297 191.175 251.84 190.796 253.335C189.43 258.642 190.034 253.409 190.034 253.409C190.42 252.078 190.599 250.696 190.564 249.311C190.564 249.038 190.564 248.756 190.564 248.483C190.478 247.426 190.264 246.383 189.927 245.378C188.486 241.238 185.596 239.913 184.462 235.442C183.328 230.971 187.269 227.783 187.269 227.783C187.17 228.784 187.312 229.795 187.682 230.731C188.052 231.667 188.64 232.501 189.397 233.165C192.046 235.748 192.427 240.228 191.293 242.505C190.622 243.829 191.045 245.494 191.243 247.713C191.218 248.027 191.268 248.4 191.268 248.756Z" fill="#B6DD77"/>
<path d="M171.752 240.484C171.307 241.15 170.71 241.699 170.01 242.088C169.31 242.477 168.528 242.693 167.728 242.72C166.398 242.879 165.14 243.413 164.101 244.258C163.062 245.104 162.284 246.227 161.858 247.497C161.569 248.339 161.05 249.082 160.359 249.642C160.152 249.841 160.359 249.99 160.16 250.213C160.433 250.255 160.26 250.362 160.549 250.42C160.765 250.263 160.996 250.097 161.237 249.948L161.41 249.849C164.317 248.143 166.71 248.739 169.608 246.603C172.506 244.467 171.752 240.484 171.752 240.484Z" fill="#B6DD77"/>
<path d="M149.271 242.604C149.99 242.955 150.614 243.473 151.092 244.114C151.57 244.754 151.888 245.5 152.02 246.289C152.351 247.587 153.045 248.765 154.02 249.684C154.995 250.603 156.211 251.226 157.527 251.48C158.401 251.654 159.209 252.073 159.853 252.689L160.557 253.244C160.557 252.971 160.557 252.681 160.607 252.416C160.407 252.221 160.218 252.013 160.044 251.795L159.92 251.637C157.841 248.98 158.123 246.537 155.622 243.937C153.122 241.337 149.271 242.604 149.271 242.604Z" fill="#B6DD77"/>
<path d="M159.853 250.238C159.786 251.78 159.948 253.323 160.334 254.817C161.7 260.124 161.087 254.892 161.087 254.892C160.702 253.56 160.523 252.178 160.557 250.793C160.557 250.52 160.557 250.238 160.607 249.965C160.686 248.91 160.9 247.869 161.244 246.868C162.685 242.728 165.567 241.403 166.709 236.932C167.852 232.461 163.894 229.265 163.894 229.265C163.995 230.267 163.856 231.279 163.487 232.217C163.119 233.154 162.531 233.99 161.774 234.655C159.116 237.239 158.736 241.718 159.878 243.995C160.541 245.32 160.118 246.984 159.878 249.195C159.895 249.51 159.87 249.866 159.853 250.238Z" fill="#B6DD77"/>
<path d="M143.658 243.664C142.893 243.918 142.201 244.351 141.637 244.927C141.074 245.503 140.657 246.206 140.421 246.976C139.908 248.214 139.055 249.281 137.96 250.054C136.865 250.826 135.574 251.272 134.235 251.339C133.345 251.371 132.483 251.658 131.751 252.167L130.981 252.615C131.015 252.344 131.039 252.068 131.056 251.787C131.271 251.621 131.487 251.439 131.694 251.248L131.843 251.108C134.269 248.773 134.327 246.313 137.183 244.094C140.04 241.875 143.658 243.664 143.658 243.664Z" fill="#B6DD77"/>
<path d="M120.283 238.083C120.626 238.807 121.136 239.438 121.771 239.926C122.405 240.414 123.147 240.744 123.934 240.89C125.225 241.242 126.39 241.954 127.293 242.942C128.196 243.929 128.8 245.153 129.035 246.471C129.191 247.348 129.596 248.161 130.202 248.814L130.749 249.534C130.475 249.534 130.749 250.569 130.475 250.594C130.149 250.012 129.748 249.475 129.283 248.996L129.126 248.872C126.501 246.752 124.05 246.992 121.5 244.45C118.95 241.908 120.283 238.083 120.283 238.083Z" fill="#B6DD77"/>
<path d="M130.268 248.756C130.194 250.297 130.353 251.841 130.74 253.335C132.107 258.642 131.502 253.409 131.502 253.409C131.116 252.078 130.937 250.696 130.972 249.311C130.972 249.038 130.972 248.756 130.972 248.483C131.051 247.425 131.265 246.381 131.61 245.378C133.051 241.238 135.94 239.913 137.075 235.442C138.209 230.971 134.268 227.783 134.268 227.783C134.366 228.784 134.224 229.795 133.854 230.731C133.484 231.667 132.897 232.501 132.14 233.165C129.482 235.748 129.109 240.228 130.244 242.505C130.906 243.829 130.484 245.494 130.293 247.713C130.302 248.027 130.277 248.4 130.268 248.756Z" fill="#B6DD77"/>
<path d="M219.271 278.655V346.493H215.478V284.782H141.248V346.493H137.456V278.655H219.271Z" fill="#263238"/>
<path opacity="0.2" d="M219.271 278.655V346.493H215.478V284.782H141.248V346.493H137.456V278.655H219.271Z" fill="white"/>
<path d="M186.151 278.655V346.493H182.358V284.782H108.128V346.493H104.336V278.655H186.151Z" fill="#263238"/>
<path opacity="0.4" d="M186.151 278.655V346.493H182.358V284.782H108.128V346.493H104.336V278.655H186.151Z" fill="white"/>
<path d="M208.416 253.269L205.344 278.655H116.69L113.618 253.269H208.416Z" fill="#B6DD77"/>
<path opacity="0.4" d="M208.416 253.269L207.994 256.779L207.894 257.607L207.489 260.919L207.389 261.747L206.685 267.543L206.586 268.371L205.344 278.655H116.69L115.448 268.371L115.349 267.543L114.645 261.747L114.546 260.919L114.14 257.607L114.04 256.779L113.618 253.269H208.416Z" fill="white"/>
<g opacity="0.2">
<path d="M207.993 256.779L207.894 257.607H114.139L114.04 256.779H207.993Z" fill="white"/>
</g>
<g opacity="0.2">
<path d="M207.488 260.919L207.389 261.747H114.644L114.545 260.919H207.488Z" fill="white"/>
</g>
<g opacity="0.2">
<path d="M206.685 267.543L206.586 268.371H115.448L115.349 267.543H206.685Z" fill="white"/>
</g>
</svg>
