<svg width="332" height="239" viewBox="0 0 332 239" fill="none" xmlns="http://www.w3.org/2000/svg">
<rect y="62" width="332" height="53" rx="10" fill="#F2F2F2"/>
<circle cx="33" cy="88" r="16" fill="#1BA954"/>
<g clip-path="url(#clip0_576_115)">
<path fill-rule="evenodd" clip-rule="evenodd" d="M37.6893 83.1623C37.9499 82.7899 38.052 82.3293 37.973 81.8816C37.8941 81.434 37.6406 81.0361 37.2683 80.7753L36.9872 80.5785L33.4585 85.6185L29.9291 80.5785L29.648 80.7753C29.2758 81.0362 29.0224 81.4342 28.9436 81.8818C28.8648 82.3294 28.9669 82.79 29.2276 83.1623L32.2029 87.4117L30.9686 89.1739C30.2754 88.9521 29.5261 88.9824 28.8531 89.2596C28.1801 89.5368 27.6267 90.0429 27.2907 90.6886C26.9548 91.3343 26.8579 92.0779 27.0172 92.7882C27.1765 93.4984 27.5817 94.1294 28.1612 94.5698C28.7408 95.0101 29.4573 95.2314 30.1843 95.1946C30.9112 95.1578 31.6017 94.8651 32.1337 94.3685C32.6658 93.8718 33.0052 93.203 33.0918 92.4804C33.1785 91.7577 33.007 91.0276 32.6075 90.4192L33.4578 89.2055L34.3081 90.4178C33.9083 91.026 33.7363 91.7559 33.8226 92.4786C33.9088 93.2013 34.2478 93.8703 34.7795 94.3672C35.3112 94.8642 36.0015 95.1572 36.7284 95.1945C37.4553 95.2318 38.1719 95.011 38.7517 94.5711C39.3315 94.1311 39.7372 93.5004 39.897 92.7903C40.0567 92.0802 39.9604 91.3365 39.6249 90.6906C39.2895 90.0447 38.7365 89.5382 38.0637 89.2605C37.3909 88.9829 36.6417 88.952 35.9483 89.1733L34.714 87.4117L37.6893 83.1623ZM29 92.1143C29 91.9792 29.0266 91.8455 29.0782 91.7207C29.1299 91.5959 29.2057 91.4825 29.3012 91.387C29.3967 91.2915 29.5101 91.2157 29.6349 91.164C29.7597 91.1123 29.8934 91.0857 30.0285 91.0857C30.1636 91.0857 30.2973 91.1123 30.4221 91.164C30.5469 91.2157 30.6603 91.2915 30.7558 91.387C30.8513 91.4825 30.9271 91.5959 30.9788 91.7207C31.0305 91.8455 31.0571 91.9792 31.0571 92.1143C31.0571 92.3871 30.9487 92.6487 30.7558 92.8416C30.5629 93.0345 30.3013 93.1429 30.0285 93.1429C29.7557 93.1429 29.4941 93.0345 29.3012 92.8416C29.1083 92.6487 29 92.3871 29 92.1143ZM35.8571 92.1143C35.8571 91.8415 35.9655 91.5799 36.1584 91.387C36.3513 91.1941 36.6129 91.0857 36.8857 91.0857C37.1585 91.0857 37.4201 91.1941 37.613 91.387C37.8059 91.5799 37.9142 91.8415 37.9142 92.1143C37.9142 92.3871 37.8059 92.6487 37.613 92.8416C37.4201 93.0345 37.1585 93.1429 36.8857 93.1429C36.6129 93.1429 36.3513 93.0345 36.1584 92.8416C35.9655 92.6487 35.8571 92.3871 35.8571 92.1143Z" fill="white"/>
</g>
<rect y="187" width="332" height="52" rx="10" fill="#F2F2F2"/>
<circle cx="33" cy="213" r="16" fill="#1BA954"/>
<g clip-path="url(#clip1_576_115)">
<path fill-rule="evenodd" clip-rule="evenodd" d="M37.6893 208.162C37.9499 207.79 38.052 207.329 37.973 206.882C37.8941 206.434 37.6406 206.036 37.2683 205.775L36.9872 205.579L33.4585 210.619L29.9291 205.579L29.648 205.775C29.2758 206.036 29.0224 206.434 28.9436 206.882C28.8648 207.329 28.9669 207.79 29.2276 208.162L32.2029 212.412L30.9686 214.174C30.2754 213.952 29.5261 213.982 28.8531 214.26C28.1801 214.537 27.6267 215.043 27.2907 215.689C26.9548 216.334 26.8579 217.078 27.0172 217.788C27.1765 218.498 27.5817 219.129 28.1612 219.57C28.7408 220.01 29.4573 220.231 30.1843 220.195C30.9112 220.158 31.6017 219.865 32.1337 219.368C32.6658 218.872 33.0052 218.203 33.0918 217.48C33.1785 216.758 33.007 216.028 32.6075 215.419L33.4578 214.205L34.3081 215.418C33.9083 216.026 33.7363 216.756 33.8226 217.479C33.9088 218.201 34.2478 218.87 34.7795 219.367C35.3112 219.864 36.0015 220.157 36.7284 220.195C37.4553 220.232 38.1719 220.011 38.7517 219.571C39.3315 219.131 39.7372 218.5 39.897 217.79C40.0567 217.08 39.9604 216.337 39.6249 215.691C39.2895 215.045 38.7365 214.538 38.0637 214.261C37.3909 213.983 36.6417 213.952 35.9483 214.173L34.714 212.412L37.6893 208.162ZM29 217.114C29 216.979 29.0266 216.845 29.0782 216.721C29.1299 216.596 29.2057 216.482 29.3012 216.387C29.3967 216.291 29.5101 216.216 29.6349 216.164C29.7597 216.112 29.8934 216.086 30.0285 216.086C30.1636 216.086 30.2973 216.112 30.4221 216.164C30.5469 216.216 30.6603 216.291 30.7558 216.387C30.8513 216.482 30.9271 216.596 30.9788 216.721C31.0305 216.845 31.0571 216.979 31.0571 217.114C31.0571 217.387 30.9487 217.649 30.7558 217.842C30.5629 218.034 30.3013 218.143 30.0285 218.143C29.7557 218.143 29.4941 218.034 29.3012 217.842C29.1083 217.649 29 217.387 29 217.114ZM35.8571 217.114C35.8571 216.841 35.9655 216.58 36.1584 216.387C36.3513 216.194 36.6129 216.086 36.8857 216.086C37.1585 216.086 37.4201 216.194 37.613 216.387C37.8059 216.58 37.9142 216.841 37.9142 217.114C37.9142 217.387 37.8059 217.649 37.613 217.842C37.4201 218.034 37.1585 218.143 36.8857 218.143C36.6129 218.143 36.3513 218.034 36.1584 217.842C35.9655 217.649 35.8571 217.387 35.8571 217.114Z" fill="white"/>
</g>
<rect width="332" height="52" rx="10" fill="#F2F2F2"/>
<circle cx="33" cy="26" r="16" fill="#94B634"/>
<path d="M37.0741 30.0741H34.6297V31.7037H37.0741V34.1482H38.7038V31.7037H41.1482V30.0741H38.7038V27.6296H37.0741V30.0741ZM33.0001 30.8889C33.0001 28.1919 35.1919 26 37.889 26C38.5164 26 39.1112 26.1222 39.6571 26.3341C40.8467 22.6593 40.089 18.9111 40.089 18.9111C40.089 18.9111 38.9482 18.6667 37.2371 18.6667C32.7556 18.6667 24.526 20.3778 25.8297 33.1704C26.726 33.2519 27.6223 33.3334 28.4371 33.3334C30.3601 33.3334 31.9734 33.0808 33.3341 32.6408C33.1223 32.1111 33.0001 31.5082 33.0001 30.8889Z" fill="white"/>
<rect y="125" width="332" height="53" rx="10" fill="#F2F2F2"/>
<circle cx="33" cy="151" r="16" fill="#94B634"/>
<path d="M37.0741 155.074H34.6297V156.704H37.0741V159.148H38.7038V156.704H41.1482V155.074H38.7038V152.63H37.0741V155.074ZM33.0001 155.889C33.0001 153.192 35.1919 151 37.889 151C38.5164 151 39.1112 151.122 39.6571 151.334C40.8467 147.659 40.089 143.911 40.089 143.911C40.089 143.911 38.9482 143.667 37.2371 143.667C32.7556 143.667 24.526 145.378 25.8297 158.17C26.726 158.252 27.6223 158.333 28.4371 158.333C30.3601 158.333 31.9734 158.081 33.3341 157.641C33.1223 157.111 33.0001 156.508 33.0001 155.889Z" fill="white"/>
<defs>
<clipPath id="clip0_576_115">
<rect width="16.4571" height="16.4571" fill="white" transform="translate(25.2285 79.7714)"/>
</clipPath>
<clipPath id="clip1_576_115">
<rect width="16.4571" height="16.4571" fill="white" transform="translate(25.2285 204.771)"/>
</clipPath>
</defs>
</svg>
