<svg xmlns="http://www.w3.org/2000/svg" viewBox="0 0 500 500"><g id="freepik--background-simple--inject-76"><path d="M418.13,102.71S327.86,8.54,255.36,10.05-2.17,198.86,6.89,275.89,156.42,458.66,227.42,481.32,460.78,362.74,485.7,263.81,418.13,102.71,418.13,102.71Z" style="fill:#92E3A9"></path><path d="M418.13,102.71S327.86,8.54,255.36,10.05-2.17,198.86,6.89,275.89,156.42,458.66,227.42,481.32,460.78,362.74,485.7,263.81,418.13,102.71,418.13,102.71Z" style="fill:#fff;opacity:0.7000000000000001"></path></g><g id="freepik--floor-2--inject-76"><line x1="109.4" y1="468.47" x2="485.68" y2="468.47" style="fill:none;stroke:#263238;stroke-linecap:round;stroke-linejoin:round"></line><line x1="23.96" y1="468.47" x2="99.64" y2="468.47" style="fill:none;stroke:#263238;stroke-linecap:round;stroke-linejoin:round"></line></g><g id="freepik--floor-1--inject-76"><line x1="458.33" y1="221.43" x2="485.68" y2="221.43" style="fill:none;stroke:#263238;stroke-linecap:round;stroke-linejoin:round"></line><line x1="23.96" y1="221.43" x2="449.04" y2="221.43" style="fill:none;stroke:#263238;stroke-linecap:round;stroke-linejoin:round"></line></g><g id="freepik--plant-4--inject-76"><path d="M361.67,427.78s18.37-40.24,22.69-46.45,17.56-21.88,20-26.47,7-15.67,7-15.67-19.45,15.67-27,28.63-25.12,61-25.12,61Z" style="fill:#fff;stroke:#263238;stroke-linecap:round;stroke-linejoin:round"></path><path d="M372,401c5-12.77,10.66-26.25,14.1-32.15,4.57-7.83,13.76-16.82,20-22.48-1.25,2.82-2.58,5.74-3.55,7.57-1.34,2.54-6.62,9.21-11.27,15.09-3.48,4.4-6.77,8.56-8.59,11.17S376.43,391.72,372,401Z" style="fill:#92E3A9"></path><g style="opacity:0.25"><path d="M383.3,374.21l2.26,2.14L387.4,374l-2.71-2.56C384.25,372.25,383.79,373.2,383.3,374.21Z"></path><path d="M376.16,392.41l1.37-2.75-.89-.22c-.38.93-.77,1.87-1.15,2.81Z"></path><path d="M394.06,358.32c-.67.75-1.33,1.5-2,2.26l3.37,3.16,1.85-2.38Z"></path><path d="M401.58,350.58l2.05,1.24c.4-.84.83-1.77,1.27-2.73l-1.06-.65C403.11,349.13,402.35,349.84,401.58,350.58Z"></path></g><path d="M354.11,427.78s5.94-83.72,5.13-105.87-10-47.81-11.07-53.21a103.48,103.48,0,0,0-3.51-12.15s-1.08,49.69,1.62,70.22-1.08,43.48-1.35,55.1-3,44.29-3,44.29Z" style="fill:#263238;stroke:#263238;stroke-linecap:round;stroke-linejoin:round"></path><path d="M342,426.16s17.55-83.73,23.76-105.6,21.07-44.83,23.5-52.13,8.1-21.06,8.1-21.06,0,26.46-6.75,39.7-18.36,36.46-21.6,46.45-14.86,62.93-18.1,75.89-3,18.37-3,18.37Z" style="fill:#fff;stroke:#263238;stroke-linecap:round;stroke-linejoin:round"></path><path d="M344.3,424.73c2.62-12.43,17.74-83.86,23.35-103.63,4-14.23,11.75-28.84,17.38-39.51,2.91-5.53,5.21-9.89,6.09-12.52s2.27-6.36,3.63-9.86c-.72,8.57-2.34,19.85-6,27-8.22,16.12-18.67,37.31-21.73,46.75-2.14,6.59-7.83,31.47-12.41,51.46-2.47,10.76-4.6,20.06-5.72,24.56A98.63,98.63,0,0,0,346,425.19Z" style="fill:#92E3A9"></path><g style="opacity:0.25"><path d="M370.64,312.12c-.36.94-.7,1.88-1,2.83l4.45,1.21q.63-1.37,1.29-2.76Z"></path><path d="M366.84,333.62l-2.12-1.17c-.24,1-.49,2-.74,3l2,1.11C366.31,335.43,366.59,334.43,366.84,333.62Z"></path><path d="M391.19,268.86l2.26,1.05c.17-1,.33-2.07.47-3.09l-1.73-.81C391.82,267,391.48,268,391.19,268.86Z"></path><path d="M390.15,283.07c.35-.91.67-1.86,1-2.84l-4.4-1.89c-.45.86-.91,1.75-1.4,2.67Z"></path><path d="M377.1,297.13l5,2.41c.45-.9.89-1.8,1.34-2.69l-5-2.41C378,295.33,377.54,296.22,377.1,297.13Z"></path></g><path d="M345.47,425.62c.27-1.89,17-55.37,24.85-73.46s27.27-41.59,27.54-42.4-3.78,20.79-7.56,28.08-14,24.58-21.33,41.33-15.4,42.94-15.67,44.56a9.13,9.13,0,0,0,.81,4Z" style="fill:#263238;stroke:#263238;stroke-linecap:round;stroke-linejoin:round"></path><path d="M316.3,240.61s0,.68,0,1.88c-.16,7.85-.5,38.07,3,46.74,4.05,10,4.86,16.2,8.91,32.68s4.6,65.09,5.14,69.41,7.83,36.73,7.83,36.73h9.45s-9.72-99.93-14-115.59S324.67,269.78,322.51,262,316.3,240.61,316.3,240.61Z" style="fill:#fff;stroke:#263238;stroke-linecap:round;stroke-linejoin:round"></path><path d="M342.75,426.05c-2.59-11.55-7.05-31.79-7.45-35-.12-1-.27-5.06-.45-10.21-.57-16.39-1.64-46.88-4.72-59.43-1.08-4.38-1.93-8-2.67-11.23-2.06-8.89-3.31-14.25-6.33-21.72-2.1-5.18-2.9-19.73-3-34.48.87,3,1.74,6,2.42,8.48.89,3.26,2.73,9.84,4.87,17.54,3,10.8,6.65,23.82,9.17,33,3.87,14,12.31,98.32,13.76,113.06Z" style="fill:#92E3A9"></path><g style="opacity:0.33"><path d="M328.61,291.29l-5.66,2c.33,1,.64,1.91.93,2.86l5.53-2C329.14,293.22,328.87,292.26,328.61,291.29Z"></path><path d="M318.67,271.55l4.05-1.38-.81-2.9-3.4,1.17C318.55,269.5,318.61,270.53,318.67,271.55Z"></path><path d="M326.07,282.18c-.21-.73-.41-1.45-.61-2.16l-.21-.78-5.6,2.77c.16,1.12.33,2.16.53,3.08Z"></path><path d="M336.49,322.64l-5.83,1.23c.18.93.35,1.91.52,3l5.77-1.22C336.8,324.58,336.64,323.58,336.49,322.64Z"></path><path d="M334,310.83c-.26-1-.54-1.95-.82-3L327.63,311c.23,1,.46,2,.71,3Z"></path></g><path d="M337.26,428.05s-4.48-72.38-4.48-93.7,15.84-50.22,18.23-54.43,12.55-25.53,12.55-25.53-8.37,40.12-12.55,55.83-5.38,39.84-7.17,53-2.4,44.61-2.4,52.18-.29,12.63-.29,12.63Z" style="fill:#fff;stroke:#263238;stroke-linecap:round;stroke-linejoin:round"></path><path d="M339.14,426.05c-.7-11.52-4.36-72.6-4.36-91.7,0-21.21,16.13-50.21,18-53.44,1-1.7,3.13-6.05,5.4-10.7-2.79,13-6.66,30.42-9.07,39.49-3,11.09-4.46,26.47-5.66,38.82-.53,5.39-1,10.48-1.57,14.45-1.8,13.29-2.41,45.1-2.41,52.45,0,4.75-.12,8.51-.2,10.63Z" style="fill:#92E3A9"></path><g style="opacity:0.25"><path d="M340.86,306.54c-.36,1-.7,1.93-1,2.9a51.83,51.83,0,0,1,6,.89,19.66,19.66,0,0,1,2.78,1.24c.15-.63.31-1.26.47-1.87l.29-1.1a18.39,18.39,0,0,0-2.72-1.15A46.16,46.16,0,0,0,340.86,306.54Z"></path><path d="M341.44,366.52l-5.63-1.22c.05,1,.1,2.06.15,3.1l5.21,1.13C341.25,368.48,341.35,367.47,341.44,366.52Z"></path><path d="M334.78,336.08c0,1,0,2,.05,3.14a21.85,21.85,0,0,1,4-1.17c.51.07,2.65.75,5.43,1.69.1-1,.21-2,.32-3.06a47.17,47.17,0,0,0-5.41-1.61A15.61,15.61,0,0,0,334.78,336.08Z"></path><path d="M338.65,322.88a53.49,53.49,0,0,1,7.36,2.74c.15-1,.3-2.05.46-3.06a46.41,46.41,0,0,0-7.42-2.65,13.42,13.42,0,0,0-2.33,0c-.24,1-.47,2-.67,3.05A14,14,0,0,1,338.65,322.88Z"></path><path d="M349.92,286.17l4.34,1.77.66-3-3.6-1.47C350.91,284.26,350.44,285.16,349.92,286.17Z"></path><path d="M346.53,293.06c-.43.91-.86,1.86-1.3,2.83l7,1.1c.23-1,.45-1.94.68-2.93Z"></path><path d="M335.24,352.27c0,1,.08,2,.13,3,2.09.3,4.56.71,7.25,1.2.1-1,.2-2,.3-3C340.25,353,337.59,352.58,335.24,352.27Z"></path></g><path d="M331.15,427.51s-11.34-38.35-13.77-50-.27-45.91-.81-52.12-5.13-23.5-5.13-23.5,8.1,13.24,11.07,19.18,11.62,28.36,12.7,40.24-.27,21.34,0,27.82,3,38.35,3,38.35Z" style="fill:#fff;stroke:#263238;stroke-linecap:round;stroke-linejoin:round"></path><path d="M332.65,425.51c-2.08-7.07-11.19-38.24-13.31-48.38-1.57-7.49-1.16-25.06-.86-37.88.15-6.6.27-11.81.08-14a95.41,95.41,0,0,0-2-10.77c1.62,2.82,3.16,5.57,4.13,7.51,2.8,5.59,11.43,27.86,12.49,39.53a137.76,137.76,0,0,1,.16,19.15c-.14,3.27-.27,6.09-.16,8.57.23,5.54,2.17,28.93,2.79,36.27Z" style="fill:#92E3A9"></path><g style="opacity:0.25"><path d="M326.43,336.08c-.35-1-.7-1.91-1-2.82l-6.83,2.29c0,1,0,2.08-.07,3.19Z"></path><path d="M328.83,343.14l-10.47,1.51c0,1,0,2-.06,3L329.74,346C329.44,345.07,329.14,344.1,328.83,343.14Z"></path><path d="M324,329.56c-.39-1-.77-1.93-1.13-2.8l-4.18,1.18c0,.9,0,1.95,0,3.12Z"></path><path d="M333.21,389.24c0-.71,0-1.47,0-2.24l-11.29.43c.25,1,.52,1.95.79,3l10.57-.4C333.23,389.72,333.22,389.46,333.21,389.24Z"></path><path d="M333.7,396.79h-9.28l.84,3h8.66C333.84,398.75,333.77,397.75,333.7,396.79Z"></path><path d="M333.57,367.72l-15.1,1.6q.09,1.57.21,3l14.94-1.59C333.62,369.75,333.6,368.74,333.57,367.72Z"></path><path d="M333,360c-.13-.94-.29-1.94-.49-3l-14.35.9c0,1,0,2,0,3Z"></path></g><path d="M330.61,424.27s-5.67-36.73-13.23-46.73S282,343,279.84,339.73l-2.16-3.24s13,29.71,21.61,39.43,8.37,12.16,15.93,24.31A101,101,0,0,1,326,424.54l.54,2.16,4.59.81Z" style="fill:#fff;stroke:#263238;stroke-linecap:round;stroke-linejoin:round"></path><path d="M328.19,425l-.23-.91a101.77,101.77,0,0,0-11-24.88c-2.5-4-4.1-6.9-5.52-9.45a69,69,0,0,0-10.62-15.12c-4.77-5.37-11-17.26-15.5-26.48l4.88,4.64c8.92,8.47,21.14,20.07,25.63,26,7.17,9.48,12.79,45.46,12.85,45.82l.08.48Z" style="fill:#92E3A9"></path><g style="opacity:0.25"><path d="M309.14,371.28l-7.55,4.23c.71.83,1.37,1.6,2,2.33l7.71-4.32C310.6,372.8,309.89,372.05,309.14,371.28Z"></path><path d="M290.28,352.87l-1.93,1.39c.45.89.92,1.79,1.39,2.69l2.76-2Z"></path><path d="M301.44,363.56l-2.17-2.11-4.87,3.9c.53.89,1.06,1.76,1.58,2.59Z"></path><path d="M323.61,399.73l-5.1,2.12q.76,1.32,1.47,2.64l4.34-1.81C324.09,401.7,323.85,400.71,323.61,399.73Z"></path><path d="M318.58,383.86l-8,4.38.83,1.48c.2.37.42.75.64,1.15l7.66-4.21C319.33,385.67,319,384.74,318.58,383.86Z"></path></g><path d="M359.24,428.86s16.48-38.89,18.91-54.29,3-36.19,3.51-42.4,2.16-12.15,3.51-14.85,5.13-13,5.13-13-13.77,20.53-18.36,30.79-12.43,30-15.13,45.11-2.7,47.53-2.7,47.53Z" style="fill:#fff;stroke:#263238;stroke-linecap:round;stroke-linejoin:round"></path><path d="M356.12,426.16c0-6.73.36-32.7,2.66-45.56,3.15-17.66,13-40.28,15-44.64a145.7,145.7,0,0,1,7.63-13.89,58.79,58.79,0,0,0-1.72,9.93c-.15,1.67-.29,4.32-.47,7.67-.5,9.3-1.25,23.37-3,34.59-2.09,13.28-15.09,45-18.13,52.3Z" style="fill:#92E3A9"></path><g style="opacity:0.25"><path d="M367.14,403.5l1.05-2.83c-2-.47-3.95-.9-5.55-1.21-1.8-.36-3.76-.65-5.68-.89-.06,1-.11,2-.16,3,1.79.23,3.61.51,5.26.83C363.53,402.69,365.29,403.08,367.14,403.5Z"></path><path d="M376.16,374.33l-15.41-2.48c-.26,1-.5,1.95-.74,2.92l15.57,2.51C375.82,376.22,376,375.23,376.16,374.33Z"></path><path d="M375.42,332.57c1.4.19,2.79.41,4.07.67h.08c0-.46.06-.88.1-1.25.05-.59.11-1.17.18-1.75-.94-.18-1.93-.34-2.93-.49C376.39,330.73,375.88,331.67,375.42,332.57Z"></path><path d="M357.88,387.1q-.15,1.45-.3,3l13.48,2.46c.33-1,.65-1.92,1-2.87Z"></path><path d="M374.79,341.67l-3.21-.68-1.17,2.83c1.23.25,2.49.51,3.75.79,1.49.32,3.09.7,4.7,1.12.07-1.05.12-2.07.18-3.05C377.58,342.31,376.14,342,374.79,341.67Z"></path><path d="M364.46,359.67l13.17,2.68c.1-1,.19-2,.28-3l-12.46-2.53C365.12,357.75,364.79,358.71,364.46,359.67Z"></path><path d="M357.36,410.84l-.94-.2c0,1-.06,2.06-.09,3l.39.09c1.87.4,3.89.9,5.92,1.44.36-.91.73-1.85,1.1-2.81C361.56,411.82,359.37,411.27,357.36,410.84Z"></path></g><path d="M338.18,429.4s-1.62-39.43,4.32-60.5,11.34-31.87,14-38.35,12.7-18.09,12.7-18.09-6.49,16.47-6.49,23.22,2.7,12.16-.81,32.95S352,401,351.41,404.82s-5.94,23.23-5.94,23.23Z" style="fill:#fff;stroke:#263238;stroke-linecap:round;stroke-linejoin:round"></path><path d="M340.1,427c-.22-8.71-.65-39.94,4.32-57.56a241.55,241.55,0,0,1,12.35-34.38c.61-1.4,1.15-2.64,1.62-3.75a46.86,46.86,0,0,1,5-8.22c-1.41,4.56-2.65,9.47-2.65,12.58a50.6,50.6,0,0,0,.42,5.61c.59,5.34,1.34,12-1.2,27a146.44,146.44,0,0,1-8.47,30,35.52,35.52,0,0,0-2.07,6.27c-.4,2.79-3.88,15.69-5.55,21.77Z" style="fill:#92E3A9"></path><path d="M350.88,375.78a1.7,1.7,0,0,0-.31-.06l-7.48-.59q-.29,1.46-.54,3l7.63.6c2.43.72,5,1.5,7.08,2.17.25-.95.5-1.92.74-2.92C356.25,377.4,353.94,376.69,350.88,375.78Z" style="opacity:0.25"></path><path d="M354.07,391.31c-4.48.09-10.12.24-11.74.46-.34,0-.83.12-1.43.22-.08,1-.16,2.05-.23,3.08.9-.16,1.62-.27,2.05-.33,1.31-.17,5.93-.31,10.27-.41C353.34,393.39,353.7,392.38,354.07,391.31Z" style="opacity:0.25"></path><path d="M340.06,409.53l8.08.73c.27-1.08.51-2.08.72-2.95-2.39-.22-5.29-.49-8.72-.79C340.11,407.54,340.08,408.55,340.06,409.53Z" style="opacity:0.25"></path><path d="M360.64,364l-3.17-.48c-3.94-.61-8-1.22-10.83-1.53-.29,1-.59,1.92-.89,2.92,2.84.28,7.26,1,11.26,1.57l3.18.49Q360.45,365.4,360.64,364Z" style="opacity:0.25"></path><path d="M353.51,351.79a10.55,10.55,0,0,0-3.39-.23c-.37,1-.74,2.08-1.12,3.19a8.41,8.41,0,0,1,3.8,0,58.07,58.07,0,0,1,8.57,3.11c.1-1.12.19-2.18.25-3.17A57.92,57.92,0,0,0,353.51,351.79Z" style="opacity:0.25"></path><path d="M359.82,342.86a11.72,11.72,0,0,1,1.53.11q-.09-.87-.18-1.68l-.15-1.36c-.41,0-.81-.07-1.2-.07a37.39,37.39,0,0,0-5.33.5c-.43,1-.88,2.11-1.35,3.26A43.82,43.82,0,0,1,359.82,342.86Z" style="opacity:0.25"></path><path d="M356.91,334.74a9.53,9.53,0,0,1,3.42.26l.45.18a21.73,21.73,0,0,1,.35-3.07,10.28,10.28,0,0,0-2.91-.4C357.83,332.63,357.4,333.64,356.91,334.74Z" style="opacity:0.25"></path><path d="M342.77,429.13s.54-25.66-2.16-34.84-7.29-15.39-10.54-24-12.42-21.6-12.42-21.6,5.94,14,6.75,18.36,2.7,10.8,2.7,13-1.62,12.42,1.62,20,5.68,16.21,5.95,20,.27,8.64.27,8.64Z" style="fill:#fff;stroke:#263238;stroke-linecap:round;stroke-linejoin:round"></path><path d="M336.92,426.72c0-1.78-.09-4.54-.26-6.92-.31-4.3-3-13.37-6.1-20.63-2.48-5.79-1.87-13.51-1.58-17.23.07-.88.12-1.51.12-2a45,45,0,0,0-1.46-7.68c-.45-1.86-.91-3.78-1.22-5.4.69,1.42,1.31,2.79,1.78,4.06A105.26,105.26,0,0,0,333,381.42a77.58,77.58,0,0,1,5.71,13.43c2.14,7.29,2.16,25.87,2.11,32.14Z" style="fill:#92E3A9"></path><g style="opacity:0.25"><path d="M327.64,372.3c.19.82.38,1.62.56,2.37l1.42-.25c-.4-.92-.79-1.87-1.17-2.84l-.95.16C327.55,371.93,327.59,372.12,327.64,372.3Z"></path><path d="M328.7,387.66l6.77-1.15c-.44-.94-.89-1.88-1.35-2.81l-5.32.9C328.75,385.53,328.71,386.56,328.7,387.66Z"></path><path d="M338.69,394.85c-.06-.18-.12-.36-.17-.54l-9.07,1.35a20.22,20.22,0,0,0,.87,2.9l8.93-1.32C339.08,396.35,338.89,395.55,338.69,394.85Z"></path><path d="M340.45,408.84c-.06-1-.12-2-.19-3l-6.71,1.23c.32,1,.63,1.94.91,2.88Z"></path></g><polygon points="362.11 468.47 326.48 468.47 323.15 426.65 365.3 426.65 362.11 468.47" style="fill:#fff;stroke:#263238;stroke-linecap:round;stroke-linejoin:round"></polygon><polygon points="368.28 431.14 321.04 431.14 319.9 418.22 369.43 418.22 368.28 431.14" style="fill:#fff;stroke:#263238;stroke-linecap:round;stroke-linejoin:round"></polygon></g><g id="freepik--plant-3--inject-76"><path d="M385,98.11c-4.81-2-14.29-5-15.34-3.15a40.65,40.65,0,0,1-4.81,5.41s-2.1-6-3.91-6.32-9.47-.45-11.12,0,4.36,4.66,9.47,7.82a25.77,25.77,0,0,0,3.42,1.78,28.51,28.51,0,0,0-.51,8.24c.48,4.18.55,15.43-1.48,22.52-2.22,7.77-5.57,33.71-4.08,42.62l1.69-.28c-1.45-8.73,1.85-34.22,4-41.87,2.09-7.32,2-18.9,1.53-23.19a27.25,27.25,0,0,1,.44-7.41c2.51.88,4.47,1.21,6.07,2.25a12.32,12.32,0,0,1,3.46,3s.3-1.81,1-1.66,11.13,2.56,12.93,2.26S389.85,100.07,385,98.11Z" style="fill:#263238"></path><path d="M351.87,174.05c0-.2-3.92-19.63-5.11-26.17-.61-3.35-1.44-12.39-2.25-21.13-.78-8.51-1.59-17.31-2.11-19.74a16.32,16.32,0,0,0-3.82-7.54l1.21-1.21a17.9,17.9,0,0,1,4.29,8.39c.54,2.54,1.32,11,2.14,19.94.81,8.71,1.63,17.71,2.23,21,1.19,6.53,5.07,26,5.11,26.14Z" style="fill:#263238;stroke:#263238;stroke-linecap:round;stroke-linejoin:round"></path><path d="M357,173.31l-1.72-.06c0-.05.16-5,.46-9.35s.16-46.53,0-68.19c-.15-19.47-.16-45.15-.16-45.4h1.72c0,.25,0,25.93.15,45.39.14,18.39.31,63.81,0,68.32C357.18,168.31,357,173.26,357,173.31Z" style="fill:#263238;stroke:#263238;stroke-linecap:round;stroke-linejoin:round"></path><path d="M358.07,173l-1.69-.3c1.36-7.67,8.41-34.7,17.86-49.33S391.79,98,391.87,97.89l1.37,1c-.08.11-8.06,10.67-17.55,25.36C366.37,138.69,359.42,165.4,358.07,173Z" style="fill:#263238;stroke:#263238;stroke-linecap:round;stroke-linejoin:round"></path><path d="M393.32,92.68A11.33,11.33,0,0,0,387,83.85C381,81,377.71,80.15,376.89,88a68.62,68.62,0,0,0,.21,15s4.52-8,8-9,5.95,1.64,4.1,2.67-7.8,4.72-9.85,6.16-1.65,2.06-.21,4.72,4.31,9.45,4.31,9.45,2.67-11.7,3.9-13.76,5.55,0,4.11,3.49-5.34,12.73-5.34,12.73,5.34,5.75,8,7.4,4.72,7.59,4.72,7.59,1.85-1.84,6.78-3.69,11.91-4.93,11.5-7-2.26-4.52-6.16-9.65-9.86-10.07-7.39-10.27,15.6,6,16.83,8.83S420,121,420,121s3.9-5.34,3.9-8.22a9.68,9.68,0,0,0-1.64-5.13s-8.42-6.37-11.91-8.21-3.69-3.91-2.67-3.91,11.91,2.88,14,5.55a10.41,10.41,0,0,1,2.25,4.93c.21.61-2.46-14.38-6-17.46s-10.88-5.54-15.2-3.9-6.16,2.88-6.77,4.11A38.77,38.77,0,0,1,393.32,92.68Z" style="fill:#92E3A9;stroke:#263238;stroke-linecap:round;stroke-linejoin:round"></path><path d="M408.56,114.45s-4.15-5.22-5-3.48,5.49,9.91,6.16,9.24S410.43,117,408.56,114.45Z" style="fill:none;stroke:#263238;stroke-linecap:round;stroke-linejoin:round"></path><path d="M395.43,93.69s13.8-2.54,18.08-1.2" style="fill:none;stroke:#263238;stroke-linecap:round;stroke-linejoin:round"></path><path d="M395.84,97s11.25,2.82,15.67,6.3" style="fill:none;stroke:#263238;stroke-linecap:round;stroke-linejoin:round"></path><path d="M395.57,98.11s-6.3.81-9.38,3.22-3.35,3.21-3.35,3.21" style="fill:none;stroke:#263238;stroke-linecap:round;stroke-linejoin:round"></path><path d="M383.65,90.08A17.34,17.34,0,0,1,388.07,92a29.8,29.8,0,0,0,6,2.41s5,8,6,15.14.14,19.28,0,19.82" style="fill:none;stroke:#263238;stroke-linecap:round;stroke-linejoin:round"></path><path d="M398.51,104.41a76.69,76.69,0,0,0-4.95,9.91" style="fill:none;stroke:#263238;stroke-linecap:round;stroke-linejoin:round"></path><path d="M357.13,46.15a26.77,26.77,0,0,1-.94-5.89c0-2.55,2.68-6-1.74-7.64S341.59,27,340,24.86s-1.74-3.89-5.49-4.42-7-.41-11.79,2.54-6,6.43-6,6.43,1.88-1.34,12.59.67,16.34,8.57,13.53,8.84-17.95-6.56-21.7-7.37-5.89-1.2-8.17,1.21S310,40.53,310,40.53s6.29-4.29,13.66-3.62,18.88,6.56,17.27,7.23-11.38-3.88-18.34-2.81-11.25,1.74-11.79,4.42,1.88,4.42,1.88,4.42-1.48-2.55,3.88-5.36,14.06-2.14,14.06-1.47-4.95.13-8.44,1.87-8,4.29-6.56,5.23,4.82,3.08,5.49,5,.54,6,1.07,4.69,1.21-5.36,2.42-6.16,14.46-.27,14.46-.27,5.49-2.81,6.16-4.15.94-3.62,4-3,2.94,2,1.2,5-6.29,6.29-6.29,6.29,7.37-4,10.71-4.42,5.23-1.74,4.56-3.21-1.88-2.81.13-3.08,5-.27,5.22,1.34-2.41,3.35-2.41,3.35,10.85-3,13.4-5.09,4.68-3.62,3.88-4.69-5-.14-5-.14-3.88-3.21-8.43-1.33a18.29,18.29,0,0,0-7,5.08A3.32,3.32,0,0,1,357.13,46.15Z" style="fill:#92E3A9;stroke:#263238;stroke-linecap:round;stroke-linejoin:round"></path><path d="M338.25,28.47c.4-.13,5.89,5.49,8.7,10.05s10.18,7.63,10.18,7.63-10.18-.8-13.79-.67-12.86,2-16.21,4.42" style="fill:none;stroke:#263238;stroke-linecap:round;stroke-linejoin:round"></path><path d="M359.27,45.61s10.8-2.34,11.93-.7" style="fill:none;stroke:#263238;stroke-linecap:round;stroke-linejoin:round"></path><path d="M351.88,45.84a110.63,110.63,0,0,1-10.48-4.32c-3.29-1.75-13.88-7.09-22.1-7" style="fill:none;stroke:#263238;stroke-linecap:round;stroke-linejoin:round"></path><path d="M340.24,94.8s4.81-6.46,3.45-7.36S328.81,90,325.35,91.05s-9.77,1.2-16.83,2.4-8,3.31-9.93,3.46-3.3,0-4.51.6l-1.2.6a24.06,24.06,0,0,1,4.21,1.51c1.35.75,5.71.9,6.17,1.5s6.91,3.46,14.58,5.41,18.34-5.86,21.34-7.67,5.57-3.3,5.87-4.81S340.24,94.8,340.24,94.8Z" style="fill:#92E3A9;stroke:#263238;stroke-linecap:round;stroke-linejoin:round"></path><path d="M340.24,94.8s-3,3.16-4.51,3.46S325.05,101,318,101s-18.79-2-18.79-2" style="fill:none;stroke:#263238;stroke-linecap:round;stroke-linejoin:round"></path><path d="M332.87,91.8a22.39,22.39,0,0,0,3,4.36l1.2,1" style="fill:none;stroke:#263238;stroke-linecap:round;stroke-linejoin:round"></path><path d="M333,99s-6.16-3.6-9.32-4.36a25.93,25.93,0,0,0-5.41-.75" style="fill:none;stroke:#263238;stroke-linecap:round;stroke-linejoin:round"></path><path d="M323.7,101a34.3,34.3,0,0,0-9.32-3c-5.71-1-7.07-1.35-7.07-1.35" style="fill:none;stroke:#263238;stroke-linecap:round;stroke-linejoin:round"></path><path d="M331.82,99.31a18.87,18.87,0,0,1-7.22,4.36" style="fill:none;stroke:#263238;stroke-linecap:round;stroke-linejoin:round"></path><path d="M378.77,75.93s6.2-4.48,4-5.69-16.36,2.07-30.31,4.31-17.91,5.34-20.32,7.75a11,11,0,0,0-2.75,6s4.65.52,5.51,1,1.89-3.45,9.64-7.41,12.92-6.54,9.47-2.41-7.75,8.61-10.85,9.47l-3.1.86s8.1,2.93,9.82,2.07S362.58,76.44,364,76.61s1.55,1.21-.86,4.14a63.42,63.42,0,0,1-7.41,6.89s10.85.34,11.37-.52,7.06-11.88,7.58-9.64,0,2.92-1,4.3-3.27,4-3.27,4,20.15,3.1,20.49,1.21-1.2-5.86-4.82-7.58Z" style="fill:#92E3A9;stroke:#263238;stroke-linecap:round;stroke-linejoin:round"></path><path d="M378.77,75.93s-11.19-2.07-17.39-1.21" style="fill:none;stroke:#263238;stroke-linecap:round;stroke-linejoin:round"></path><path d="M349.2,172.5c0-.05-1.7-5.11-5-16.57a145.14,145.14,0,0,1-4.39-23.16l1.71-.16a143.74,143.74,0,0,0,4.33,22.84c3.27,11.42,4.94,16.46,4.95,16.51Z" style="fill:#263238"></path><path d="M357.07,129.14s-2.58-7.06-7.75-6.89-6.54,8.44-3.44,15.67,10.5,11.54,14.29,13.78,12.23,7.57,13.61,8.78,2.06-4.31,4-8.78,3.1-18.43-1-25.15-12.57-11.88-16-9.12S357.07,129.14,357.07,129.14Z" style="fill:#92E3A9;stroke:#263238;stroke-linecap:round;stroke-linejoin:round"></path><path d="M358.11,131.2s-.69,1.9,3.27,6.72,10.33,9.82,11,15.15" style="fill:none;stroke:#263238;stroke-linecap:round;stroke-linejoin:round"></path><path d="M359.65,130.69s12.4-1.9,15.85-.17" style="fill:none;stroke:#263238;stroke-linecap:round;stroke-linejoin:round"></path><path d="M357.76,133.27s-4.65,4.13-5.34,8.27" style="fill:none;stroke:#263238;stroke-linecap:round;stroke-linejoin:round"></path><path d="M362.41,139.64s-1.55,4.14-1.21,7.06" style="fill:none;stroke:#263238;stroke-linecap:round;stroke-linejoin:round"></path><path d="M366.72,143.09s6.54.51,7.74,3.44" style="fill:none;stroke:#263238;stroke-linecap:round;stroke-linejoin:round"></path><path d="M339.33,129.83s4.48-2.24,2.07-5.17-6.72-1.72-10.85-.34-3.79,2.75-15.15,2.92-15.33,2.24-15.33,2.24,5.86,0,9.47,2.76,22.22,5.85,26.87,6.54,11-1.89,11.71-5.68S339.33,129.83,339.33,129.83Z" style="fill:#92E3A9;stroke:#263238;stroke-linecap:round;stroke-linejoin:round"></path><path d="M308.16,129.65s1.55.69,11.2,1.55a73,73,0,0,0,17.91-.68,54.94,54.94,0,0,0-8.16-2.79" style="fill:none;stroke:#263238;stroke-linecap:round;stroke-linejoin:round"></path><path d="M321.9,129.23a46.8,46.8,0,0,1,7.81,2.41,24.4,24.4,0,0,1-9.47,1.35" style="fill:none;stroke:#263238;stroke-linecap:round;stroke-linejoin:round"></path><path d="M337.27,130.52s-2.14,4-4.1,4.72" style="fill:none;stroke:#263238;stroke-linecap:round;stroke-linejoin:round"></path><path d="M324.33,169.48h50.3s6.16,17.24,3.7,28.74-10.68,23.21-10.68,23.21H332.54s-11.91-12.94-12.12-27.52S324.33,169.48,324.33,169.48Z" style="fill:#263238;stroke:#263238;stroke-linecap:round;stroke-linejoin:round"></path></g><g id="freepik--plant-2--inject-76"><path d="M144.77,359s-6.29.65-18.62-6-15.67-12.59-20.55-19.39S92.25,320.2,92.25,320.2s22.21-1.16,30.56.64,21.45,11.05,23.76,20.29S144.77,359,144.77,359Z" style="fill:#92E3A9;stroke:#263238;stroke-linecap:round;stroke-linejoin:round"></path><path d="M131.23,344.79c-3-3-6-5.9-8.4-8-7.8-6.69-19.08-12.26-19.08-12.26" style="fill:none;stroke:#263238;stroke-linecap:round;stroke-linejoin:round"></path><path d="M144.77,359s-5.07-5.55-10.82-11.43" style="fill:none;stroke:#263238;stroke-linecap:round;stroke-linejoin:round"></path><polygon points="148.37 361.55 143.1 356.67 148.75 365.41 148.37 361.55" style="fill:none;stroke:#263238;stroke-linecap:round;stroke-linejoin:round"></polygon><path d="M156,375.81a36.06,36.06,0,0,0,7.32-3.85c3.72-2.57,2.82-6.68,9.76-8.35s18.11-6.55,21.45-11.18,2.82-7.32-8-8.73-24.4,1.16-28.51,5.91-6.29,16.57-5.26,20.42S154.66,375.55,156,375.81Z" style="fill:#92E3A9;stroke:#263238;stroke-linecap:round;stroke-linejoin:round"></path><path d="M163.72,362.76a52.6,52.6,0,0,1,10.85-10.07c8.73-5.78,14.51-7.32,14.51-7.32" style="fill:none;stroke:#263238;stroke-linecap:round;stroke-linejoin:round"></path><path d="M159.41,368.49s1-1.6,2.81-3.88" style="fill:none;stroke:#263238;stroke-linecap:round;stroke-linejoin:round"></path><polygon points="156.01 346.98 150.43 360.53 149.78 357.57 156.72 344.6 156.01 346.98" style="fill:none;stroke:#263238;stroke-linecap:round;stroke-linejoin:round"></polygon><path d="M143,385.18s-2.06-7.19-5.27-10S124,372,120.76,373s-6.94,4.5-6.94,4.5,11.56,1.41,17.47,3.6S143,385.18,143,385.18Z" style="fill:#263238;stroke:#263238;stroke-linecap:round;stroke-linejoin:round"></path><path d="M143,385.18s-13.36-7.57-23.12-9.88-16.18-2.32-20.29-.65A30.17,30.17,0,0,0,92,379.41s17.21-3.6,29.67-.52S143,385.18,143,385.18Z" style="fill:#92E3A9;stroke:#263238;stroke-linecap:round;stroke-linejoin:round"></path><polygon points="140.41 383.77 148.5 394.43 148.63 390.58 142.46 384.16 140.41 383.77" style="fill:none;stroke:#263238;stroke-linecap:round;stroke-linejoin:round"></polygon><path d="M138.74,336.51l8.09,13.74s1.54,19.65,1.67,21.83-.52,31.73-.52,35.84-1.15,14.25-1.15,14.25h4.88s-.13-16.44-.13-25.94.77-14.51,1.28-15.8,4.5-8.09,4.5-8.09l-6.42,6.94-.52-18.75L148.88,337l-1.67-10.66-1.79.77,1.28,18.37-6-9.12Z" style="fill:#263238;stroke:#263238;stroke-linecap:round;stroke-linejoin:round"></path><path d="M148.64,331.67s6.16-3.87,6.88-7.74.43-4.58.86-7.45,3.15-15.33.29-28.65-9.6-19.35-11.47-19.92-1.86-1.72-3.15-.86a20.36,20.36,0,0,0-9.6,11.89c-2.43,8-2.58,19.49-2.58,19.49s9.32,22.92,10,24.79,7,11.32,7,11.32Z" style="fill:#92E3A9;stroke:#263238;stroke-linecap:round;stroke-linejoin:round"></path><path d="M140.83,289.71c1.06,16.65,5.45,41.72,6.09,44.83" style="fill:none;stroke:#263238;stroke-linecap:round;stroke-linejoin:round"></path><path d="M142.05,267.05s-1.72,1.58-1.43,17.62" style="fill:none;stroke:#263238;stroke-linecap:round;stroke-linejoin:round"></path><path d="M142.73,339.58s4.59-5.68,1.53-15.75-13.12-19.69-22.53-22.75-23,0-25.6,1.53a78.31,78.31,0,0,0-6.56,4.6s6.78,5,15.09,10.72,20.13,13.78,26.48,17.72S142.73,339.58,142.73,339.58Z" style="fill:#92E3A9;stroke:#263238;stroke-linecap:round;stroke-linejoin:round"></path><path d="M135.76,334c4.45,3.17,6.86,5.25,7,5.57" style="fill:none;stroke:#263238;stroke-linecap:round;stroke-linejoin:round"></path><path d="M89.57,307.21s10.28,5.25,26.91,14.65c6.09,3.45,11.22,6.67,15.28,9.39" style="fill:none;stroke:#263238;stroke-linecap:round;stroke-linejoin:round"></path><path d="M209.08,300.17s-6.46-3.16-18.66.55-19.15,14.95-20.94,18.78S167,333.74,167,333.74Z" style="fill:#263238;stroke:#263238;stroke-linecap:round;stroke-linejoin:round"></path><path d="M156,347a107.87,107.87,0,0,1,3.6-13.26c2.27-6.45,7.77-12.51,21-21.23a101.29,101.29,0,0,1,28.43-12.32s-7,5.3-27.1,22S156,347,156,347Z" style="fill:#92E3A9;stroke:#263238;stroke-linecap:round;stroke-linejoin:round"></path><path d="M132.32,361.3s-15.93-5.78-14.77-2.83,2.69,6.42,2.69,6.42Z" style="fill:#263238;stroke:#263238;stroke-linecap:round;stroke-linejoin:round"></path><path d="M149.91,373s.13-3.08,1.29-3.85,8.6-1.67,8-7.19-6.94-8.09-14.64-5.4-14,4.89-17.6,6-6.68,2.31-6.68,2.31a79.22,79.22,0,0,1,15.67,1.16C145.8,367.59,149.91,373,149.91,373Z" style="fill:#92E3A9;stroke:#263238;stroke-linecap:round;stroke-linejoin:round"></path><path d="M151.9,397.88l-1-.92c-1.53-1.41-9.16-8.63-8.71-12.19A2.25,2.25,0,0,1,143.4,383c3.67-2,14.92-4.6,15.4-4.72l1.73-.4-.55,1.69c-.11.32-2.62,8-4.44,11.22s-3,5.82-3.06,5.85Zm5.6-17.2c-3.35.83-10.54,2.7-13.15,4.1a.29.29,0,0,0-.18.24c-.21,1.7,3.76,6.31,7.11,9.55.55-1.1,1.45-2.84,2.51-4.74A72,72,0,0,0,157.5,380.68Z" style="fill:#263238"></path><path d="M143,385.18s1.54-3.85,4.75-4.88,10.79-2.69,10.79-2.69,7.57-7.71,9.63-7.19-1.16,5.13-1.54,6a20.46,20.46,0,0,0-.77,3.21s-1.16-.25-7.2,1S143.87,383.9,143,385.18Z" style="fill:#92E3A9;stroke:#263238;stroke-linecap:round;stroke-linejoin:round"></path><path d="M148.37,406.63s-2.31-1.67-1.93-2.05,1.67-2.44.13-3.47-6.16-1.28-9.76-1.93-7.19-2.56-14.25,1.42-7.58,6.93-7.58,6.93,8.22-1.92,14.77-3.08,11.94-2.06,11.94-2.06S146.7,407.66,148.37,406.63Z" style="fill:#92E3A9;stroke:#263238;stroke-linecap:round;stroke-linejoin:round"></path><line x1="141.69" y1="402.39" x2="145.29" y2="401.88" style="fill:none;stroke:#263238;stroke-linecap:round;stroke-linejoin:round"></line><path d="M119.47,404.19s11.69-5,16.19-5.13" style="fill:none;stroke:#263238;stroke-linecap:round;stroke-linejoin:round"></path><line x1="147.73" y1="414.21" x2="144.9" y2="412.8" style="fill:none;stroke:#263238;stroke-linecap:round;stroke-linejoin:round"></line><path d="M145.93,413.31s-.39-4.62-2.83-5.52-7.83-.64-11.43,2.31-4.23,4.37-4.23,4.37,2.44-.13,6.55-.39S145.29,413.31,145.93,413.31Z" style="fill:#92E3A9;stroke:#263238;stroke-linecap:round;stroke-linejoin:round"></path><polygon points="151.71 411.13 155.69 409.33 151.45 412.93 151.71 411.13" style="fill:none;stroke:#263238;stroke-linecap:round;stroke-linejoin:round"></polygon><path d="M155.69,409.33s-.13-4.37,8.86-4.62,14.39,2.05,16.95,4.36,4.89,7.07,4.89,7.07-7.33-4.88-13.62-6.55-8.86-2.57-11-2.06S155.69,409.33,155.69,409.33Z" style="fill:#92E3A9;stroke:#263238;stroke-linecap:round;stroke-linejoin:round"></path><polygon points="167.65 468.47 132.03 468.47 128.69 426.65 170.84 426.65 167.65 468.47" style="fill:#b0b0b0;stroke:#263238;stroke-linecap:round;stroke-linejoin:round"></polygon><polygon points="173.83 431.14 126.59 431.14 125.44 418.22 174.97 418.22 173.83 431.14" style="fill:#b0b0b0;stroke:#263238;stroke-linecap:round;stroke-linejoin:round"></polygon></g><g id="freepik--plant-1--inject-76"><path d="M162.2,67.14s3.19-.71-11.53-2.66S129,62.17,132.23,63.41s15.25,4.26,17.73,5.85,4.26,2.49,10.47,4.08,27.49,3,24.65,2.31S166.46,67.49,162.2,67.14Z" style="fill:#263238;stroke:#263238;stroke-linecap:round;stroke-linejoin:round"></path><path d="M152.33,169.85l-1.54-.77s.49-1.35,1-8.72c.57-8.63,2.28-42.51,1.24-53.24-1.06-11,1.83-35,2-36l1.71.21c0,.25-3,24.86-1.95,35.64s-.66,44.85-1.24,53.52C153,168,152.47,169.56,152.33,169.85Z" style="fill:#263238"></path><path d="M141.63,110.23s-12.95-4.43-15.25.53,11.17,11.18,13.83,12.77a84.87,84.87,0,0,1,7.8,6l-.88-6.91s5.49-6.21,5.14-12.42-5-5.67-7.63-3.72S141.63,110.23,141.63,110.23Z" style="fill:#263238;stroke:#263238;stroke-linecap:round;stroke-linejoin:round"></path><path d="M154.52,164.55l-1.66-.45c.27-1,6.64-24.32,10.92-31.26a138.82,138.82,0,0,1,9.3-12.69c2.48-3.14,5-6.39,7.4-9.71,5.66-8,7.83-10,7.92-10.06l1.16,1.26s-2.17,2-7.68,9.8c-2.39,3.35-5,6.61-7.45,9.77a138.59,138.59,0,0,0-9.19,12.53C161.09,140.47,154.58,164.31,154.52,164.55Z" style="fill:#92E3A9;stroke:#263238;stroke-linecap:round;stroke-linejoin:round"></path><path d="M162,143.22l-1.35-1.07C161.1,141.57,172,128,183.13,128c8.9,0,12.11,2,14.46,3.47a13.66,13.66,0,0,0,1.51.87c3.37,1.58,8.06,2.95,11.1,2.08l.48,1.65c-4.4,1.26-10.53-1.35-12.31-2.17a15.26,15.26,0,0,1-1.69-1c-2.17-1.36-5.14-3.21-13.55-3.21C172.85,129.71,162.09,143.08,162,143.22Z" style="fill:#92E3A9;stroke:#263238;stroke-linecap:round;stroke-linejoin:round"></path><path d="M185.08,47.45s-17.74,65.09-19.51,72.36S161.49,139,161.49,139l-.71,1.6-6.2-17.74L143.05,78.66s-7.63-21.46-7.63-24.83.36-8.86.36-8.86l-1.6-2.49s-1.42,11.35-.18,15.08,19.16,70.41,20.58,75.9.7,15.08,0,19.69a98.4,98.4,0,0,0-.89,9.93l7.09-.18s5.15-17,5.15-25.89,11.7-55.33,13.3-61.18,7.62-27.49,7.62-27.49Z" style="fill:#92E3A9;stroke:#263238;stroke-linecap:round;stroke-linejoin:round"></path><path d="M190.58,32a17.7,17.7,0,0,0-8.69-9.22c-6.74-3.37-17,2.13-21.11,7.45s-.53,12.94,6.56,15.6,18.63,4.08,20.22,5.68,5.85,10.82,5.85,10.82S195.9,53.48,198,53s15.26-3.73,20-8.16,11.53-15.43,8.69-17.56a21,21,0,0,0-20.21-2.13A101.12,101.12,0,0,0,194.3,31,9.92,9.92,0,0,1,190.58,32Z" style="fill:#92E3A9;stroke:#263238;stroke-linecap:round;stroke-linejoin:round"></path><path d="M190.58,32s2.12,8,1.06,15.08" style="fill:none;stroke:#263238;stroke-linecap:round;stroke-linejoin:round"></path><path d="M179,35.82a13.94,13.94,0,0,0-5.46,3.12" style="fill:none;stroke:#263238;stroke-linecap:round;stroke-linejoin:round"></path><path d="M190.93,34.15a41.3,41.3,0,0,0-10,1.11" style="fill:none;stroke:#263238;stroke-linecap:round;stroke-linejoin:round"></path><path d="M172.84,32s9.4-2.66,15.25-.35" style="fill:none;stroke:#263238;stroke-linecap:round;stroke-linejoin:round"></path><path d="M206.05,41.7A16.19,16.19,0,0,1,208,43.19" style="fill:none;stroke:#263238;stroke-linecap:round;stroke-linejoin:round"></path><path d="M192.53,39.47a19,19,0,0,1,11.14,1" style="fill:none;stroke:#263238;stroke-linecap:round;stroke-linejoin:round"></path><path d="M210.82,30.11a36.76,36.76,0,0,1,8.13-.93" style="fill:none;stroke:#263238;stroke-linecap:round;stroke-linejoin:round"></path><path d="M193.59,34s8.34-1.24,10.82-2.13c1-.34,2.67-.85,4.67-1.33" style="fill:none;stroke:#263238;stroke-linecap:round;stroke-linejoin:round"></path><path d="M191.29,38.41s-5.68,2.66-8.16,5.32" style="fill:none;stroke:#263238;stroke-linecap:round;stroke-linejoin:round"></path><path d="M135.78,45s-16.14-13.84-23.24-15.61S86.3,24,81,21.91a19,19,0,0,1-7.81-5.5,64.94,64.94,0,0,1,24.48,3c13.12,4.26,24.65,9.22,24.65,9.22s9.4.53,16.49,5.68,16.85,16.67,14.72,16-10.46-4.08-12.77-4.44S135.78,45,135.78,45Z" style="fill:#92E3A9;stroke:#263238;stroke-linecap:round;stroke-linejoin:round"></path><path d="M126.73,31.67c.53.17,3.55,4.08,4.61,7.27" style="fill:none;stroke:#263238;stroke-linecap:round;stroke-linejoin:round"></path><path d="M134,39.82a15.1,15.1,0,0,0-2.48-7.09" style="fill:none;stroke:#263238;stroke-linecap:round;stroke-linejoin:round"></path><path d="M135.78,43s4.43-1.78,8.33-.54" style="fill:none;stroke:#263238;stroke-linecap:round;stroke-linejoin:round"></path><path d="M126.91,35.75s-6.39-5.86-10.64-7.81-17.56-5-25.72-8" style="fill:none;stroke:#263238;stroke-linecap:round;stroke-linejoin:round"></path><path d="M189.69,94.8s4.08,12.42,7.8,17.2,14.72,11.35,16.14,13.13,1.6,5,1.6,5,5.5-6.56,5-12.06A27.91,27.91,0,0,0,209.37,98.7c-7.44-5.49-16-12.23-17.73-12.23S188.45,90.72,189.69,94.8Z" style="fill:#92E3A9;stroke:#263238;stroke-linecap:round;stroke-linejoin:round"></path><path d="M194,95.33s10.64,6.57,16.67,12.6,5.49,16.67,5.49,16.67" style="fill:none;stroke:#263238;stroke-linecap:round;stroke-linejoin:round"></path><path d="M202.28,101.19s5.32,8.51,6,12.41" style="fill:none;stroke:#263238;stroke-linecap:round;stroke-linejoin:round"></path><path d="M198.91,98.7s6.39-.71,12.24,5" style="fill:none;stroke:#263238;stroke-linecap:round;stroke-linejoin:round"></path><path d="M155.82,86.64s-7.45-5-11.18-2.48-2.3,10.82,9.23,14,13.3,1.77,24.29,1.6S194,106,194,106s-.71-8.51-.54-12.23-1.95-14.9-9.57-17.2-18.45,1.06-22.17,3.19S155.82,86.64,155.82,86.64Z" style="fill:#92E3A9;stroke:#263238;stroke-linecap:round;stroke-linejoin:round"></path><path d="M183.78,95.35c3.31,1.36,6.27,3.08,7.33,5.13" style="fill:none;stroke:#263238;stroke-linecap:round;stroke-linejoin:round"></path><path d="M157.59,87.35l14,4.44s3.15.6,7,1.73" style="fill:none;stroke:#263238;stroke-linecap:round;stroke-linejoin:round"></path><path d="M161.49,88.59a31.15,31.15,0,0,1,12.77-5" style="fill:none;stroke:#263238;stroke-linecap:round;stroke-linejoin:round"></path><path d="M167.7,90s8-3,12.94-1.24" style="fill:none;stroke:#263238;stroke-linecap:round;stroke-linejoin:round"></path><path d="M159.36,88.24a9.46,9.46,0,0,0-1.77,5.14" style="fill:none;stroke:#263238;stroke-linecap:round;stroke-linejoin:round"></path><path d="M165.22,90a20.23,20.23,0,0,0,.71,5.5" style="fill:none;stroke:#263238;stroke-linecap:round;stroke-linejoin:round"></path><path d="M148.64,166.06c-.1-.23-2.38-6-5.38-24.3s-6.35-43-6.38-43.3l1.7-.23c0,.25,3.4,25,6.38,43.25s5.24,23.88,5.27,23.94Z" style="fill:#92E3A9;stroke:#263238;stroke-linecap:round;stroke-linejoin:round"></path><path d="M144.64,94.09l-7.27,2s3.19,2.66,2.84,4.79-3.19-1.24-13.3-1.42-17.56-.71-22.52-3.19-7.81-3.72-8.34-3.9,16-4.79,23.94-5,15.61,3.37,15.61,3.37S146.59,93.21,144.64,94.09Z" style="fill:#92E3A9;stroke:#263238;stroke-linecap:round;stroke-linejoin:round"></path><path d="M137.37,96s-1.06-.71-9.93-1.77-12.77.71-20.75-2" style="fill:none;stroke:#263238;stroke-linecap:round;stroke-linejoin:round"></path><path d="M131.34,95c-.88,0-3.72,1.06-8.69,1.42" style="fill:none;stroke:#263238;stroke-linecap:round;stroke-linejoin:round"></path><path d="M125.14,94.09s-5-1.59-8-2.84" style="fill:none;stroke:#263238;stroke-linecap:round;stroke-linejoin:round"></path><path d="M210.44,135.24s2.66-9.76,10.11-5.32S237,146.41,237.75,148a7,7,0,0,0,2.48,2.66,24.46,24.46,0,0,1-7.45,2.66c-5,1.06-13.65-1.78-16.49-5.68a81.64,81.64,0,0,1-5.85-10.11Z" style="fill:#92E3A9;stroke:#263238;stroke-linecap:round;stroke-linejoin:round"></path><path d="M210.44,137.54s6.56-.71,10.11.71S233,146.94,233,146.94" style="fill:none;stroke:#263238;stroke-linecap:round;stroke-linejoin:round"></path><path d="M134.54,71.92s-2.84-6.56-9.4-5.85S106,69.44,99.78,73.17s-14.72,11-14.72,11.52v3.2s4.07-4.62,7.09-6.21S100,79.2,103,76.89a25.74,25.74,0,0,1,7.09-3.55l11.53,3.55s5.14,1.24,6.56.53.89-1.59.89-1.59,4.79,1.06,5.85-.54S134.54,71.92,134.54,71.92Z" style="fill:#92E3A9;stroke:#263238;stroke-linecap:round;stroke-linejoin:round"></path><path d="M129,75.83s-4.44-1.42-7.1-2.13-4.43-3.55-10.28-3.19" style="fill:none;stroke:#263238;stroke-linecap:round;stroke-linejoin:round"></path><path d="M125.85,69.26a4.4,4.4,0,0,0-3.91,4.44s-6.38-1.24-8.51-.89" style="fill:none;stroke:#263238;stroke-linecap:round;stroke-linejoin:round"></path><path d="M150.55,163.81c-.09-.35-8.4-35.24-15-51.48s-16-35.94-16.11-36.13l1.54-.74c.1.19,9.49,19.89,16.16,36.22s15,51.38,15.12,51.73Z" style="fill:#92E3A9;stroke:#263238;stroke-linecap:round;stroke-linejoin:round"></path><rect x="128.42" y="181.88" width="50.35" height="39.55" style="fill:#fff;stroke:#263238;stroke-linecap:round;stroke-linejoin:round"></rect><rect x="123.19" y="160.6" width="60.83" height="39.55" style="fill:#fff;stroke:#263238;stroke-linecap:round;stroke-linejoin:round"></rect><path d="M129,127.43s-1.95-7.8-7.1-6.38-12.94,13.83-9.57,22.88,9.22,17.38,16.67,18.62,9.93,5.32,9.93,5.32-.18-5.32.53-6.21,7.27-5.67,7.63-17.91-3-18.27-8.87-19.86S130.81,124.24,129,127.43Z" style="fill:#92E3A9;stroke:#263238;stroke-linecap:round;stroke-linejoin:round"></path><path d="M129,127.43s2.13,15.79,4.25,21.46" style="fill:none;stroke:#263238;stroke-linecap:round;stroke-linejoin:round"></path><path d="M130.1,135.77S127.26,145.88,126,150" style="fill:none;stroke:#263238;stroke-linecap:round;stroke-linejoin:round"></path><path d="M131.87,142.51s4.08,4.79,5.68,8.51" style="fill:none;stroke:#263238;stroke-linecap:round;stroke-linejoin:round"></path><path d="M123.36,139.85a50.71,50.71,0,0,1,6.39-8.34s7.8,4.44,8.86,7.45" style="fill:none;stroke:#263238;stroke-linecap:round;stroke-linejoin:round"></path></g></svg>
