<svg xmlns="http://www.w3.org/2000/svg" xmlns:xlink="http://www.w3.org/1999/xlink" viewBox="0 0 500 500"><defs><clipPath id="freepik--clip-path--inject-113"><path d="M467.29,376.23a131.54,131.54,0,0,1-24.76,40.54C425.11,436,394,455.12,372.9,462,179.12,525.49,76.62,415.42,68,407.54,52,392.85,39,370.37,30.9,345l-.06-.19,266.53-28.26Z" style="fill:#bfbfbf"></path></clipPath><clipPath id="freepik--clip-path-2--inject-113"><path d="M107.86,348.59c-3.68.7-5.94-3.23-8.29-5.74,6.59-18.84,9.67-48.52,5.65-59.09-2-5.33-6-10-9-14.95-.88-1.45-1.77-3.19-.89-4.65s3.07-1.85,4.85-1.43a31.28,31.28,0,0,1,7.57,3.49l17.55-4.49c27-6.9,58.1-7,84.88.33-.74-3,4.9-4.84,7.74-3s2.79,5.74.81,8.29c-12.57,16.18-2.44,39,5.76,57.08,1,2.12,2,4.29,2.05,6.57.14,11-17.42,1.47-23.63,1.45C138.11,332.18,111.54,347.88,107.86,348.59Z" style="fill:#fff;stroke:#263238;stroke-linecap:round;stroke-linejoin:round"></path></clipPath><clipPath id="freepik--clip-path-3--inject-113"><path d="M167.63,374.12s10.69,1.19,23.26-6.44-24.83-11.4-24.83-11.4S154.93,369,167.63,374.12Z" style="fill:#92E3A9;stroke:#263238;stroke-linecap:round;stroke-linejoin:round"></path></clipPath><clipPath id="freepik--clip-path-4--inject-113"><path d="M240.13,331c-15,1.54-13.6,2.51-28.63,4a18.36,18.36,0,0,1,3.5-4.68c2.6-2.61,5.8-4.67,8.79-7.12,10.73-8.78,18.32-10.69,23.4-13.33C238.27,316.59,240.25,324.62,240.13,331Z" style="fill:#92E3A9;stroke:#263238;stroke-linecap:round;stroke-linejoin:round"></path></clipPath><clipPath id="freepik--clip-path-5--inject-113"><path d="M222.17,330.87s10.63-.79,13.9,9.05,5.87,28.3-10.34,30.92-22.92-30.18-3.56-40" style="fill:#92E3A9;stroke:#263238;stroke-linecap:round;stroke-linejoin:round"></path></clipPath><clipPath id="freepik--clip-path-6--inject-113"><path d="M222.17,330.87S210,342.51,212.25,355s12.11,15.83,12.11,15.83-31.56,4.24-55.46-.73,3.68-35.23,20.19-38.45S222.17,330.87,222.17,330.87Z" style="fill:#92E3A9;stroke:#263238;stroke-linecap:round;stroke-linejoin:round"></path></clipPath><clipPath id="freepik--clip-path-7--inject-113"><path d="M217.09,265.31c-1.22-.05-9,5.87-11.71,9.2-4.65,5.77-8.61,9.9-8.61,9.9s5.18,9.16,5.64,8.11,6.17-13.6,16-21.94Z" style="fill:#92E3A9;stroke:#263238;stroke-linecap:round;stroke-linejoin:round"></path></clipPath><clipPath id="freepik--clip-path-8--inject-113"><path d="M223.79,323.24c-3,2.45-6.19,4.51-8.79,7.12-3.73.4-16.72,1.94-21.53,4.28-27.7,13.52-25.84,39.48-25.84,39.48s-9.69,1.15-21.43-8.89c-7.47-6.39-5.91-32.74-3.26-45.43,2.42-11.61-5.91-30.44-9.85-59.16-1-7.13,5.34-18.36,11.59-21.94s43.81-2.8,49.69,4.34c3.84,4.67,7.78,16.53,9.61,22.29,4.38,13.79-3,23.32-1.89,37.74C203,315.05,223.79,323.24,223.79,323.24Z" style="fill:#92E3A9;stroke:#263238;stroke-linecap:round;stroke-linejoin:round"></path></clipPath><clipPath id="freepik--clip-path-9--inject-113"><path d="M157.28,237.73c.29-4.11-7.71-30.17-8.25-34.26-3.65,3.08-8.48,4.89-13.05,6.79a69.76,69.76,0,0,1-8.3,2.2s.31,7.93.64,11.49c1.28,14,4.77,36.69,4.77,36.69C133.31,261.26,155.92,257,157.28,237.73Z" style="fill:#92E3A9;stroke:#263238;stroke-linecap:round;stroke-linejoin:round"></path></clipPath><clipPath id="freepik--clip-path-10--inject-113"><path d="M124.5,213.71l-.26,7.6s21.69-4.13,26.45-11l.12-3.54L149,203.47s-18.1,8.29-21.35,9C123.28,213.42,124.5,213.71,124.5,213.71Z" style="fill:#92E3A9;stroke:#263238;stroke-linecap:round;stroke-linejoin:round"></path></clipPath></defs><g id="freepik--background-simple--inject-113"><path d="M476.65,336.45a137.15,137.15,0,0,1-8.6,37.93,132,132,0,0,1-25.14,41.5c-17.42,19.21-48.51,38.36-69.63,45.27C179.5,524.6,77,414.53,68.41,406.65c-16-14.69-29.06-37.17-37.13-62.54a190.52,190.52,0,0,1-5.19-19.94,217.63,217.63,0,0,1-.67-80.85,185.75,185.75,0,0,1,12.24-41c13.72-31.41,35-53.77,56.6-73.26C142,86,194,53,248.38,33.08c20.3-7.44,46-12.47,69-11.82a112.24,112.24,0,0,1,18.86,2c26.71,5.31,53.2,23.89,68.85,56.4,1.51,3.15,2.91,6.38,4.23,9.7,8.62,21.83,13.28,46.89,20.75,69.79,9.79,30,16.41,54.94,28.21,83.31S479.29,303.53,476.65,336.45Z" style="fill:#92E3A9"></path><g style="opacity:0.7000000000000001"><path d="M476.65,336.45a137.15,137.15,0,0,1-8.6,37.93,132,132,0,0,1-25.14,41.5c-17.42,19.21-48.51,38.36-69.63,45.27C179.5,524.6,77,414.53,68.41,406.65c-16-14.69-29.06-37.17-37.13-62.54a190.52,190.52,0,0,1-5.19-19.94,217.63,217.63,0,0,1-.67-80.85,185.75,185.75,0,0,1,12.24-41c13.72-31.41,35-53.77,56.6-73.26C142,86,194,53,248.38,33.08c20.3-7.44,46-12.47,69-11.82a112.24,112.24,0,0,1,18.86,2c26.71,5.31,53.2,23.89,68.85,56.4,1.51,3.15,2.91,6.38,4.23,9.7,8.62,21.83,13.28,46.89,20.75,69.79,9.79,30,16.41,54.94,28.21,83.31S479.29,303.53,476.65,336.45Z" style="fill:#fff"></path></g></g><g id="freepik--Bed--inject-113"><path d="M467.29,376.23a131.54,131.54,0,0,1-24.76,40.54C425.11,436,394,455.12,372.9,462,179.12,525.49,76.62,415.42,68,407.54,52,392.85,39,370.37,30.9,345l-.06-.19,266.53-28.26Z" style="fill:#bfbfbf"></path><g style="clip-path:url(#freepik--clip-path--inject-113)"><path d="M131.12,261.18c-9,10.84-9.1,26.35-8,40.39s2.75,29-3.77,41.5a.39.39,0,0,1-.34.2,38.33,38.33,0,0,1,9.33,6.92c1.21,1.13,2.43,2.95,1.47,4.31.71.29.32,2.28.77,2.89a1.48,1.48,0,0,1-.12,2,2.09,2.09,0,0,1-1.21.29l-4.33.18a1.38,1.38,0,0,0,1.38,1.36,19.06,19.06,0,0,1,7.32,1.68,7.48,7.48,0,0,1,4.26,5.84c.16,2.51-1.88,5.15-4.4,5.07,5.47-1.39,12.06.34,17.69.81A86.34,86.34,0,0,1,170,378.93a34.27,34.27,0,0,1,5.4,2.09,18.36,18.36,0,0,1,7,6.45c8.74-2.38,17.65-2.79,26.69-3.43,11.24-.78,22.94-.1,33,4.95,16.57,8.32,37.25.58,55.75,1.7,6.14.38,12.37.87,18.11,3.08,4.83,1.85,10.85.37,15.86,1.64,3.59.92,7.38,3,8.24,6.6,3.52-1.46,7.12-1.06,10.91-1.43l10.05-1c2.43-.24,5.11-.42,7.08,1,1.48,1.08,4.59.36,6.23-.45s3.26-1.87,5.09-2a18.92,18.92,0,0,0,2.82-.05,6,6,0,0,0,2.45-1.32,25.65,25.65,0,0,0,5.62-6.27,7.06,7.06,0,0,0,1.4-4.51c-.39-3-3.87-4.55-6.88-4.61-14.48,1-30.11,2.22-44.41-.22-18-3.06-34.9-11.51-53.09-12.62-5.62-.34-12.12-.14-17.73-.59l-10.29-.82c-2.85-.23-5.79-.48-8.31-1.84-7.4-4-18.1-1.69-25.88-4.91s-14.95-8.77-18.29-16.51a49,49,0,0,1-2.67-9.57l-3-14.68c-1.34-6.49-2.59-12.5-5-18.69-3.45-9-7-18.32-13.68-25.35C177.07,269.84,170,266,163,262.22a27.78,27.78,0,0,0-5.86-2.58,27.37,27.37,0,0,0-8.48-.41C143.2,259.53,136.55,260.88,131.12,261.18Z" style="opacity:0.2"></path></g><path d="M25,244.21c105.89-3,271.41-7.63,272.33-7.58,1.36.07,0,79.92,0,79.92L30.9,345" style="fill:none;stroke:#263238;stroke-linecap:round;stroke-linejoin:round"></path><polyline points="30.9 345 297.37 316.55 467.67 375.27" style="fill:none;stroke:#263238;stroke-linecap:round;stroke-linejoin:round"></polyline><path d="M107.86,348.59c-3.68.7-5.94-3.23-8.29-5.74,6.59-18.84,9.67-48.52,5.65-59.09-2-5.33-6-10-9-14.95-.88-1.45-1.77-3.19-.89-4.65s3.07-1.85,4.85-1.43a31.28,31.28,0,0,1,7.57,3.49l17.55-4.49c27-6.9,58.1-7,84.88.33-.74-3,4.9-4.84,7.74-3s2.79,5.74.81,8.29c-12.57,16.18-2.44,39,5.76,57.08,1,2.12,2,4.29,2.05,6.57.14,11-17.42,1.47-23.63,1.45C138.11,332.18,111.54,347.88,107.86,348.59Z" style="fill:#fff"></path><g style="clip-path:url(#freepik--clip-path-2--inject-113)"><path d="M131.12,261.18c-9,10.84-9.1,26.35-8,40.39s2.75,29-3.77,41.5a.39.39,0,0,1-.34.2,38.33,38.33,0,0,1,9.33,6.92c1.21,1.13,2.43,2.95,1.47,4.31.71.29.32,2.28.77,2.89a1.48,1.48,0,0,1-.12,2,2.09,2.09,0,0,1-1.21.29l-4.33.18a1.38,1.38,0,0,0,1.38,1.36,19.06,19.06,0,0,1,7.32,1.68,7.48,7.48,0,0,1,4.26,5.84c.16,2.51-1.88,5.15-4.4,5.07,5.47-1.39,12.06.34,17.69.81A86.34,86.34,0,0,1,170,378.93a34.27,34.27,0,0,1,5.4,2.09,18.36,18.36,0,0,1,7,6.45c8.74-2.38,17.65-2.79,26.69-3.43,11.24-.78,22.94-.1,33,4.95,16.57,8.32,37.25.58,55.75,1.7,6.14.38,12.37.87,18.11,3.08,4.83,1.85,10.85.37,15.86,1.64,3.59.92,7.38,3,8.24,6.6,3.52-1.46,7.12-1.06,10.91-1.43l10.05-1c2.43-.24,5.11-.42,7.08,1,1.48,1.08,4.59.36,6.23-.45s3.26-1.87,5.09-2a18.92,18.92,0,0,0,2.82-.05,6,6,0,0,0,2.45-1.32,25.65,25.65,0,0,0,5.62-6.27,7.06,7.06,0,0,0,1.4-4.51c-.39-3-3.87-4.55-6.88-4.61-14.48,1-30.11,2.22-44.41-.22-18-3.06-34.9-11.51-53.09-12.62-5.62-.34-12.12-.14-17.73-.59l-10.29-.82c-2.85-.23-5.79-.48-8.31-1.84-7.4-4-18.1-1.69-25.88-4.91s-14.95-8.77-18.29-16.51a49,49,0,0,1-2.67-9.57l-3-14.68c-1.34-6.49-2.59-12.5-5-18.69-3.45-9-7-18.32-13.68-25.35C177.07,269.84,170,266,163,262.22a27.78,27.78,0,0,0-5.86-2.58,27.37,27.37,0,0,0-8.48-.41C143.2,259.53,136.55,260.88,131.12,261.18Z" style="opacity:0.2"></path></g><path d="M107.86,348.59c-3.68.7-5.94-3.23-8.29-5.74,6.59-18.84,9.67-48.52,5.65-59.09-2-5.33-6-10-9-14.95-.88-1.45-1.77-3.19-.89-4.65s3.07-1.85,4.85-1.43a31.28,31.28,0,0,1,7.57,3.49l17.55-4.49c27-6.9,58.1-7,84.88.33-.74-3,4.9-4.84,7.74-3s2.79,5.74.81,8.29c-12.57,16.18-2.44,39,5.76,57.08,1,2.12,2,4.29,2.05,6.57.14,11-17.42,1.47-23.63,1.45C138.11,332.18,111.54,347.88,107.86,348.59Z" style="fill:none;stroke:#263238;stroke-linecap:round;stroke-linejoin:round"></path><path d="M121.64,391.81a420.06,420.06,0,0,0,120.52-14.46" style="fill:none;stroke:#263238;stroke-linecap:round;stroke-linejoin:round"></path><path d="M229.67,414.62C255.53,411,284,404.57,324.82,391.7c20.46-6.46,33.2-1.46,23,6.12" style="fill:none;stroke:#263238;stroke-linecap:round;stroke-linejoin:round"></path><path d="M215.68,416.33q3.66-.39,7.36-.84" style="fill:none;stroke:#263238;stroke-linecap:round;stroke-linejoin:round"></path><path d="M190.43,418.37c7.12-.44,14.07-.95,21-1.62" style="fill:none;stroke:#263238;stroke-linecap:round;stroke-linejoin:round"></path><path d="M275.78,421.3c19.33-3.06,51.29-11.83,67.9-20.6" style="fill:none;stroke:#263238;stroke-linecap:round;stroke-linejoin:round"></path><path d="M252.16,449.35a514.47,514.47,0,0,0,121.49-40.18" style="fill:none;stroke:#263238;stroke-linecap:round;stroke-linejoin:round"></path><path d="M336.53,439.94q-4.93,1.47-9.9,2.76" style="fill:none;stroke:#263238;stroke-linecap:round;stroke-linejoin:round"></path><path d="M381.93,405.68A64.59,64.59,0,0,1,412,396.73c1.5-.06,3.28.07,4.07,1.35,1.15,1.88-.89,4.08-2.71,5.32a278.24,278.24,0,0,1-69.57,34.27" style="fill:none;stroke:#263238;stroke-linecap:round;stroke-linejoin:round"></path><path d="M129.69,374.47s49.14,1.2,94.67-3.68" style="fill:none;stroke:#263238;stroke-linecap:round;stroke-linejoin:round"></path><path d="M123.24,361.51a65.64,65.64,0,0,1,24.63,4.93" style="fill:none;stroke:#263238;stroke-linecap:round;stroke-linejoin:round"></path></g><g id="freepik--night-table--inject-113"><path d="M475.72,314.17,385.6,323l-76.72-23,96.82-7s67.1,20.76,70,21.11Z" style="fill:#fff;stroke:#263238;stroke-linecap:round;stroke-linejoin:round"></path><polygon points="475.73 314.17 475.73 321.51 384.52 333.02 308.88 309.1 308.88 300.05 385.6 323.03 475.72 314.17 475.73 314.17" style="fill:#fff;stroke:#263238;stroke-linecap:round;stroke-linejoin:round"></polygon><polygon points="311.45 309.92 311.45 321.44 384.99 347.11 467.67 375.27 467.67 322.53 384.52 333.02 311.45 309.92" style="fill:#263238;stroke:#263238;stroke-linecap:round;stroke-linejoin:round"></polygon></g><g id="freepik--Character--inject-113"><path d="M227.87,221.39l-2.63-.42a2.82,2.82,0,0,0-3.23,2.34l-3.77,23.87a2.82,2.82,0,0,0,2.34,3.23l2.63.41Z" style="fill:#263238"></path><path d="M227.87,221.39l-2.63-.42a2.82,2.82,0,0,0-3.23,2.34l-3.77,23.87a2.82,2.82,0,0,0,2.34,3.23l2.63.41Z" style="fill:#92E3A9;stroke:#263238;stroke-linecap:round;stroke-linejoin:round"></path><rect x="222.02" y="221.87" width="15.54" height="29.81" rx="2.57" transform="translate(39.86 -33.02) rotate(9)" style="fill:#263238;stroke:#263238;stroke-linecap:round;stroke-linejoin:round"></rect><rect x="231.72" y="224.66" width="5.17" height="5.17" rx="1.02" transform="translate(38.42 -33.84) rotate(9)" style="fill:#263238"></rect><rect x="231.72" y="224.66" width="5.17" height="5.17" rx="1.02" transform="translate(38.42 -33.84) rotate(9)" style="fill:#fff;opacity:0.5"></rect><path d="M234.14,226.23a.7.7,0,0,1-.8.58.69.69,0,0,1-.58-.79.71.71,0,0,1,.8-.58A.69.69,0,0,1,234.14,226.23Z" style="fill:#263238"></path><path d="M236,227.51a.7.7,0,1,1-.58-.8A.7.7,0,0,1,236,227.51Z" style="fill:#263238"></path><path d="M233.74,228.29a.69.69,0,1,1-.58-.79A.69.69,0,0,1,233.74,228.29Z" style="fill:#263238"></path><path d="M232.37,260.33s-2.15-3.74-2.37-4.46c-1.57-5.09,2.58-8.62,2.58-8.62s-1.57,3.19-4,1.22c-1.51-1.25,2.59-5.76,2.59-5.76s-2-3.8,3.08-6.34c0,0-4.19-2.16-2.28-5.17.77-1.2,13.2,5,13.26,9.49.08,5.5-5,21.32-5,21.32-.58,3.52-7.32,30.42-15.89,40.6-10.81,12.83-13.93-.09-15.44-2.9,0,0-14.7-30.28-19.64-41.21a23.76,23.76,0,0,1-2.51-8.14c-.16-2.85,2.71-7.18,5.12-8.71,4.56.4,8.33,3.78,11,7.5,1.82,2.57,9.77,20.42,15.33,32.52C223.84,273.4,231.43,262.39,232.37,260.33Z" style="fill:#fff;stroke:#263238;stroke-linecap:round;stroke-linejoin:round"></path><path d="M236.63,248.7c.1-2-3.69-7.42-6.54-4.44" style="fill:none;stroke:#263238;stroke-linecap:round;stroke-linejoin:round"></path><path d="M238.91,244.45s-4.34-6.39-7.64-2.94" style="fill:none;stroke:#263238;stroke-linecap:round;stroke-linejoin:round"></path><path d="M240.13,240.11s-2.27-1.78-2.78-2.11c-1.9-1.23-3.94-2.6-5-3.16" style="fill:none;stroke:#263238;stroke-linecap:round;stroke-linejoin:round"></path><path d="M242.59,236.08l-4.06-4.82s-.82,1.84-.58,2A8.6,8.6,0,0,1,242.59,236.08Z" style="fill:#fff;stroke:#263238;stroke-linecap:round;stroke-linejoin:round"></path><path d="M216,299.42c-.89-4.49,0-12.09,2.34-17.21" style="fill:none;stroke:#263238;stroke-linecap:round;stroke-linejoin:round"></path><path d="M372.15,375.33s-2.26,4.4-16.68,5.31c-3.42.22-12.11-.41-20.74,1.69-6.93,1.68-6.4-9.07-5.78-10.39-8-4.19-35.27-23.51-40.74-28.09-2.27-1.9-9.92-11.07-11.07-14.63-16.91,11.93-48,32.84-48,32.84s-43.36,13-30.87-24.88c0,0,66.67-38.63,77.06-38.57a22.67,22.67,0,0,1,6.56,1,13.83,13.83,0,0,1,6.82,4.56c.1-.06,37.75,45.58,49.29,59.58a16.53,16.53,0,0,0,11,6c4,.41,8.49.49,12,.94C372.53,372.1,372.15,375.33,372.15,375.33Z" style="fill:#fff;stroke:#263238;stroke-linecap:round;stroke-linejoin:round"></path><path d="M167.63,374.12s10.69,1.19,23.26-6.44-24.83-11.4-24.83-11.4S154.93,369,167.63,374.12Z" style="fill:#92E3A9"></path><g style="clip-path:url(#freepik--clip-path-3--inject-113)"><path d="M179.3,345.83a34.36,34.36,0,0,0-6.06,17.9,9.25,9.25,0,0,0,1.12,5.69,5.48,5.48,0,0,0,6.07,2.1,20.37,20.37,0,0,1-11.57,2.64,12,12,0,0,1-.25-6.75,64.45,64.45,0,0,1,9.86-21.85c.2.41-.38.91-.76.67" style="fill:#263238;opacity:0.2"></path></g><path d="M167.63,374.12s10.69,1.19,23.26-6.44-24.83-11.4-24.83-11.4S154.93,369,167.63,374.12Z" style="fill:none;stroke:#263238;stroke-linecap:round;stroke-linejoin:round"></path><path d="M240.13,331c-15,1.54-13.6,2.51-28.63,4a18.36,18.36,0,0,1,3.5-4.68c2.6-2.61,5.8-4.67,8.79-7.12,10.73-8.78,18.32-10.69,23.4-13.33C238.27,316.59,240.25,324.62,240.13,331Z" style="fill:#92E3A9"></path><g style="clip-path:url(#freepik--clip-path-4--inject-113)"><path d="M224,323.38c-1.56,1.34-1.32,3.95,0,5.56s3.23,2.48,5.12,3.28c-2.56-.36-5.19-1.57-7.69-2.2s-5.54-.43-7.17,1.57A27.65,27.65,0,0,1,224,323.38Z" style="fill:#263238;opacity:0.2"></path></g><path d="M240.13,331c-15,1.54-13.6,2.51-28.63,4a18.36,18.36,0,0,1,3.5-4.68c2.6-2.61,5.8-4.67,8.79-7.12,10.73-8.78,18.32-10.69,23.4-13.33C238.27,316.59,240.25,324.62,240.13,331Z" style="fill:none;stroke:#263238;stroke-linecap:round;stroke-linejoin:round"></path><path d="M222.17,330.87s10.63-.79,13.9,9.05,5.87,28.3-10.34,30.92-22.92-30.18-3.56-40" style="fill:#92E3A9"></path><g style="clip-path:url(#freepik--clip-path-5--inject-113)"><path d="M222.17,330.87s10.63-.79,13.9,9.05,5.87,28.3-10.34,30.92-22.92-30.18-3.56-40" style="fill:#263238;opacity:0.2"></path></g><path d="M222.17,330.87s10.63-.79,13.9,9.05,5.87,28.3-10.34,30.92-22.92-30.18-3.56-40" style="fill:none;stroke:#263238;stroke-linecap:round;stroke-linejoin:round"></path><path d="M397.12,359.2a4.19,4.19,0,0,1-1.24,2.45,8,8,0,0,1-1.11.87c-.86.58-1.87,1.19-2,1.3l0,0c-.79,2.72-3,7-9.12,12.3-2.52,2.16-5.7,9.71-7.26,12.64s-2.74,6.67-6.54,6.51c-3-.14-8-2.82-11.29-6l0,0c-41.92-14-67.64-7.89-91.1-33.05,0,0-7.49,1.95-20.17,5.69a197.49,197.49,0,0,1-78.28,7.75c-33.71-3.19-22.21.09-6.7-32,1.38-2.87,44.88-2.19,103-9,10.73-1.25,15.49,5.45,15.49,5.45,26.79,14.57,54.63,31.78,75.43,39.7a11.49,11.49,0,0,0,11.31-1.76c3.56-2.87,6.5-5.86,9.68-8h0l1.69-2.56a7.47,7.47,0,0,1,2.45-2.33,1.2,1.2,0,0,1,1.17.93,5,5,0,0,1,1-1.46,1.45,1.45,0,0,1,1.55-.49,1.18,1.18,0,0,1,.58.52,4.53,4.53,0,0,1,1.41-1.29,1.36,1.36,0,0,1,1.61.29,1.28,1.28,0,0,1,.22.57c.75-.94,1.66-1.74,2.48-1.61a1.6,1.6,0,0,1,1.1.83,2,2,0,0,1-.07,1.37c1-1.38,2.5-2.78,3.77-2.11a2.26,2.26,0,0,1,1.08,1.77s0,0,0,0A2.74,2.74,0,0,1,397.12,359.2Z" style="fill:#fff;stroke:#263238;stroke-linecap:round;stroke-linejoin:round"></path><path d="M392.72,363.82c.18-.11,1.19-.72,2-1.3A8.39,8.39,0,0,1,392.72,363.82Z" style="fill:#fff;stroke:#263238;stroke-linecap:round;stroke-linejoin:round"></path><path d="M396,356.77c-1.26-.62-2.7.75-3.73,2.12a2,2,0,0,0,.07-1.37,1.6,1.6,0,0,0-1.1-.83c-.82-.13-1.73.67-2.48,1.61a1.28,1.28,0,0,0-.22-.57,1.36,1.36,0,0,0-1.61-.29,4.53,4.53,0,0,0-1.41,1.29,1.18,1.18,0,0,0-.58-.52,1.45,1.45,0,0,0-1.55.49,5,5,0,0,0-1,1.46,1.2,1.2,0,0,0-1.17-.93,7.19,7.19,0,0,1,1.52-.68,71.91,71.91,0,0,1,8.45-2.1C393.5,356.07,395,356.25,396,356.77Z" style="fill:#fff;stroke:#263238;stroke-linecap:round;stroke-linejoin:round"></path><path d="M396.08,356.82l-.1-.05h0Z" style="fill:#fff;stroke:#263238;stroke-linecap:round;stroke-linejoin:round"></path><path d="M396.08,356.82a2,2,0,0,1,1,1.73A2.28,2.28,0,0,0,396.08,356.82Z" style="fill:#fff;stroke:#263238;stroke-linecap:round;stroke-linejoin:round"></path><path d="M390.87,361a.05.05,0,0,1,0,0" style="fill:none;stroke:#263238;stroke-linecap:round;stroke-linejoin:round"></path><path d="M389.57,362.61c.36-.45.83-1,1.27-1.52a.05.05,0,0,0,0,0,8.18,8.18,0,0,0,1.25-1.79,2.6,2.6,0,0,0,.13-.36" style="fill:none;stroke:#263238;stroke-linecap:round;stroke-linejoin:round"></path><path d="M388.74,358.3a2.78,2.78,0,0,1-.07.86s-.59.94-2.28,3.31" style="fill:none;stroke:#263238;stroke-linecap:round;stroke-linejoin:round"></path><path d="M385.5,358.73a1.89,1.89,0,0,1,0,1.83,20.67,20.67,0,0,0-1.61,2.42" style="fill:none;stroke:#263238;stroke-linecap:round;stroke-linejoin:round"></path><path d="M382.4,360.16l-.06.13" style="fill:none;stroke:#263238;stroke-linecap:round;stroke-linejoin:round"></path><path d="M382.4,360.16a3.75,3.75,0,0,1-1.16,3" style="fill:none;stroke:#263238;stroke-linecap:round;stroke-linejoin:round"></path><line x1="381.23" y1="359.23" x2="381.22" y2="359.23" style="fill:none;stroke:#263238;stroke-linecap:round;stroke-linejoin:round"></line><path d="M222.17,330.87S210,342.51,212.25,355s12.11,15.83,12.11,15.83-31.56,4.24-55.46-.73,3.68-35.23,20.19-38.45S222.17,330.87,222.17,330.87Z" style="fill:#92E3A9"></path><g style="clip-path:url(#freepik--clip-path-6--inject-113)"><path d="M179.3,345.83a34.36,34.36,0,0,0-6.06,17.9,9.25,9.25,0,0,0,1.12,5.69,5.48,5.48,0,0,0,6.07,2.1,20.37,20.37,0,0,1-11.57,2.64,12,12,0,0,1-.25-6.75,64.45,64.45,0,0,1,9.86-21.85c.2.41-.38.91-.76.67" style="fill:#263238;opacity:0.2"></path></g><path d="M222.17,330.87S210,342.51,212.25,355s12.11,15.83,12.11,15.83-31.56,4.24-55.46-.73,3.68-35.23,20.19-38.45S222.17,330.87,222.17,330.87Z" style="fill:none;stroke:#263238;stroke-linecap:round;stroke-linejoin:round"></path><path d="M193.34,242.74c9.17.16,23.55,28.37,23.55,28.37-7.2,5.75-13.59,12.23-14.48,21.41-4.72-6.46-8.6-10-11.94-17.32s-5.29-15.37-4.27-23.3C186.66,248.33,190.33,244.72,193.34,242.74Z" style="fill:#92E3A9;stroke:#263238;stroke-linecap:round;stroke-linejoin:round"></path><path d="M217.09,265.31c-1.22-.05-9,5.87-11.71,9.2-4.65,5.77-8.61,9.9-8.61,9.9s5.18,9.16,5.64,8.11,6.17-13.6,16-21.94Z" style="fill:#92E3A9"></path><g style="clip-path:url(#freepik--clip-path-7--inject-113)"><path d="M217.09,265.31c-1.22-.05-9,5.87-11.71,9.2-4.65,5.77-8.61,9.9-8.61,9.9s5.18,9.16,5.64,8.11,6.17-13.6,16-21.94Z" style="fill:#fff;opacity:0.30000000000000004"></path></g><path d="M217.09,265.31c-1.22-.05-9,5.87-11.71,9.2-4.65,5.77-8.61,9.9-8.61,9.9s5.18,9.16,5.64,8.11,6.17-13.6,16-21.94Z" style="fill:none;stroke:#263238;stroke-linecap:round;stroke-linejoin:round"></path><path d="M223.79,323.24c-3,2.45-6.19,4.51-8.79,7.12-3.73.4-16.72,1.94-21.53,4.28-27.7,13.52-25.84,39.48-25.84,39.48s-9.69,1.15-21.43-8.89c-7.47-6.39-5.91-32.74-3.26-45.43,2.42-11.61-5.91-30.44-9.85-59.16-1-7.13,5.34-18.36,11.59-21.94s43.81-2.8,49.69,4.34c3.84,4.67,7.78,16.53,9.61,22.29,4.38,13.79-3,23.32-1.89,37.74C203,315.05,223.79,323.24,223.79,323.24Z" style="fill:#92E3A9"></path><g style="clip-path:url(#freepik--clip-path-8--inject-113)"><path d="M128.29,215.39A136.71,136.71,0,0,0,136,240.16a9.71,9.71,0,0,0,2.93,4.38c1.45,1,3.77,1.07,4.78-.4-2.42,2.79-5,5.9-5.08,9.6-.09,2.84,1.29,5.5,2.64,8,5.8,10.79,12.53,22.43,24,26.68,2,.75,4.25,1.34,5.49,3.08,1.41,2,1,4.65,1.26,7.05s2.23,5.17,4.54,4.43a15.89,15.89,0,0,0-13.12,10.12,53.51,53.51,0,0,1,29-.88c-4.16,1.91-8.88,2.14-13.46,2.33s-9.29.43-13.44,2.37-7.65,6-7.47,10.6a146.06,146.06,0,0,1,37.53-10.4c-4.52,3.79-10.76,4.5-16.5,5.81s-12,3.95-14.06,9.47a286.34,286.34,0,0,1,42.7-12.87c-.15,2-.29,4.08-.44,6.12a44.39,44.39,0,0,0-33.41,10.75c-9,8,4.1-2.22,3.83,9.82,0,1.66-8.73,26.93-10.08,27.89-1.11.78-12.61-.78-13.94-1-9.57-1.87-20-4.25-26-11.95-4.7-6.05-5.62-14.14-6.27-21.77a866.88,866.88,0,0,1-2.13-114.64c.16-3.34.4-6.87,2.28-9.64s6-4.3,8.67-2.28c-.42.64-.85,1.27-1.27,1.9l-1.41-1.47" style="fill:#263238;opacity:0.2"></path><path d="M157.87,251.51c.1,2.37-1.19,4.54-2.17,6.7S154,263,155.24,265c1,1.62,2.88,2.39,4.66,3a126.45,126.45,0,0,0,14.65,4.13,27.25,27.25,0,0,0-11.38,10.65,44.82,44.82,0,0,1,19.21,11.51l-1.62,2.36,7.79-3.09-22.72-11.35,11.39-11.13-15.11-6.29c-1.6-.67-3.31-1.42-4.25-2.88-1.62-2.49-.34-5.78.95-8.45" style="fill:#263238;opacity:0.2"></path><path d="M197.73,285.31a6.43,6.43,0,0,1,2.85,4.95,3.61,3.61,0,0,1-.54,2.68,4.15,4.15,0,0,1-3,1.14,29.8,29.8,0,0,1-8.48-.53C190.24,293.89,191.32,281.64,197.73,285.31Z" style="fill:#263238;opacity:0.2"></path></g><path d="M223.79,323.24c-3,2.45-6.19,4.51-8.79,7.12-3.73.4-16.72,1.94-21.53,4.28-27.7,13.52-25.84,39.48-25.84,39.48s-9.69,1.15-21.43-8.89c-7.47-6.39-5.91-32.74-3.26-45.43,2.42-11.61-5.91-30.44-9.85-59.16-1-7.13,5.34-18.36,11.59-21.94s43.81-2.8,49.69,4.34c3.84,4.67,7.78,16.53,9.61,22.29,4.38,13.79-3,23.32-1.89,37.74C203,315.05,223.79,323.24,223.79,323.24Z" style="fill:none;stroke:#263238;stroke-linecap:round;stroke-linejoin:round"></path><path d="M192.06,185.26c-2.08,3-3.83,4.51-7.47,4.11s-7.67-1.84-10-4.73c-6,1.19-23.39,8.15-26.7,12.29,1.41,13.57,6.24,44.46,6.24,44.46-1.91,3.06-14.79,16.72-18.19,11.87-7.59-53.94-6.76-63.24-6.71-63.63,1.56-14.27,48.7-12.82,48.7-12.82S189.27,177.2,192.06,185.26Z" style="fill:#fff;stroke:#263238;stroke-linecap:round;stroke-linejoin:round"></path><path d="M186.65,250.28c-7-3.54-8.19-9.8-4-20.41-5.6-1.61-12.42-6.36-17.62-9,.11,1.69-2.08,13.18-3.81,16.54-.92,1.79-1.59,4.38-.81,6.24a36,36,0,0,0,4.91,7.47c6.18,6.37,19.74,29.51,19.74,29.51C187.39,275.83,191.42,252.7,186.65,250.28Z" style="fill:#fff;stroke:#263238;stroke-linecap:round;stroke-linejoin:round"></path><path d="M157.28,237.73c.29-4.11-7.71-30.17-8.25-34.26-3.65,3.08-8.48,4.89-13.05,6.79a69.76,69.76,0,0,1-8.3,2.2s.31,7.93.64,11.49c1.28,14,4.77,36.69,4.77,36.69C133.31,261.26,155.92,257,157.28,237.73Z" style="fill:#92E3A9"></path><g style="clip-path:url(#freepik--clip-path-9--inject-113)"><path d="M130.4,220.4q3.91,15.71,7.81,31.42a9.44,9.44,0,0,0,1.91,4.34,4.74,4.74,0,0,0,3.62,1.44,64,64,0,0,1-10.43,3.26c-3.36-13.25-5.56-26.1-5.56-39.77C128.46,220.85,129.69,220.64,130.4,220.4Z" style="fill:#263238;opacity:0.2"></path></g><path d="M157.28,237.73c.29-4.11-7.71-30.17-8.25-34.26-3.65,3.08-8.48,4.89-13.05,6.79a69.76,69.76,0,0,1-8.3,2.2s.31,7.93.64,11.49c1.28,14,4.77,36.69,4.77,36.69C133.31,261.26,155.92,257,157.28,237.73Z" style="fill:none;stroke:#263238;stroke-linecap:round;stroke-linejoin:round"></path><path d="M165.2,225.68s2.32,10.22,8,12.73,11.29-3.72,11.29-3.72S174.34,237.13,165.2,225.68Z" style="fill:#263238"></path><path d="M160.13,206.65s6.69,3.3,11.44-3.81c2.05-3.08,6.23-9.51,6.23-9.51a5.27,5.27,0,0,1,.14.6,6.59,6.59,0,0,0,6.11,5.72c2,.09,3.57.23,3.57.23a18,18,0,0,1,9.51,5c-.8,2.34-1.34,6.06-1.81,13.85-.62,10.18-5.74,12.53-10.82,15.92s-14.14,4.94-21.06-16c0,0-9.12-4.32-3.87-11.29Z" style="fill:#fff;stroke:#263238;stroke-linecap:round;stroke-linejoin:round"></path><path d="M184.42,205.9c-6.36-1.83-9.48,1.22-9.48,1.22" style="fill:none;stroke:#263238;stroke-linecap:round;stroke-linejoin:round"></path><path d="M195,209.56a7.39,7.39,0,0,0-5.29-2.66" style="fill:none;stroke:#263238;stroke-linecap:round;stroke-linejoin:round"></path><path d="M185.93,221.51c.85,0,3.36-1,3.7-2.57a1.55,1.55,0,0,0-.7-1.39c-2-1.72-2.15-4-1.74-6.56l.05-.29" style="fill:none;stroke:#263238;stroke-linecap:round;stroke-linejoin:round"></path><path d="M179.63,208.1c-.61-.13-1.33.84-1.61,2.14s0,2.48.6,2.61,1.32-.83,1.6-2.14S180.23,208.23,179.63,208.1Z" style="fill:#263238"></path><path d="M190,212.85c-.27,1.28,0,2.43.58,2.55s1.3-.81,1.57-2.09,0-2.43-.58-2.56S190.24,211.57,190,212.85Z" style="fill:#263238"></path><path d="M166.88,212s1-2.28.2-3.6" style="fill:none;stroke:#263238;stroke-linecap:round;stroke-linejoin:round"></path><path d="M183.87,224.62a4,4,0,0,0-3.17.45,1.84,1.84,0,0,0-.23,2.82,1.89,1.89,0,0,0,2.41-.49,5.56,5.56,0,0,0,1-2.48Z" style="fill:#263238"></path><path d="M159.05,239.22c-.05,8.83.31,13.72-2.62,23.16,0,0,14.75,8.17,19.78,9-4.77,2.28-9.75,7.22-13,11.42l1.07.49c7.81,3.53,23.9,10.07,23.9,10.07-2.24-15.52-11.8-32.55-23.53-43a18,18,0,0,1-3.94-11.88C160.88,235.53,159.05,239.22,159.05,239.22Z" style="fill:#92E3A9;stroke:#263238;stroke-linecap:round;stroke-linejoin:round"></path><path d="M177.64,186.28c-3-2-7.09-1.59-10.25.11s-5.56,4.52-7.73,7.37c-4.2,5.54-8,12-7.66,18.93.22,4.79,1.93,11.18,3.51,15.71s2.43,16.66.4,21c.36-.27,2.88-1.64,4-2.47,3.35-2.51,2.07-5.14,2.07-5.14,2.23-.75,2.66-1.29,3.2-3a4.68,4.68,0,0,0-1.55-5c3.29.33,4.33-3.91,2.82-4.93l-1.78-4.61s-1.21-5.58,1.29-7.49c3.83-2.91,7.53-9.74,8.85-14.36A84.34,84.34,0,0,0,177.22,187Z" style="fill:#263238"></path><path d="M181.22,239.63a20.31,20.31,0,0,0,2.09,9.05,31.74,31.74,0,0,1,4.11,13.65,45.68,45.68,0,0,1-2.54,17.88c1.38,4.49,2.57,8.81,3.62,13.39a111.74,111.74,0,0,1,10.42-17s-4.26-4.81-6.86-6.41c2-2.28,3.3-3.46,4.69-6.13C196.75,264.06,189.47,245.11,181.22,239.63Z" style="fill:#92E3A9;stroke:#263238;stroke-linecap:round;stroke-linejoin:round"></path><path d="M176.33,195.89c2.35,3.43,6.48,5.21,10.55,6.05,3,.61,7.68,2.48,9.77,4.69a53.34,53.34,0,0,0-1.1,8.74c-.07,7.46-1.59,12.57-8.19,17.44a26.78,26.78,0,0,1-6.74,3.45c.19,2.68.92,8.55,3.54,9.46,3.71,1.27,6.29-1.19,6.48-3.07-3.91,2.48-5.22-.23-4.9-1.21,2.25-2.28,3.79-.09,5.66-1.27,3.6-2.28,2.48-4.63,2.48-4.63-3.67,3.25-5.41.43-4.63-.53.5-1.35,5.81-.75,8.29-3.68,5.06-6,1.64-7.61,2.69-12.26,1.22-5.43,4.17-11.73,2.58-16.22-1.51-4.3-5.21-13.63-10.55-16.48-4.86-2.59-13.74-6.74-16.69-1C173.79,188.78,176.33,195.89,176.33,195.89Z" style="fill:#263238"></path><path d="M167.77,234.54s2,8.83,5.19,11.9" style="fill:none;stroke:#263238;stroke-linecap:round;stroke-linejoin:round"></path><path d="M181.6,265.52c2.06,5,2.52,7.54,2.29,12.25" style="fill:none;stroke:#263238;stroke-linecap:round;stroke-linejoin:round"></path><path d="M124.5,213.71l-.26,7.6s21.69-4.13,26.45-11l.12-3.54L149,203.47s-18.1,8.29-21.35,9C123.28,213.42,124.5,213.71,124.5,213.71Z" style="fill:#92E3A9"></path><g style="clip-path:url(#freepik--clip-path-10--inject-113)"><path d="M124.5,213.71l-.26,7.6s21.69-4.13,26.45-11l.12-3.54L149,203.47s-18.1,8.29-21.35,9C123.28,213.42,124.5,213.71,124.5,213.71Z" style="fill:#fff;opacity:0.30000000000000004"></path></g><path d="M124.5,213.71l-.26,7.6s21.69-4.13,26.45-11l.12-3.54L149,203.47s-18.1,8.29-21.35,9C123.28,213.42,124.5,213.71,124.5,213.71Z" style="fill:none;stroke:#263238;stroke-linecap:round;stroke-linejoin:round"></path><path d="M188.22,293.37c-1.71,4-.6,12.38,1.81,16a4.1,4.1,0,0,1,2.22,4,7.48,7.48,0,0,0,2.29,5.75l.54.46c.16,1.44-.61,3.84-.45,5.27.81,0,1.59-.08,2.35-.16a4.1,4.1,0,0,1,4.35,5.54l0,.05c1.15.76.57-.49,1.15.76" style="fill:none;stroke:#263238;stroke-linecap:round;stroke-linejoin:round"></path><path d="M157.28,343.49a115.5,115.5,0,0,1,49-20.85" style="fill:none;stroke:#263238;stroke-linecap:round;stroke-linejoin:round"></path><path d="M146.2,353.08q2.79-2.79,5.78-5.35" style="fill:none;stroke:#263238;stroke-linecap:round;stroke-linejoin:round"></path><path d="M161.82,324.62a109.56,109.56,0,0,1,26-6.35" style="fill:none;stroke:#263238;stroke-linecap:round;stroke-linejoin:round"></path><path d="M181.89,308.82a111.76,111.76,0,0,0,14.41,0" style="fill:none;stroke:#263238;stroke-linecap:round;stroke-linejoin:round"></path><path d="M173.86,308c1.75.23,3.5.43,5.26.58" style="fill:none;stroke:#263238;stroke-linecap:round;stroke-linejoin:round"></path><path d="M287,303.54a9.13,9.13,0,0,1,3.41,5.81" style="fill:none;stroke:#263238;stroke-linecap:round;stroke-linejoin:round"></path><path d="M148,191.12A76.89,76.89,0,0,0,149,203.47" style="fill:none;stroke:#263238;stroke-linecap:round;stroke-linejoin:round"></path><path d="M280,335.13l3,4.15" style="fill:none;stroke:#263238;stroke-linecap:round;stroke-linejoin:round"></path><path d="M163,247.61a34.69,34.69,0,0,0,11.26,2.18" style="fill:none;stroke:#263238;stroke-linecap:round;stroke-linejoin:round"></path><path d="M173.37,355c8.55.51,34.19.32,34.19.32" style="fill:none;stroke:#263238;stroke-linecap:round;stroke-linejoin:round"></path></g><g id="freepik--Calendar--inject-113"><path d="M325.92,184.1h29.65a4,4,0,0,1,4,4v36.73H321.92V188.09A4,4,0,0,1,325.92,184.1Z" style="fill:#92E3A9;stroke:#263238;stroke-linecap:round;stroke-linejoin:round"></path><rect x="323.27" y="191.05" width="37.64" height="33.77" transform="translate(684.19 415.87) rotate(180)" style="fill:#fff;stroke:#263238;stroke-linecap:round;stroke-linejoin:round"></rect><path d="M323.27,184.1h37.64a0,0,0,0,1,0,0v1A5.91,5.91,0,0,1,355,191H329.19a5.91,5.91,0,0,1-5.91-5.91v-1A0,0,0,0,1,323.27,184.1Z" transform="translate(684.19 375.14) rotate(180)" style="fill:#263238;stroke:#263238;stroke-linecap:round;stroke-linejoin:round"></path><path d="M323.27,191.05h37.65a110.9,110.9,0,0,0,3.18,31.67H326S323,211.28,323.27,191.05Z" style="fill:#fff;stroke:#263238;stroke-linecap:round;stroke-linejoin:round"></path><path d="M355.08,187.57a1.38,1.38,0,1,0,1.38-1.38A1.38,1.38,0,0,0,355.08,187.57Z" style="fill:#92E3A9;stroke:#263238;stroke-linecap:round;stroke-linejoin:round"></path><path d="M326.22,187.57a1.39,1.39,0,1,0,1.39-1.38A1.38,1.38,0,0,0,326.22,187.57Z" style="fill:#92E3A9;stroke:#263238;stroke-linecap:round;stroke-linejoin:round"></path><path d="M342.07,198a1.93,1.93,0,0,0,.79-.66,5.58,5.58,0,0,0,.5-1.06H345V212h-2.48V200h-1.91v-1.76A3.21,3.21,0,0,0,342.07,198Z" style="fill:#263238"></path><path d="M342,216.18a33,33,0,0,1-4-.26c-2.12-.26-5.13-.87-6.66-3.13-1.93-2.84-.49-6.49.21-7.93a18.52,18.52,0,0,1,13.62-10,9.82,9.82,0,0,1,11.73,11.94,12.4,12.4,0,0,1-7.67,8.13A19.82,19.82,0,0,1,342,216.18Zm-.36-19.31a17.52,17.52,0,0,0-9.15,8.43c-.63,1.28-1.92,4.52-.29,6.92,1.31,1.93,4,2.47,6,2.71a21.92,21.92,0,0,0,10.74-.93,11.31,11.31,0,0,0,7.06-7.44,8.81,8.81,0,0,0-10.51-10.73h0l-.14,0a8.39,8.39,0,0,0-3.3,1.5Z" style="fill:#92E3A9"></path></g><g id="freepik--Device--inject-113"><path d="M381.68,281.88,375,311.48a2.07,2.07,0,0,1-2.47,1.6L334.06,304l-2.13-.51a1.86,1.86,0,0,1-1.23-2.26l5.77-26.57a1.93,1.93,0,0,1,2.09-1.61l41.52,6.35a1.94,1.94,0,0,1,.73.27A2,2,0,0,1,381.68,281.88Z" style="fill:#263238;stroke:#263238;stroke-linecap:round;stroke-linejoin:round"></path><polygon points="359.39 298.34 349.53 296.2 351.65 292.21 359.13 293.73 359.39 298.34" style="fill:#fff"></polygon><path d="M359.88,298.91l-11-2.4,2.55-4.8,8.13,1.65Zm-9.7-3,8.72,1.88-.2-3.66-6.83-1.41Z" style="fill:#fff"></path><path d="M357.58,283.48a3,3,0,0,1-3.46,2.36,2.74,2.74,0,0,1-2.15-3.35,3,3,0,0,1,3.42-2.38A2.74,2.74,0,0,1,357.58,283.48Z" style="fill:none;stroke:#263238;stroke-linecap:round;stroke-linejoin:round"></path><path d="M354,286.27a3.16,3.16,0,0,1-2.48-3.85,3.54,3.54,0,0,1,3.95-2.75,3.17,3.17,0,0,1,2.53,3.88A3.52,3.52,0,0,1,354,286.27Zm1.27-5.72a2.59,2.59,0,0,0-2.9,2,2.32,2.32,0,0,0,1.83,2.83,2.58,2.58,0,0,0,2.92-2A2.32,2.32,0,0,0,355.29,280.55Z" style="fill:#fff"></path><path d="M363.38,284.5a3.13,3.13,0,0,1-3.58,2.38,2.79,2.79,0,0,1-2.22-3.4,3.15,3.15,0,0,1,3.54-2.41A2.8,2.8,0,0,1,363.38,284.5Z" style="fill:none;stroke:#263238;stroke-linecap:round;stroke-linejoin:round"></path><path d="M359.7,287.33a3.24,3.24,0,0,1-2.56-3.93,3.64,3.64,0,0,1,4.08-2.78,3.24,3.24,0,0,1,2.62,4A3.64,3.64,0,0,1,359.7,287.33Zm1.31-5.81a2.66,2.66,0,0,0-3,2,2.38,2.38,0,0,0,1.88,2.89,2.66,2.66,0,0,0,3-2A2.37,2.37,0,0,0,361,281.52Z" style="fill:#fff"></path><path d="M364,290.59a8.14,8.14,0,0,1-9.54,6.19,7.59,7.59,0,0,1-5.77-9.13,8.17,8.17,0,0,1,9.23-6.34A7.57,7.57,0,0,1,364,290.59Z" style="fill:none;stroke:#263238;stroke-linecap:round;stroke-linejoin:round"></path><path d="M354.4,297.21a8,8,0,0,1-6.08-9.64,8.63,8.63,0,0,1,9.74-6.7,8,8,0,0,1,6.43,9.81A8.6,8.6,0,0,1,354.4,297.21Z" style="fill:#263238;stroke:#fff;stroke-linecap:round;stroke-linejoin:round"></path><polygon points="357.47 283.05 356.66 282.9 355.52 288.84 351.98 291.33 352.46 292.09 356.25 289.43 357.47 283.05" style="fill:#fff"></polygon><path d="M383.81,282.38,377.14,312a2.08,2.08,0,0,1-2.5,1.61l-2.1-.5a2.07,2.07,0,0,0,2.47-1.6l6.67-29.6a2,2,0,0,0-.87-2.18l1.39.23A2,2,0,0,1,383.81,282.38Z" style="fill:#fff;stroke:#263238;stroke-linecap:round;stroke-linejoin:round"></path><polygon points="380.9 295.3 389.32 309.92 378.2 307.28 380.9 295.3" style="fill:#263238"></polygon><circle cx="374.86" cy="297.49" r="1.32" style="fill:#fff"></circle><line x1="344.22" y1="298.46" x2="362.26" y2="302.35" style="fill:none;stroke:#fff;stroke-linecap:round;stroke-linejoin:round"></line><line x1="343.6" y1="301.27" x2="358.9" y2="304.78" style="fill:none;stroke:#fff;stroke-linecap:round;stroke-linejoin:round"></line></g><g id="freepik--alarm-clock--inject-113"><path d="M438.83,285.27c-1,1.67-3.52,2-5.7.73s-3.19-3.64-2.23-5.3,3.52-2,5.7-.73S439.79,283.61,438.83,285.27Z" style="fill:#fff;stroke:#263238;stroke-linecap:round;stroke-linejoin:round"></path><polygon points="435.49 308.18 436.64 310.92 435.49 310.92 433.09 309.16 435.49 308.18" style="fill:#fff;stroke:#263238;stroke-linecap:round;stroke-linejoin:round"></polygon><circle cx="424.21" cy="296.18" r="13.55" style="fill:#263238;stroke:#263238;stroke-linecap:round;stroke-linejoin:round"></circle><path d="M442.9,297.37a13.55,13.55,0,0,1-13.55,13.54,13.54,13.54,0,0,1-13.55-13.54,13.55,13.55,0,0,1,13.55-13.55,10.69,10.69,0,0,1,1.27.07A13.53,13.53,0,0,1,442.9,297.37Z" style="fill:#fff;stroke:#263238;stroke-linecap:round;stroke-linejoin:round"></path><path d="M437.63,288.7a13.3,13.3,0,0,1-9.31,21.24s-4,.65-8.51-3" style="fill:none;stroke:#263238;stroke-linecap:round;stroke-linejoin:round"></path><path d="M415.68,285.19c1.13,1.95,4.13,2.34,6.71.85s3.75-4.28,2.62-6.24-4.14-2.34-6.71-.85S414.55,283.23,415.68,285.19Z" style="fill:#fff;stroke:#263238;stroke-linecap:round;stroke-linejoin:round"></path><circle cx="428.1" cy="296.99" r="0.88" style="fill:#263238"></circle><polyline points="428.13 302.87 428.1 296.99 432.91 289.13" style="fill:none;stroke:#263238;stroke-linecap:round;stroke-linejoin:round"></polyline><polygon points="417.94 308.18 416.79 310.92 417.94 310.92 420.34 309.16 417.94 308.18" style="fill:#fff;stroke:#263238;stroke-linecap:round;stroke-linejoin:round"></polygon><polygon points="433.6 284.48 434.32 283.29 435.04 283.82 434.49 284.77 433.6 284.48" style="fill:#fff;stroke:#263238;stroke-linecap:round;stroke-linejoin:round"></polygon><circle cx="419.95" cy="282.08" r="0.41" style="fill:#fff;stroke:#263238;stroke-linecap:round;stroke-linejoin:round"></circle></g><g id="freepik--Plants--inject-113"><polygon points="226.01 142.5 94.34 143.35 94.34 152.47 226.31 151.22 226.01 142.5" style="fill:none;stroke:#263238;stroke-linecap:round;stroke-linejoin:round"></polygon><polygon points="72.5 140.56 94.34 143.35 94.34 152.47 72.5 149.68 72.5 140.56" style="fill:none;stroke:#263238;stroke-linecap:round;stroke-linejoin:round"></polygon><polygon points="204.16 139.71 226.01 142.5 94.34 143.35 72.5 140.56 204.16 139.71" style="fill:#263238;stroke:#263238;stroke-linecap:round;stroke-linejoin:round"></polygon><path d="M121.47,141.23h-16l-1.78-3.35a58.43,58.43,0,0,1-6.78-26.4v-.8H130a58.38,58.38,0,0,1-7.26,28.19Z" style="fill:#fff;stroke:#263238;stroke-linecap:round;stroke-linejoin:round"></path><path d="M87,111.34a17.51,17.51,0,0,0,10,3,2.6,2.6,0,0,0,1.23-.24,1.25,1.25,0,0,0,.66-1.12,1.79,1.79,0,0,0-.88-1.23,28.9,28.9,0,0,0-7.25-3.94,27.63,27.63,0,0,0-3.94-1.14,17,17,0,0,0-3.31-.74C83.25,108.3,85.38,110.28,87,111.34Z" style="fill:#92E3A9"></path><path d="M129.54,97.89a8.79,8.79,0,0,1,5.9-3.4.5.5,0,0,1,.38.07.66.66,0,0,1,.17.54,14,14,0,0,1-2.54,8.37,6.47,6.47,0,0,1-2.9,2.46,3.25,3.25,0,0,1-2.66-.16c-.8-.46-.66-1.12-.57-2A11.15,11.15,0,0,1,129.54,97.89Z" style="fill:#92E3A9"></path><path d="M129.54,97.89a8.79,8.79,0,0,1,5.9-3.4.5.5,0,0,1,.38.07.66.66,0,0,1,.17.54,14,14,0,0,1-2.54,8.37,6.47,6.47,0,0,1-2.9,2.46,3.25,3.25,0,0,1-2.66-.16c-.8-.46-.66-1.12-.57-2A11.15,11.15,0,0,1,129.54,97.89Z" style="opacity:0.2"></path><path d="M115.09,100.63a8.23,8.23,0,0,0,2-5,8.7,8.7,0,0,0-1.22-4.38,23.76,23.76,0,0,0-2.65-3.55,78,78,0,0,0-.27,10.14,5.44,5.44,0,0,0,.37,2.1,1.49,1.49,0,0,0,1.56,1Z" style="fill:#92E3A9"></path><path d="M119.38,90.33a13.09,13.09,0,0,0-3.58,8.38,6.74,6.74,0,0,0,.51,3.28,2.62,2.62,0,0,0,2.42,1.63,3.68,3.68,0,0,0,2.41-2c1-1.62,2.14-3.92,1.59-5.91A10.63,10.63,0,0,0,119.38,90.33Z" style="fill:#92E3A9"></path><path d="M119.38,90.33a13.09,13.09,0,0,0-3.58,8.38,6.74,6.74,0,0,0,.51,3.28,2.62,2.62,0,0,0,2.42,1.63,3.68,3.68,0,0,0,2.41-2c1-1.62,2.14-3.92,1.59-5.91A10.63,10.63,0,0,0,119.38,90.33Z" style="opacity:0.1"></path><path d="M125.72,101.51c1.7-1.59,2.4-4.25,2.32-6.75a27,27,0,0,0-1.56-7.26,30.31,30.31,0,0,0-4,7.58,10.55,10.55,0,0,0-.73,3.28,4.28,4.28,0,0,0,1,3.07,2.05,2.05,0,0,0,2.75.29l-.28.17Z" style="fill:#92E3A9"></path><g style="opacity:0.2"><path d="M125.72,101.51c1.7-1.59,2.4-4.25,2.32-6.75a27,27,0,0,0-1.56-7.26,30.31,30.31,0,0,0-4,7.58,10.55,10.55,0,0,0-.73,3.28,4.28,4.28,0,0,0,1,3.07,2.05,2.05,0,0,0,2.75.29l-.28.17Z"></path></g><path d="M129.61,91.7a31.05,31.05,0,0,1,.32,9.32c-.53,3.07-2.18,6.08-4.76,7.17a2.6,2.6,0,0,1-3.18-.56,3.06,3.06,0,0,1-.32-2.5,8.67,8.67,0,0,1,1.11-2.29c2.06-3.35,6.36-11.48,6.8-11.14Z" style="fill:#92E3A9"></path><path d="M129.61,91.7a31.05,31.05,0,0,1,.32,9.32c-.53,3.07-2.18,6.08-4.76,7.17a2.6,2.6,0,0,1-3.18-.56,3.06,3.06,0,0,1-.32-2.5,8.67,8.67,0,0,1,1.11-2.29c2.06-3.35,6.36-11.48,6.8-11.14Z" style="fill:#92E3A9"></path><g style="opacity:0.1"><path d="M129.61,91.7a31.05,31.05,0,0,1,.32,9.32c-.53,3.07-2.18,6.08-4.76,7.17a2.6,2.6,0,0,1-3.18-.56,3.06,3.06,0,0,1-.32-2.5,8.67,8.67,0,0,1,1.11-2.29c2.06-3.35,6.36-11.48,6.8-11.14Z"></path></g><path d="M121.62,95.87a18.48,18.48,0,0,1,2.2,5.94,10.36,10.36,0,0,1-.79,6.28,5.58,5.58,0,0,1-4.63,3.27,4.34,4.34,0,0,1-3.71-2.28c-.88-1.55-.24-3,.43-4.47C116.65,101.17,119.17,98.47,121.62,95.87Z" style="fill:#92E3A9"></path><path d="M140.59,101.59a3.53,3.53,0,0,1,.15,3,7.47,7.47,0,0,1-1.66,2.47,20.52,20.52,0,0,1-17.25,6.59,1.62,1.62,0,0,1-1.37-.7,1.51,1.51,0,0,1,.42-1.72,3.64,3.64,0,0,1,1.61-.67,27.19,27.19,0,0,0,9-4.11C134.29,104.53,137.61,103.19,140.59,101.59Z" style="fill:#92E3A9"></path><path d="M140.59,101.59a3.53,3.53,0,0,1,.15,3,7.47,7.47,0,0,1-1.66,2.47,20.52,20.52,0,0,1-17.25,6.59,1.62,1.62,0,0,1-1.37-.7,1.51,1.51,0,0,1,.42-1.72,3.64,3.64,0,0,1,1.61-.67,27.19,27.19,0,0,0,9-4.11C134.29,104.53,137.61,103.19,140.59,101.59Z" style="opacity:0.1"></path><path d="M129.58,101.58c.47-.69,1-1.48,1.8-1.39.59.06,1,.66,1.26,1.27,1,2.47-.19,5.5-2.08,7.17s-4.3,2.31-6.64,2.9l-2.4.6c-1,.24-2.86-.08-2-1.59.57-1,2.48-1.58,3.36-2.18A24.89,24.89,0,0,0,129.58,101.58Z" style="fill:#92E3A9"></path><path d="M139.49,111.34a17.51,17.51,0,0,1-10,3,2.6,2.6,0,0,1-1.23-.24,1.25,1.25,0,0,1-.66-1.12,1.79,1.79,0,0,1,.88-1.23,28.9,28.9,0,0,1,7.25-3.94,27.63,27.63,0,0,1,3.94-1.14A17,17,0,0,1,143,106C143.2,108.3,141.07,110.28,139.49,111.34Z" style="fill:#92E3A9"></path><path d="M129.81,120.6a15.32,15.32,0,0,0,8.2-3.47c.47-.36,1-.95.77-1.54a1.32,1.32,0,0,0-.95-.72c-2.79-.94-5.64-1.88-8.54-1.75a9.81,9.81,0,0,0-4,1c-1,.49-3,1.71-3.29,3s2.24,2.36,3.18,2.73A10.87,10.87,0,0,0,129.81,120.6Z" style="fill:#92E3A9"></path><path d="M129.81,120.6a15.32,15.32,0,0,0,8.2-3.47c.47-.36,1-.95.77-1.54a1.32,1.32,0,0,0-.95-.72c-2.79-.94-5.64-1.88-8.54-1.75a9.81,9.81,0,0,0-4,1c-1,.49-3,1.71-3.29,3s2.24,2.36,3.18,2.73A10.87,10.87,0,0,0,129.81,120.6Z" style="opacity:0.1"></path><path d="M118.18,113.3a25.9,25.9,0,0,1,8.73-.47,5,5,0,0,1,2.1.6,2.47,2.47,0,0,1,1.19,1.94,2.57,2.57,0,0,1-1.08,2,5.77,5.77,0,0,1-2.06.83,16.45,16.45,0,0,1-6.39.8,6.54,6.54,0,0,1-4.45-2.44C114.9,114.72,116.64,113.66,118.18,113.3Z" style="fill:#92E3A9"></path><path d="M118.18,113.3a25.9,25.9,0,0,1,8.73-.47,5,5,0,0,1,2.1.6,2.47,2.47,0,0,1,1.19,1.94,2.57,2.57,0,0,1-1.08,2,5.77,5.77,0,0,1-2.06.83,16.45,16.45,0,0,1-6.39.8,6.54,6.54,0,0,1-4.45-2.44C114.9,114.72,116.64,113.66,118.18,113.3Z" style="fill:#fff;opacity:0.1"></path><path d="M109.44,113.28A4.53,4.53,0,0,1,108,111.7a2.06,2.06,0,0,1,.14-2.12c.66-.78,4.36-1.89,5.29-2.11a3.67,3.67,0,0,1,2.3.49c1.06.49,2.1,1,3.13,1.59a4.72,4.72,0,0,1,1.43,1,2.1,2.1,0,0,1,.49,1.77A2.54,2.54,0,0,1,119,114a16.53,16.53,0,0,1-6.14,1A34.64,34.64,0,0,1,109.44,113.28Z" style="fill:#92E3A9"></path><g style="opacity:0.1"><path d="M109.44,113.28A4.53,4.53,0,0,1,108,111.7a2.06,2.06,0,0,1,.14-2.12c.66-.78,4.36-1.89,5.29-2.11a3.67,3.67,0,0,1,2.3.49c1.06.49,2.1,1,3.13,1.59a4.72,4.72,0,0,1,1.43,1,2.1,2.1,0,0,1,.49,1.77A2.54,2.54,0,0,1,119,114a16.53,16.53,0,0,1-6.14,1A34.64,34.64,0,0,1,109.44,113.28Z"></path></g><path d="M117,114.73a3.52,3.52,0,0,1,2.2,1.86,2.66,2.66,0,0,1-.43,2.92,3.2,3.2,0,0,1-1.94.64l-2.52.25a2.06,2.06,0,0,1-1.56-.26,2.87,2.87,0,0,1-.63-2.25,6.61,6.61,0,0,1,.28-2.31,1.64,1.64,0,0,1,1.83-1.25A20.09,20.09,0,0,1,117,114.73Z" style="fill:#92E3A9"></path><path d="M96.91,97.89a8.79,8.79,0,0,0-5.9-3.4.5.5,0,0,0-.38.07.66.66,0,0,0-.17.54A14,14,0,0,0,93,103.47a6.47,6.47,0,0,0,2.9,2.46,3.25,3.25,0,0,0,2.66-.16c.8-.46.66-1.12.57-2A11.15,11.15,0,0,0,96.91,97.89Z" style="fill:#92E3A9"></path><path d="M96.91,97.89a8.79,8.79,0,0,0-5.9-3.4.5.5,0,0,0-.38.07.66.66,0,0,0-.17.54A14,14,0,0,0,93,103.47a6.47,6.47,0,0,0,2.9,2.46,3.25,3.25,0,0,0,2.66-.16c.8-.46.66-1.12.57-2A11.15,11.15,0,0,0,96.91,97.89Z" style="opacity:0.2"></path><path d="M111.36,100.63a8.23,8.23,0,0,1-2-5,8.7,8.7,0,0,1,1.22-4.38,23.76,23.76,0,0,1,2.65-3.55,78,78,0,0,1,.27,10.14,5.44,5.44,0,0,1-.37,2.1,1.49,1.49,0,0,1-1.56,1Z" style="fill:#92E3A9"></path><path d="M107.07,90.33a13.09,13.09,0,0,1,3.58,8.38,6.74,6.74,0,0,1-.51,3.28,2.62,2.62,0,0,1-2.42,1.63,3.68,3.68,0,0,1-2.41-2c-1-1.62-2.14-3.92-1.59-5.91A10.63,10.63,0,0,1,107.07,90.33Z" style="fill:#92E3A9"></path><path d="M107.07,90.33a13.09,13.09,0,0,1,3.58,8.38,6.74,6.74,0,0,1-.51,3.28,2.62,2.62,0,0,1-2.42,1.63,3.68,3.68,0,0,1-2.41-2c-1-1.62-2.14-3.92-1.59-5.91A10.63,10.63,0,0,1,107.07,90.33Z" style="opacity:0.1"></path><path d="M100.73,101.51c-1.7-1.59-2.4-4.25-2.32-6.75A27,27,0,0,1,100,87.5a30.31,30.31,0,0,1,4,7.58,10.55,10.55,0,0,1,.73,3.28,4.28,4.28,0,0,1-1,3.07,2.05,2.05,0,0,1-2.75.29l.28.17Z" style="fill:#92E3A9"></path><g style="opacity:0.2"><path d="M100.73,101.51c-1.7-1.59-2.4-4.25-2.32-6.75A27,27,0,0,1,100,87.5a30.31,30.31,0,0,1,4,7.58,10.55,10.55,0,0,1,.73,3.28,4.28,4.28,0,0,1-1,3.07,2.05,2.05,0,0,1-2.75.29l.28.17Z"></path></g><path d="M96.84,91.7a31.05,31.05,0,0,0-.32,9.32c.53,3.07,2.18,6.08,4.76,7.17a2.6,2.6,0,0,0,3.18-.56,3.06,3.06,0,0,0,.32-2.5,8.67,8.67,0,0,0-1.11-2.29c-2.06-3.35-6.36-11.48-6.8-11.14Z" style="fill:#92E3A9"></path><path d="M96.84,91.7a31.05,31.05,0,0,0-.32,9.32c.53,3.07,2.18,6.08,4.76,7.17a2.6,2.6,0,0,0,3.18-.56,3.06,3.06,0,0,0,.32-2.5,8.67,8.67,0,0,0-1.11-2.29c-2.06-3.35-6.36-11.48-6.8-11.14Z" style="fill:#92E3A9"></path><g style="opacity:0.1"><path d="M96.84,91.7a31.05,31.05,0,0,0-.32,9.32c.53,3.07,2.18,6.08,4.76,7.17a2.6,2.6,0,0,0,3.18-.56,3.06,3.06,0,0,0,.32-2.5,8.67,8.67,0,0,0-1.11-2.29c-2.06-3.35-6.36-11.48-6.8-11.14Z"></path></g><path d="M104.83,95.87a18.48,18.48,0,0,0-2.2,5.94,10.36,10.36,0,0,0,.79,6.28,5.58,5.58,0,0,0,4.63,3.27,4.34,4.34,0,0,0,3.71-2.28c.88-1.55.24-3-.43-4.47C109.81,101.17,107.28,98.47,104.83,95.87Z" style="fill:#92E3A9"></path><path d="M85.85,101.83a3.5,3.5,0,0,0-.15,2.94,7.35,7.35,0,0,0,1.64,2.42,20.08,20.08,0,0,0,16.9,6.47,1.64,1.64,0,0,0,1.35-.69,1.48,1.48,0,0,0-.42-1.69,3.46,3.46,0,0,0-1.57-.65,27,27,0,0,1-8.84-4C92,104.71,88.77,103.4,85.85,101.83Z" style="fill:#92E3A9"></path><path d="M85.85,101.83a3.5,3.5,0,0,0-.15,2.94,7.35,7.35,0,0,0,1.64,2.42,20.08,20.08,0,0,0,16.9,6.47,1.64,1.64,0,0,0,1.35-.69,1.48,1.48,0,0,0-.42-1.69,3.46,3.46,0,0,0-1.57-.65,27,27,0,0,1-8.84-4C92,104.71,88.77,103.4,85.85,101.83Z" style="opacity:0.1"></path><path d="M96.34,101.37c-.45-.68-1-1.46-1.76-1.37-.58.07-1,.65-1.24,1.25-1,2.43.19,5.4,2,7s4.23,2.26,6.52,2.84l2.36.6c.93.23,2.81-.08,2-1.56-.56-1-2.44-1.56-3.31-2.15A24.54,24.54,0,0,1,96.34,101.37Z" style="fill:#92E3A9"></path><path d="M96.64,120.6a15.32,15.32,0,0,1-8.2-3.47c-.47-.36-1-.95-.77-1.54a1.32,1.32,0,0,1,1-.72c2.79-.94,5.64-1.88,8.54-1.75a9.81,9.81,0,0,1,4,1c1,.49,3,1.71,3.29,3s-2.24,2.36-3.18,2.73A10.87,10.87,0,0,1,96.64,120.6Z" style="fill:#92E3A9"></path><path d="M96.64,120.6a15.32,15.32,0,0,1-8.2-3.47c-.47-.36-1-.95-.77-1.54a1.32,1.32,0,0,1,1-.72c2.79-.94,5.64-1.88,8.54-1.75a9.81,9.81,0,0,1,4,1c1,.49,3,1.71,3.29,3s-2.24,2.36-3.18,2.73A10.87,10.87,0,0,1,96.64,120.6Z" style="opacity:0.1"></path><path d="M108.27,113.3a25.9,25.9,0,0,0-8.73-.47,5,5,0,0,0-2.1.6,2.47,2.47,0,0,0-1.19,1.94,2.57,2.57,0,0,0,1.08,2,5.77,5.77,0,0,0,2.06.83,16.45,16.45,0,0,0,6.39.8,6.54,6.54,0,0,0,4.45-2.44C111.55,114.72,109.81,113.66,108.27,113.3Z" style="fill:#92E3A9"></path><path d="M108.27,113.3a25.9,25.9,0,0,0-8.73-.47,5,5,0,0,0-2.1.6,2.47,2.47,0,0,0-1.19,1.94,2.57,2.57,0,0,0,1.08,2,5.77,5.77,0,0,0,2.06.83,16.45,16.45,0,0,0,6.39.8,6.54,6.54,0,0,0,4.45-2.44C111.55,114.72,109.81,113.66,108.27,113.3Z" style="fill:#fff;opacity:0.1"></path><path d="M117,113.28a4.53,4.53,0,0,0,1.43-1.58,2.06,2.06,0,0,0-.14-2.12c-.66-.78-4.36-1.89-5.29-2.11a3.67,3.67,0,0,0-2.3.49c-1.06.49-2.1,1-3.13,1.59a4.85,4.85,0,0,0-1.43,1,2.1,2.1,0,0,0-.49,1.77,2.54,2.54,0,0,0,1.81,1.61,16.53,16.53,0,0,0,6.14,1A34.64,34.64,0,0,0,117,113.28Z" style="fill:#92E3A9"></path><g style="opacity:0.1"><path d="M117,113.28a4.53,4.53,0,0,0,1.43-1.58,2.06,2.06,0,0,0-.14-2.12c-.66-.78-4.36-1.89-5.29-2.11a3.67,3.67,0,0,0-2.3.49c-1.06.49-2.1,1-3.13,1.59a4.85,4.85,0,0,0-1.43,1,2.1,2.1,0,0,0-.49,1.77,2.54,2.54,0,0,0,1.81,1.61,16.53,16.53,0,0,0,6.14,1A34.64,34.64,0,0,0,117,113.28Z"></path></g><path d="M109.5,114.73a3.52,3.52,0,0,0-2.2,1.86,2.66,2.66,0,0,0,.43,2.92,3.2,3.2,0,0,0,1.94.64l2.52.25a2.06,2.06,0,0,0,1.56-.26,2.87,2.87,0,0,0,.63-2.25,6.61,6.61,0,0,0-.28-2.31,1.64,1.64,0,0,0-1.83-1.25A20.09,20.09,0,0,0,109.5,114.73Z" style="fill:#92E3A9"></path><path d="M113.67,96.66a2.1,2.1,0,0,0-.44-.28.26.26,0,0,1,.15,0l.08,0h0l.08.07a.35.35,0,0,1,.06.09.26.26,0,0,1,0,.09S113.67,96.65,113.67,96.66Z" style="fill:#92E3A9"></path><path d="M113.67,96.66h0a2.1,2.1,0,0,0-.44-.28.26.26,0,0,1,.15,0l.08,0h0l.08.07a.35.35,0,0,1,.06.09.26.26,0,0,1,0,.09S113.67,96.65,113.67,96.66Z" style="fill:#92E3A9;opacity:0.1"></path><path d="M116.82,105.23a7.06,7.06,0,0,1-1.31,2.32,2.9,2.9,0,0,1-2.19,1.07h-.2a2.93,2.93,0,0,1-2.19-1.07,7.22,7.22,0,0,1-1.3-2.32,7.56,7.56,0,0,1-.54-3.55,6.11,6.11,0,0,1,1.78-3.41c.23,0,1-.86,1.2-1l.06,0,.08-.06.57-.48.29-.19.07,0,.09,0a2.1,2.1,0,0,1,.44.28h0c.28.21.57.47.71.57s1,1,1.21,1a6.16,6.16,0,0,1,1.77,3.41A7.43,7.43,0,0,1,116.82,105.23Z" style="fill:#92E3A9"></path><path d="M113.23,96.38l-.09,0-.07,0-.29.19c.07-.17.16-.28.3-.29A.28.28,0,0,1,113.23,96.38Z" style="fill:#92E3A9"></path><g style="opacity:0.2"><path d="M116.82,105.23a7.06,7.06,0,0,1-1.31,2.32,2.9,2.9,0,0,1-2.19,1.07h-.2a2.93,2.93,0,0,1-2.19-1.07,7.22,7.22,0,0,1-1.3-2.32,7.56,7.56,0,0,1-.54-3.55,6.11,6.11,0,0,1,1.78-3.41c.23,0,1-.86,1.2-1s.44-.37.71-.58a1.84,1.84,0,0,1,.45-.27,1.87,1.87,0,0,1,.44.28c.28.21.57.47.71.57s1,1,1.21,1a6.16,6.16,0,0,1,1.77,3.41A7.43,7.43,0,0,1,116.82,105.23Z" style="fill:#fff"></path><path d="M113.23,96.38a1.84,1.84,0,0,0-.45.27c.07-.17.16-.28.3-.29A.28.28,0,0,1,113.23,96.38Z" style="fill:#fff"></path></g><path d="M113.67,96.66a1.87,1.87,0,0,0-.44-.28.26.26,0,0,1,.15,0C113.51,96.37,113.6,96.48,113.67,96.66Z" style="fill:#fff;opacity:0.1"></path><path d="M169.39,105.85S165.16,52.52,177,28.62c0,0,1.27,48.45-1.69,77.23Z" style="fill:#92E3A9"></path><path d="M169.39,105.85S165.16,52.52,177,28.62c0,0,1.27,48.45-1.69,77.23Z" style="opacity:0.2"></path><path d="M163.15,103.49s4-14.66-12.32-48.45c0,0,17,2,17.82,48.45Z" style="fill:#92E3A9"></path><path d="M172.33,98.59S176,59.19,182,39.33c0,0,2.13,24.29-6.61,58Z" style="fill:#92E3A9"></path><path d="M179.3,106.24s-2.84-13,12.29-47.79c0,0-16.94,1.33-17.79,47.79Z" style="fill:#92E3A9"></path><path d="M173.62,106.24s.59-71.17-9.94-76.92c0,0,3.56,65,3.31,76.53Z" style="fill:#92E3A9"></path><polygon points="177.46 140.05 165.4 140.05 159.15 100.52 183.7 100.52 177.46 140.05" style="fill:#fff;stroke:#263238;stroke-linecap:round;stroke-linejoin:round"></polygon><path d="M159.73,113.86H183.3c6.07,2.1,10.09,5.78,10.09,10,0,4.39-4.43,12.57-11,17.45H160.66c-6.58-4.88-11-13.06-11-17.45C149.64,119.64,153.67,116,159.73,113.86Z" style="fill:#fff;stroke:#263238;stroke-linecap:round;stroke-linejoin:round"></path><path d="M183.64,125.23c1.43-.25,2.88-.56,4.32-.94" style="fill:#fff;stroke:#263238;stroke-linecap:round;stroke-linejoin:round"></path><path d="M155.69,124.29a74.26,74.26,0,0,0,24,1.49" style="fill:#fff;stroke:#263238;stroke-linecap:round;stroke-linejoin:round"></path></g><g id="freepik--Reminders--inject-113"><path d="M291.55,174.31v30.42a2.88,2.88,0,0,1-2.88,2.88H243.54l-11.14,8.6a2.07,2.07,0,0,1-1.27.43,2.13,2.13,0,0,1-2.13-2.13v-6.9h-1.74a2.88,2.88,0,0,1-2.88-2.88V174.3a2.87,2.87,0,0,1,2.88-2.85h61.43A2.86,2.86,0,0,1,291.55,174.31Z" style="fill:#fff;stroke:#263238;stroke-linecap:round;stroke-linejoin:round"></path><line x1="230.44" y1="184" x2="245" y2="184" style="fill:none;stroke:#263238;stroke-linecap:round;stroke-linejoin:round"></line><line x1="230.44" y1="189.63" x2="254.32" y2="189.63" style="fill:none;stroke:#263238;stroke-linecap:round;stroke-linejoin:round"></line><line x1="230.44" y1="195.27" x2="246.91" y2="195.27" style="fill:none;stroke:#263238;stroke-linecap:round;stroke-linejoin:round"></line><circle cx="274.41" cy="189.63" r="11.81" style="fill:#fff;stroke:#263238;stroke-linecap:round;stroke-linejoin:round"></circle><circle cx="274.41" cy="189.63" r="9.68" style="fill:#92E3A9"></circle><g style="opacity:0.1"><path d="M284.09,189.63h-9.68V180a9.69,9.69,0,1,0,9.68,9.68Z"></path></g><polyline points="274.41 181.08 274.41 189.63 278.81 189.63" style="fill:none;stroke:#263238;stroke-linecap:round;stroke-linejoin:round"></polyline><path d="M401.32,137.25v30.42a2.88,2.88,0,0,1-2.88,2.88H353.31l-11.14,8.6a2.07,2.07,0,0,1-1.27.43,2.13,2.13,0,0,1-2.13-2.13v-6.9H337a2.87,2.87,0,0,1-2.87-2.88V137.24a2.85,2.85,0,0,1,2.87-2.85h61.43A2.86,2.86,0,0,1,401.32,137.25Z" style="fill:#fff;stroke:#263238;stroke-linecap:round;stroke-linejoin:round"></path><line x1="340.21" y1="146.94" x2="362.88" y2="146.94" style="fill:none;stroke:#263238;stroke-linecap:round;stroke-linejoin:round"></line><line x1="340.21" y1="152.57" x2="359.57" y2="152.57" style="fill:none;stroke:#263238;stroke-linecap:round;stroke-linejoin:round"></line><line x1="340.21" y1="158.21" x2="356.68" y2="158.21" style="fill:none;stroke:#263238;stroke-linecap:round;stroke-linejoin:round"></line><circle cx="384.18" cy="152.57" r="11.81" style="fill:#fff;stroke:#263238;stroke-linecap:round;stroke-linejoin:round"></circle><circle cx="384.18" cy="152.57" r="9.68" style="fill:#92E3A9"></circle><g style="opacity:0.1"><path d="M384.18,162.26v-9.69l-5.73-7.79a9.39,9.39,0,0,0-3.95,7.79A9.68,9.68,0,0,0,384.18,162.26Z"></path></g><polyline points="379.91 146.94 384.18 152.57 384.18 156.98" style="fill:none;stroke:#263238;stroke-linecap:round;stroke-linejoin:round"></polyline><path d="M427.37,231.19v30.42a2.88,2.88,0,0,1-2.87,2.88H379.36l-11.13,8.61a2.19,2.19,0,0,1-1.28.43,2.13,2.13,0,0,1-2.13-2.14v-6.9h-1.74a2.88,2.88,0,0,1-2.87-2.88V231.19a2.87,2.87,0,0,1,2.87-2.86h61.43A2.86,2.86,0,0,1,427.37,231.19Z" style="fill:#fff;stroke:#263238;stroke-linecap:round;stroke-linejoin:round"></path><line x1="366.26" y1="240.88" x2="380.82" y2="240.88" style="fill:none;stroke:#263238;stroke-linecap:round;stroke-linejoin:round"></line><line x1="366.26" y1="246.51" x2="384.98" y2="246.51" style="fill:none;stroke:#263238;stroke-linecap:round;stroke-linejoin:round"></line><line x1="366.26" y1="252.15" x2="390.15" y2="252.15" style="fill:none;stroke:#263238;stroke-linecap:round;stroke-linejoin:round"></line><circle cx="410.23" cy="246.51" r="11.81" transform="translate(-63.32 177.17) rotate(-22.67)" style="fill:#fff;stroke:#263238;stroke-linecap:round;stroke-linejoin:round"></circle><circle cx="410.23" cy="246.51" r="9.68" transform="translate(-63.28 176.92) rotate(-22.64)" style="fill:#92E3A9"></circle><g style="opacity:0.1"><path d="M410.23,246.51v-9.68a9.68,9.68,0,0,0-5.79,17.44Z"></path></g><polyline points="410.23 237.96 410.23 246.51 407.61 250.29" style="fill:none;stroke:#263238;stroke-linecap:round;stroke-linejoin:round"></polyline></g></svg>