
<svg width="331" height="247" viewBox="0 0 331 247" fill="none" xmlns="http://www.w3.org/2000/svg">
<rect width="36.9582" height="36.9582" fill="#D9D9D9"/>
<rect y="84" width="36.9582" height="36.9582" fill="#D9D9D9"/>
<rect y="168" width="36.9582" height="36.9582" fill="#D9D9D9"/>
<rect x="126" width="36.9582" height="36.9582" fill="#D9D9D9"/>
<rect x="126" y="84" width="36.9582" height="36.9582" fill="#D9D9D9"/>
<rect x="126" y="168" width="36.9582" height="36.9582" fill="#D9D9D9"/>
<rect x="42.0215" width="36.9582" height="36.9582" fill="#D9D9D9"/>
<rect x="42.0215" y="84" width="36.9582" height="36.9582" fill="#D9D9D9"/>
<rect x="42.0215" y="168" width="36.9582" height="36.9582" fill="#D9D9D9"/>
<rect x="168.021" width="36.9582" height="36.9582" fill="#D9D9D9"/>
<rect x="168.021" y="84" width="36.9582" height="36.9582" fill="#D9D9D9"/>
<rect x="168.021" y="168" width="36.9582" height="36.9582" fill="#D9D9D9"/>
<rect x="252" width="36.9582" height="36.9582" fill="#D9D9D9"/>
<rect x="252" y="84" width="36.9582" height="36.9582" fill="#D9D9D9"/>
<rect x="252" y="168" width="36.9582" height="36.9582" fill="#D9D9D9"/>
<rect x="84.042" width="36.9582" height="36.9582" fill="#D9D9D9"/>
<rect x="84.042" y="84" width="36.9582" height="36.9582" fill="#D9D9D9"/>
<rect x="84.042" y="168" width="36.9582" height="36.9582" fill="#D9D9D9"/>
<rect x="210.042" width="36.9582" height="36.9582" fill="#D9D9D9"/>
<rect x="210.042" y="84" width="36.9582" height="36.9582" fill="#D9D9D9"/>
<rect x="210.042" y="168" width="36.9582" height="36.9582" fill="#D9D9D9"/>
<rect x="294.021" width="36.9582" height="36.9582" fill="#D9D9D9"/>
<rect x="294.021" y="84" width="36.9582" height="36.9582" fill="#D9D9D9"/>
<rect x="294.021" y="168" width="36.9582" height="36.9582" fill="#D9D9D9"/>
<rect x="42.0215" y="42.0212" width="36.9582" height="36.9582" fill="#D9D9D9"/>
<rect x="42.0215" y="126.021" width="36.9582" height="36.9582" fill="#D9D9D9"/>
<rect x="42.0215" y="210.021" width="36.9582" height="36.9582" fill="#D9D9D9"/>
<rect x="168.021" y="42.0212" width="36.9582" height="36.9582" fill="#D9D9D9"/>
<rect x="168.021" y="126.021" width="36.9582" height="36.9582" fill="#D9D9D9"/>
<rect x="168.021" y="210.021" width="36.9582" height="36.9582" fill="#D9D9D9"/>
<rect x="252" y="42.0212" width="36.9582" height="36.9582" fill="#D9D9D9"/>
<rect x="252" y="126.021" width="36.9582" height="36.9582" fill="#D9D9D9"/>
<rect x="252" y="210.021" width="36.9582" height="36.9582" fill="#D9D9D9"/>
<rect x="84.042" y="42.0212" width="36.9582" height="36.9582" fill="#D9D9D9"/>
<rect x="84.042" y="126.021" width="36.9582" height="36.9582" fill="#D9D9D9"/>
<rect x="84.042" y="210.021" width="36.9582" height="36.9582" fill="#D9D9D9"/>
<rect x="210.042" y="42.0212" width="36.9582" height="36.9582" fill="#D9D9D9"/>
<rect x="210.042" y="126.021" width="36.9582" height="36.9582" fill="#D9D9D9"/>
<rect x="210.042" y="210.021" width="36.9582" height="36.9582" fill="#D9D9D9"/>
<rect x="294.021" y="42.0212" width="36.9582" height="36.9582" fill="#D9D9D9"/>
<rect x="294.021" y="126.021" width="36.9582" height="36.9582" fill="#D9D9D9"/>
<rect x="294.021" y="210.021" width="36.9582" height="36.9582" fill="#D9D9D9"/>
<rect y="42.0212" width="36.9582" height="36.9582" fill="#D9D9D9"/>
<rect y="126.021" width="36.9582" height="36.9582" fill="#D9D9D9"/>
<rect y="210.021" width="36.9582" height="36.9582" fill="#D9D9D9"/>
<rect x="126" y="42.0212" width="36.9582" height="36.9582" fill="#D9D9D9"/>
<rect x="126" y="126.021" width="36.9582" height="36.9582" fill="#D9D9D9"/>
<rect x="126" y="210.021" width="36.9582" height="36.9582" fill="#D9D9D9"/>
</svg>
